<svg width="304" height="170" viewBox="0 0 304 170" fill="none" xmlns="http://www.w3.org/2000/svg">
<rect width="83" height="36" rx="4" fill="#EEE5FF"/>
<path d="M11.654 17.372C12.3167 17.372 12.8113 17.2227 13.138 16.924C13.474 16.616 13.642 16.224 13.642 15.748V15.65C13.642 15.1367 13.4787 14.754 13.152 14.502C12.8347 14.2407 12.4147 14.11 11.892 14.11C11.388 14.11 10.9773 14.222 10.66 14.446C10.3427 14.6607 10.0813 14.9547 9.876 15.328L9.008 14.656C9.12933 14.46 9.274 14.2687 9.442 14.082C9.61933 13.886 9.82467 13.7133 10.058 13.564C10.2913 13.4147 10.562 13.2933 10.87 13.2C11.178 13.1067 11.528 13.06 11.92 13.06C12.3307 13.06 12.718 13.116 13.082 13.228C13.446 13.3307 13.7587 13.4893 14.02 13.704C14.2907 13.9093 14.5007 14.166 14.65 14.474C14.8087 14.782 14.888 15.132 14.888 15.524C14.888 15.8413 14.8367 16.126 14.734 16.378C14.6407 16.63 14.51 16.8493 14.342 17.036C14.174 17.2227 13.9733 17.3813 13.74 17.512C13.516 17.6427 13.2733 17.7407 13.012 17.806V17.862C13.2733 17.918 13.5253 18.0113 13.768 18.142C14.02 18.2633 14.2393 18.4267 14.426 18.632C14.622 18.828 14.776 19.0707 14.888 19.36C15.0093 19.64 15.07 19.962 15.07 20.326C15.07 20.746 14.9907 21.1333 14.832 21.488C14.6733 21.8333 14.4493 22.132 14.16 22.384C13.8707 22.6267 13.5207 22.818 13.11 22.958C12.6993 23.098 12.2467 23.168 11.752 23.168C11.332 23.168 10.9587 23.1213 10.632 23.028C10.3053 22.9347 10.016 22.8087 9.764 22.65C9.512 22.4913 9.288 22.314 9.092 22.118C8.90533 21.922 8.73733 21.7167 8.588 21.502L9.47 20.83C9.59133 21.026 9.722 21.2033 9.862 21.362C10.0113 21.5207 10.1747 21.656 10.352 21.768C10.5293 21.88 10.73 21.9687 10.954 22.034C11.178 22.09 11.4393 22.118 11.738 22.118C12.4287 22.118 12.9513 21.964 13.306 21.656C13.6607 21.3387 13.838 20.8907 13.838 20.312V20.2C13.838 19.6213 13.6607 19.178 13.306 18.87C12.9513 18.5527 12.4287 18.394 11.738 18.394H10.59V17.372H11.654ZM25.5131 21.824H25.4571C25.0185 22.72 24.3138 23.168 23.3431 23.168C22.8951 23.168 22.4891 23.0793 22.1251 22.902C21.7611 22.7247 21.4485 22.4727 21.1871 22.146C20.9351 21.8193 20.7391 21.4227 20.5991 20.956C20.4685 20.4893 20.4031 19.9667 20.4031 19.388C20.4031 18.8093 20.4685 18.2867 20.5991 17.82C20.7391 17.3533 20.9351 16.9567 21.1871 16.63C21.4485 16.3033 21.7611 16.0513 22.1251 15.874C22.4891 15.6967 22.8951 15.608 23.3431 15.608C23.8471 15.608 24.2765 15.72 24.6311 15.944C24.9951 16.1587 25.2705 16.4947 25.4571 16.952H25.5131V12.64H26.6331V23H25.5131V21.824ZM23.6511 22.16C23.9031 22.16 24.1411 22.1273 24.3651 22.062C24.5985 21.9967 24.7991 21.9033 24.9671 21.782C25.1351 21.6513 25.2658 21.4973 25.3591 21.32C25.4618 21.1333 25.5131 20.9233 25.5131 20.69V18.002C25.5131 17.806 25.4618 17.624 25.3591 17.456C25.2658 17.2787 25.1351 17.1293 24.9671 17.008C24.7991 16.8867 24.5985 16.7933 24.3651 16.728C24.1411 16.6533 23.9031 16.616 23.6511 16.616C23.0165 16.616 22.5171 16.8167 22.1531 17.218C21.7891 17.61 21.6071 18.128 21.6071 18.772V20.004C21.6071 20.648 21.7891 21.1707 22.1531 21.572C22.5171 21.964 23.0165 22.16 23.6511 22.16ZM34.2642 23C33.8442 23 33.5409 22.888 33.3542 22.664C33.1769 22.44 33.0649 22.16 33.0182 21.824H32.9482C32.7896 22.272 32.5282 22.608 32.1642 22.832C31.8002 23.056 31.3662 23.168 30.8622 23.168C30.0969 23.168 29.4996 22.972 29.0702 22.58C28.6502 22.188 28.4402 21.656 28.4402 20.984C28.4402 20.3027 28.6876 19.78 29.1822 19.416C29.6862 19.052 30.4656 18.87 31.5202 18.87H32.9482V18.156C32.9482 17.6427 32.8082 17.2507 32.5282 16.98C32.2482 16.7093 31.8189 16.574 31.2402 16.574C30.8016 16.574 30.4329 16.672 30.1342 16.868C29.8449 17.064 29.6022 17.3253 29.4062 17.652L28.7342 17.022C28.9302 16.63 29.2429 16.2987 29.6722 16.028C30.1016 15.748 30.6429 15.608 31.2962 15.608C32.1736 15.608 32.8549 15.8227 33.3402 16.252C33.8256 16.6813 34.0682 17.2787 34.0682 18.044V22.02H34.8942V23H34.2642ZM31.0442 22.216C31.3242 22.216 31.5809 22.1833 31.8142 22.118C32.0476 22.0527 32.2482 21.9593 32.4162 21.838C32.5842 21.7167 32.7149 21.5767 32.8082 21.418C32.9016 21.2593 32.9482 21.0867 32.9482 20.9V19.71H31.4642C30.8202 19.71 30.3489 19.8033 30.0502 19.99C29.7609 20.1767 29.6162 20.4473 29.6162 20.802V21.096C29.6162 21.4507 29.7422 21.726 29.9942 21.922C30.2556 22.118 30.6056 22.216 31.0442 22.216ZM40.8764 15.776H41.9824L38.7484 24.68C38.6644 24.8947 38.5804 25.072 38.4964 25.212C38.4124 25.3613 38.3097 25.478 38.1884 25.562C38.067 25.646 37.913 25.7067 37.7264 25.744C37.549 25.7813 37.3297 25.8 37.0684 25.8H36.4944V24.82H37.6284L38.1744 23.28L35.4724 15.776H36.5924L38.3284 20.69L38.6644 21.866H38.7344L39.1264 20.69L40.8764 15.776ZM45.526 23.168C44.854 23.168 44.2893 23.042 43.832 22.79C43.384 22.5287 42.9967 22.1833 42.67 21.754L43.468 21.11C43.748 21.4647 44.0607 21.74 44.406 21.936C44.7513 22.1227 45.1527 22.216 45.61 22.216C46.086 22.216 46.4547 22.1133 46.716 21.908C46.9867 21.7027 47.122 21.4133 47.122 21.04C47.122 20.76 47.0287 20.522 46.842 20.326C46.6647 20.1207 46.338 19.9807 45.862 19.906L45.288 19.822C44.952 19.7753 44.644 19.7053 44.364 19.612C44.084 19.5093 43.8367 19.3787 43.622 19.22C43.4167 19.052 43.2533 18.8467 43.132 18.604C43.02 18.3613 42.964 18.072 42.964 17.736C42.964 17.3813 43.0293 17.0733 43.16 16.812C43.2907 16.5413 43.468 16.3173 43.692 16.14C43.9253 15.9627 44.2007 15.832 44.518 15.748C44.8353 15.6547 45.176 15.608 45.54 15.608C46.128 15.608 46.618 15.7107 47.01 15.916C47.4113 16.1213 47.7613 16.406 48.06 16.77L47.318 17.442C47.1593 17.218 46.926 17.0173 46.618 16.84C46.31 16.6533 45.9227 16.56 45.456 16.56C44.9893 16.56 44.6347 16.6627 44.392 16.868C44.1587 17.064 44.042 17.3347 44.042 17.68C44.042 18.0347 44.1587 18.2913 44.392 18.45C44.6347 18.6087 44.98 18.7253 45.428 18.8L45.988 18.884C46.7907 19.0053 47.36 19.2387 47.696 19.584C48.032 19.92 48.2 20.3633 48.2 20.914C48.2 21.614 47.962 22.1647 47.486 22.566C47.01 22.9673 46.3567 23.168 45.526 23.168ZM58.7369 23C58.3169 23 58.0135 22.888 57.8269 22.664C57.6495 22.44 57.5375 22.16 57.4909 21.824H57.4209C57.2622 22.272 57.0009 22.608 56.6369 22.832C56.2729 23.056 55.8389 23.168 55.3349 23.168C54.5695 23.168 53.9722 22.972 53.5429 22.58C53.1229 22.188 52.9129 21.656 52.9129 20.984C52.9129 20.3027 53.1602 19.78 53.6549 19.416C54.1589 19.052 54.9382 18.87 55.9929 18.87H57.4209V18.156C57.4209 17.6427 57.2809 17.2507 57.0009 16.98C56.7209 16.7093 56.2915 16.574 55.7129 16.574C55.2742 16.574 54.9055 16.672 54.6069 16.868C54.3175 17.064 54.0749 17.3253 53.8789 17.652L53.2069 17.022C53.4029 16.63 53.7155 16.2987 54.1449 16.028C54.5742 15.748 55.1155 15.608 55.7689 15.608C56.6462 15.608 57.3275 15.8227 57.8129 16.252C58.2982 16.6813 58.5409 17.2787 58.5409 18.044V22.02H59.3669V23H58.7369ZM55.5169 22.216C55.7969 22.216 56.0535 22.1833 56.2869 22.118C56.5202 22.0527 56.7209 21.9593 56.8889 21.838C57.0569 21.7167 57.1875 21.5767 57.2809 21.418C57.3742 21.2593 57.4209 21.0867 57.4209 20.9V19.71H55.9369C55.2929 19.71 54.8215 19.8033 54.5229 19.99C54.2335 20.1767 54.0889 20.4473 54.0889 20.802V21.096C54.0889 21.4507 54.2149 21.726 54.4669 21.922C54.7282 22.118 55.0782 22.216 55.5169 22.216ZM67.0554 23.798C67.0554 24.5447 66.7614 25.0907 66.1734 25.436C65.5947 25.7907 64.7221 25.968 63.5554 25.968C62.4261 25.968 61.6141 25.814 61.1194 25.506C60.6247 25.198 60.3774 24.7593 60.3774 24.19C60.3774 23.798 60.4801 23.49 60.6854 23.266C60.8907 23.0513 61.1707 22.8927 61.5254 22.79V22.636C61.0961 22.4307 60.8814 22.0947 60.8814 21.628C60.8814 21.264 60.9981 20.9887 61.2314 20.802C61.4647 20.606 61.7634 20.4613 62.1274 20.368V20.312C61.6981 20.1067 61.3621 19.8127 61.1194 19.43C60.8861 19.0473 60.7694 18.604 60.7694 18.1C60.7694 17.736 60.8347 17.4 60.9654 17.092C61.0961 16.784 61.2781 16.5227 61.5114 16.308C61.7541 16.084 62.0387 15.9113 62.3654 15.79C62.7014 15.6687 63.0747 15.608 63.4854 15.608C63.9987 15.608 64.4561 15.7013 64.8574 15.888V15.762C64.8574 15.482 64.9227 15.2533 65.0534 15.076C65.1841 14.8893 65.3987 14.796 65.6974 14.796H66.7754V15.776H65.4034V16.238C65.6647 16.462 65.8654 16.7327 66.0054 17.05C66.1547 17.358 66.2294 17.708 66.2294 18.1C66.2294 18.464 66.1641 18.8 66.0334 19.108C65.9027 19.416 65.7161 19.682 65.4734 19.906C65.2401 20.1207 64.9554 20.2887 64.6194 20.41C64.2834 20.5313 63.9101 20.592 63.4994 20.592C63.2661 20.592 63.0327 20.5687 62.7994 20.522C62.5567 20.5873 62.3374 20.6853 62.1414 20.816C61.9454 20.9373 61.8474 21.11 61.8474 21.334C61.8474 21.5487 61.9501 21.6933 62.1554 21.768C62.3607 21.8427 62.6267 21.88 62.9534 21.88H64.4934C65.3894 21.88 66.0381 22.0527 66.4394 22.398C66.8501 22.734 67.0554 23.2007 67.0554 23.798ZM66.0054 23.882C66.0054 23.5927 65.8934 23.3593 65.6694 23.182C65.4547 23.014 65.0674 22.93 64.5074 22.93H62.0994C61.6514 23.1353 61.4274 23.462 61.4274 23.91C61.4274 24.2273 61.5441 24.498 61.7774 24.722C62.0201 24.946 62.4261 25.058 62.9954 25.058H64.0314C64.6567 25.058 65.1421 24.96 65.4874 24.764C65.8327 24.568 66.0054 24.274 66.0054 23.882ZM63.4994 19.696C63.9754 19.696 64.3534 19.584 64.6334 19.36C64.9134 19.1267 65.0534 18.772 65.0534 18.296V17.904C65.0534 17.428 64.9134 17.078 64.6334 16.854C64.3534 16.6207 63.9754 16.504 63.4994 16.504C63.0234 16.504 62.6454 16.6207 62.3654 16.854C62.0854 17.078 61.9454 17.428 61.9454 17.904V18.296C61.9454 18.772 62.0854 19.1267 62.3654 19.36C62.6454 19.584 63.0234 19.696 63.4994 19.696ZM71.0098 23.168C70.5245 23.168 70.0812 23.0793 69.6798 22.902C69.2785 22.7247 68.9332 22.4727 68.6438 22.146C68.3638 21.81 68.1445 21.4133 67.9858 20.956C67.8272 20.4893 67.7478 19.9667 67.7478 19.388C67.7478 18.8187 67.8272 18.3007 67.9858 17.834C68.1445 17.3673 68.3638 16.9707 68.6438 16.644C68.9332 16.308 69.2785 16.0513 69.6798 15.874C70.0812 15.6967 70.5245 15.608 71.0098 15.608C71.4952 15.608 71.9338 15.6967 72.3258 15.874C72.7272 16.0513 73.0725 16.308 73.3618 16.644C73.6512 16.9707 73.8752 17.3673 74.0338 17.834C74.1925 18.3007 74.2718 18.8187 74.2718 19.388C74.2718 19.9667 74.1925 20.4893 74.0338 20.956C73.8752 21.4133 73.6512 21.81 73.3618 22.146C73.0725 22.4727 72.7272 22.7247 72.3258 22.902C71.9338 23.0793 71.4952 23.168 71.0098 23.168ZM71.0098 22.174C71.6165 22.174 72.1112 21.9873 72.4938 21.614C72.8765 21.2407 73.0678 20.6713 73.0678 19.906V18.87C73.0678 18.1047 72.8765 17.5353 72.4938 17.162C72.1112 16.7887 71.6165 16.602 71.0098 16.602C70.4032 16.602 69.9085 16.7887 69.5258 17.162C69.1432 17.5353 68.9518 18.1047 68.9518 18.87V19.906C68.9518 20.6713 69.1432 21.2407 69.5258 21.614C69.9085 21.9873 70.4032 22.174 71.0098 22.174Z" fill="#937CC8"/>
<path d="M8.136 77.288C6.008 77.288 4.352 76.568 3.168 75.128C1.984 73.672 1.392 71.536 1.392 68.72C1.392 65.904 1.984 63.744 3.168 62.24C4.352 60.72 6.008 59.96 8.136 59.96C9.544 59.96 10.72 60.28 11.664 60.92C12.624 61.56 13.368 62.464 13.896 63.632L12.264 64.616C11.928 63.752 11.416 63.064 10.728 62.552C10.04 62.024 9.176 61.76 8.136 61.76C7.416 61.76 6.768 61.896 6.192 62.168C5.632 62.44 5.152 62.832 4.752 63.344C4.368 63.84 4.072 64.44 3.864 65.144C3.656 65.832 3.552 66.608 3.552 67.472V69.968C3.552 71.696 3.952 73.048 4.752 74.024C5.552 75 6.68 75.488 8.136 75.488C9.208 75.488 10.104 75.216 10.824 74.672C11.544 74.112 12.072 73.376 12.408 72.464L14.016 73.472C13.488 74.656 12.728 75.592 11.736 76.28C10.744 76.952 9.544 77.288 8.136 77.288ZM25.9463 77C25.2263 77 24.7063 76.808 24.3863 76.424C24.0823 76.04 23.8903 75.56 23.8103 74.984H23.6903C23.4183 75.752 22.9703 76.328 22.3463 76.712C21.7223 77.096 20.9783 77.288 20.1143 77.288C18.8023 77.288 17.7783 76.952 17.0423 76.28C16.3223 75.608 15.9623 74.696 15.9623 73.544C15.9623 72.376 16.3863 71.48 17.2343 70.856C18.0983 70.232 19.4343 69.92 21.2422 69.92H23.6903V68.696C23.6903 67.816 23.4503 67.144 22.9703 66.68C22.4903 66.216 21.7543 65.984 20.7623 65.984C20.0103 65.984 19.3783 66.152 18.8663 66.488C18.3703 66.824 17.9543 67.272 17.6183 67.832L16.4663 66.752C16.8023 66.08 17.3383 65.512 18.0742 65.048C18.8103 64.568 19.7383 64.328 20.8583 64.328C22.3623 64.328 23.5303 64.696 24.3623 65.432C25.1943 66.168 25.6103 67.192 25.6103 68.504V75.32H27.0262V77H25.9463ZM20.4263 75.656C20.9063 75.656 21.3463 75.6 21.7463 75.488C22.1463 75.376 22.4903 75.216 22.7783 75.008C23.0663 74.8 23.2903 74.56 23.4503 74.288C23.6103 74.016 23.6903 73.72 23.6903 73.4V71.36H21.1463C20.0423 71.36 19.2343 71.52 18.7223 71.84C18.2263 72.16 17.9783 72.624 17.9783 73.232V73.736C17.9783 74.344 18.1943 74.816 18.6263 75.152C19.0743 75.488 19.6743 75.656 20.4263 75.656ZM30.7266 61.712C30.3106 61.712 30.0066 61.616 29.8146 61.424C29.6386 61.216 29.5506 60.952 29.5506 60.632V60.32C29.5506 60 29.6386 59.744 29.8146 59.552C30.0066 59.344 30.3106 59.24 30.7266 59.24C31.1426 59.24 31.4386 59.344 31.6146 59.552C31.8066 59.744 31.9026 60 31.9026 60.32V60.632C31.9026 60.952 31.8066 61.216 31.6146 61.424C31.4386 61.616 31.1426 61.712 30.7266 61.712ZM29.7666 64.616H31.6866V77H29.7666V64.616ZM38.5026 77C37.8306 77 37.3186 76.816 36.9666 76.448C36.6306 76.064 36.4626 75.568 36.4626 74.96V66.296H34.4226V64.616H35.5746C35.9906 64.616 36.2706 64.536 36.4146 64.376C36.5746 64.2 36.6546 63.904 36.6546 63.488V61.184H38.3826V64.616H41.0946V66.296H38.3826V75.32H40.9026V77H38.5026ZM46.2206 77C45.5486 77 45.0366 76.816 44.6846 76.448C44.3486 76.064 44.1806 75.584 44.1806 75.008V59.24H46.1006V75.32H47.9246V77H46.2206ZM58.1173 64.616H60.0133L54.4693 79.88C54.3253 80.248 54.1813 80.552 54.0373 80.792C53.8933 81.048 53.7173 81.248 53.5093 81.392C53.3013 81.536 53.0373 81.64 52.7173 81.704C52.4133 81.768 52.0373 81.8 51.5893 81.8H50.6053V80.12H52.5493L53.4853 77.48L48.8533 64.616H50.7733L53.7493 73.04L54.3253 75.056H54.4453L55.1173 73.04L58.1173 64.616ZM62.4619 77V64.616H64.3819V66.632H64.4779C64.7819 65.928 65.2059 65.368 65.7499 64.952C66.3099 64.536 67.0539 64.328 67.9819 64.328C69.2619 64.328 70.2699 64.744 71.0059 65.576C71.7579 66.392 72.1339 67.552 72.1339 69.056V77H70.2139V69.392C70.2139 67.168 69.2779 66.056 67.4059 66.056C67.0219 66.056 66.6459 66.104 66.2779 66.2C65.9259 66.296 65.6059 66.44 65.3179 66.632C65.0299 66.824 64.7979 67.072 64.6219 67.376C64.4619 67.664 64.3819 68.008 64.3819 68.408V77H62.4619ZM89.8624 60.248V72.656C89.8624 73.36 89.7424 74 89.5024 74.576C89.2784 75.152 88.9504 75.64 88.5184 76.04C88.1024 76.44 87.5984 76.752 87.0064 76.976C86.4144 77.184 85.7664 77.288 85.0624 77.288C83.7664 77.288 82.7184 76.944 81.9184 76.256C81.1344 75.552 80.6304 74.624 80.4064 73.472L82.2304 73.04C82.3904 73.76 82.6944 74.352 83.1424 74.816C83.5904 75.264 84.2464 75.488 85.1104 75.488C85.9744 75.488 86.6464 75.224 87.1264 74.696C87.6064 74.168 87.8464 73.368 87.8464 72.296V62.024H82.0864V60.248H89.8624ZM98.6648 77.288C97.8168 77.288 97.0488 77.136 96.3608 76.832C95.6888 76.528 95.1048 76.096 94.6088 75.536C94.1288 74.96 93.7528 74.28 93.4808 73.496C93.2248 72.696 93.0968 71.8 93.0968 70.808C93.0968 69.832 93.2248 68.944 93.4808 68.144C93.7528 67.344 94.1288 66.664 94.6088 66.104C95.1048 65.528 95.6888 65.088 96.3608 64.784C97.0488 64.48 97.8168 64.328 98.6648 64.328C99.4968 64.328 100.241 64.48 100.897 64.784C101.553 65.088 102.113 65.512 102.577 66.056C103.041 66.584 103.393 67.216 103.633 67.952C103.889 68.688 104.017 69.496 104.017 70.376V71.288H95.1128V71.864C95.1128 72.392 95.1928 72.888 95.3528 73.352C95.5288 73.8 95.7688 74.192 96.0728 74.528C96.3928 74.864 96.7768 75.128 97.2248 75.32C97.6888 75.512 98.2088 75.608 98.7848 75.608C99.5688 75.608 100.249 75.424 100.825 75.056C101.417 74.688 101.873 74.16 102.193 73.472L103.561 74.456C103.161 75.304 102.537 75.992 101.689 76.52C100.841 77.032 99.8328 77.288 98.6648 77.288ZM98.6648 65.936C98.1368 65.936 97.6568 66.032 97.2248 66.224C96.7928 66.4 96.4168 66.656 96.0968 66.992C95.7928 67.328 95.5528 67.728 95.3768 68.192C95.2008 68.64 95.1128 69.136 95.1128 69.68V69.848H101.953V69.584C101.953 68.48 101.649 67.6 101.041 66.944C100.449 66.272 99.6568 65.936 98.6648 65.936ZM109.917 77C109.245 77 108.733 76.816 108.381 76.448C108.045 76.064 107.877 75.568 107.877 74.96V66.296H105.837V64.616H106.989C107.405 64.616 107.685 64.536 107.829 64.376C107.989 64.2 108.069 63.904 108.069 63.488V61.184H109.797V64.616H112.509V66.296H109.797V75.32H112.317V77H109.917ZM118.12 77C117.448 77 116.936 76.816 116.584 76.448C116.248 76.064 116.08 75.568 116.08 74.96V66.296H114.04V64.616H115.192C115.608 64.616 115.888 64.536 116.032 64.376C116.192 64.2 116.272 63.904 116.272 63.488V61.184H118V64.616H120.712V66.296H118V75.32H120.52V77H118.12ZM138.47 77C137.75 77 137.23 76.808 136.91 76.424C136.606 76.04 136.414 75.56 136.334 74.984H136.214C135.942 75.752 135.494 76.328 134.87 76.712C134.246 77.096 133.502 77.288 132.638 77.288C131.326 77.288 130.302 76.952 129.566 76.28C128.846 75.608 128.486 74.696 128.486 73.544C128.486 72.376 128.91 71.48 129.758 70.856C130.622 70.232 131.958 69.92 133.766 69.92H136.214V68.696C136.214 67.816 135.974 67.144 135.494 66.68C135.014 66.216 134.278 65.984 133.286 65.984C132.534 65.984 131.902 66.152 131.39 66.488C130.894 66.824 130.478 67.272 130.142 67.832L128.99 66.752C129.326 66.08 129.862 65.512 130.598 65.048C131.334 64.568 132.262 64.328 133.382 64.328C134.886 64.328 136.054 64.696 136.886 65.432C137.718 66.168 138.134 67.192 138.134 68.504V75.32H139.55V77H138.47ZM132.95 75.656C133.43 75.656 133.87 75.6 134.27 75.488C134.67 75.376 135.014 75.216 135.302 75.008C135.59 74.8 135.814 74.56 135.974 74.288C136.134 74.016 136.214 73.72 136.214 73.4V71.36H133.67C132.566 71.36 131.758 71.52 131.246 71.84C130.75 72.16 130.502 72.624 130.502 73.232V73.736C130.502 74.344 130.718 74.816 131.15 75.152C131.598 75.488 132.198 75.656 132.95 75.656ZM142.29 59.24H144.21V66.632H144.306C144.626 65.848 145.09 65.272 145.698 64.904C146.322 64.52 147.066 64.328 147.93 64.328C148.698 64.328 149.394 64.48 150.018 64.784C150.642 65.088 151.17 65.52 151.602 66.08C152.05 66.64 152.386 67.32 152.61 68.12C152.85 68.92 152.97 69.816 152.97 70.808C152.97 71.8 152.85 72.696 152.61 73.496C152.386 74.296 152.05 74.976 151.602 75.536C151.17 76.096 150.642 76.528 150.018 76.832C149.394 77.136 148.698 77.288 147.93 77.288C146.25 77.288 145.042 76.52 144.306 74.984H144.21V77H142.29V59.24ZM147.402 75.56C148.49 75.56 149.346 75.224 149.97 74.552C150.594 73.864 150.906 72.968 150.906 71.864V69.752C150.906 68.648 150.594 67.76 149.97 67.088C149.346 66.4 148.49 66.056 147.402 66.056C146.97 66.056 146.554 66.12 146.154 66.248C145.77 66.36 145.434 66.52 145.146 66.728C144.858 66.936 144.626 67.192 144.45 67.496C144.29 67.784 144.21 68.096 144.21 68.432V73.04C144.21 73.44 144.29 73.8 144.45 74.12C144.626 74.424 144.858 74.688 145.146 74.912C145.434 75.12 145.77 75.28 146.154 75.392C146.554 75.504 146.97 75.56 147.402 75.56ZM160.892 77.288C160.06 77.288 159.3 77.136 158.612 76.832C157.924 76.528 157.332 76.096 156.836 75.536C156.356 74.96 155.98 74.28 155.708 73.496C155.436 72.696 155.3 71.8 155.3 70.808C155.3 69.832 155.436 68.944 155.708 68.144C155.98 67.344 156.356 66.664 156.836 66.104C157.332 65.528 157.924 65.088 158.612 64.784C159.3 64.48 160.06 64.328 160.892 64.328C161.724 64.328 162.476 64.48 163.148 64.784C163.836 65.088 164.428 65.528 164.924 66.104C165.42 66.664 165.804 67.344 166.076 68.144C166.348 68.944 166.484 69.832 166.484 70.808C166.484 71.8 166.348 72.696 166.076 73.496C165.804 74.28 165.42 74.96 164.924 75.536C164.428 76.096 163.836 76.528 163.148 76.832C162.476 77.136 161.724 77.288 160.892 77.288ZM160.892 75.584C161.932 75.584 162.78 75.264 163.436 74.624C164.092 73.984 164.42 73.008 164.42 71.696V69.92C164.42 68.608 164.092 67.632 163.436 66.992C162.78 66.352 161.932 66.032 160.892 66.032C159.852 66.032 159.004 66.352 158.348 66.992C157.692 67.632 157.364 68.608 157.364 69.92V71.696C157.364 73.008 157.692 73.984 158.348 74.624C159.004 75.264 159.852 75.584 160.892 75.584ZM177.274 74.984H177.178C177.05 75.272 176.89 75.56 176.698 75.848C176.522 76.12 176.298 76.368 176.026 76.592C175.754 76.8 175.426 76.968 175.042 77.096C174.658 77.224 174.21 77.288 173.698 77.288C172.418 77.288 171.402 76.88 170.65 76.064C169.898 75.232 169.522 74.064 169.522 72.56V64.616H171.442V72.224C171.442 74.448 172.386 75.56 174.274 75.56C174.658 75.56 175.026 75.512 175.378 75.416C175.746 75.32 176.066 75.176 176.338 74.984C176.626 74.792 176.85 74.552 177.01 74.264C177.186 73.96 177.274 73.6 177.274 73.184V64.616H179.194V77H177.274V74.984ZM186.018 77C185.346 77 184.834 76.816 184.482 76.448C184.146 76.064 183.978 75.568 183.978 74.96V66.296H181.938V64.616H183.09C183.506 64.616 183.786 64.536 183.93 64.376C184.09 64.2 184.17 63.904 184.17 63.488V61.184H185.898V64.616H188.61V66.296H185.898V75.32H188.418V77H186.018ZM208.048 77L206.368 72.056H199.6L197.92 77H195.88L201.736 60.248H204.304L210.16 77H208.048ZM203.032 62.12H202.912L200.08 70.28H205.864L203.032 62.12ZM212.935 60.248H218.551C219.591 60.248 220.535 60.424 221.383 60.776C222.231 61.128 222.951 61.656 223.543 62.36C224.151 63.048 224.615 63.92 224.935 64.976C225.255 66.016 225.415 67.232 225.415 68.624C225.415 70.016 225.255 71.24 224.935 72.296C224.615 73.336 224.151 74.208 223.543 74.912C222.951 75.6 222.231 76.12 221.383 76.472C220.535 76.824 219.591 77 218.551 77H212.935V60.248ZM218.551 75.224C219.239 75.224 219.871 75.112 220.447 74.888C221.023 74.648 221.519 74.304 221.935 73.856C222.351 73.408 222.671 72.864 222.895 72.224C223.135 71.568 223.255 70.824 223.255 69.992V67.256C223.255 66.424 223.135 65.688 222.895 65.048C222.671 64.392 222.351 63.84 221.935 63.392C221.519 62.944 221.023 62.608 220.447 62.384C219.871 62.144 219.239 62.024 218.551 62.024H214.951V75.224H218.551ZM239.525 69.416H231.053V77H229.037V60.248H231.053V67.64H239.525V60.248H241.541V77H239.525V69.416ZM246.005 60.248H251.621C252.661 60.248 253.605 60.424 254.453 60.776C255.301 61.128 256.021 61.656 256.613 62.36C257.221 63.048 257.685 63.92 258.005 64.976C258.325 66.016 258.485 67.232 258.485 68.624C258.485 70.016 258.325 71.24 258.005 72.296C257.685 73.336 257.221 74.208 256.613 74.912C256.021 75.6 255.301 76.12 254.453 76.472C253.605 76.824 252.661 77 251.621 77H246.005V60.248ZM251.621 75.224C252.309 75.224 252.941 75.112 253.517 74.888C254.093 74.648 254.589 74.304 255.005 73.856C255.421 73.408 255.741 72.864 255.965 72.224C256.205 71.568 256.325 70.824 256.325 69.992V67.256C256.325 66.424 256.205 65.688 255.965 65.048C255.741 64.392 255.421 63.84 255.005 63.392C254.589 62.944 254.093 62.608 253.517 62.384C252.941 62.144 252.309 62.024 251.621 62.024H248.021V75.224H251.621ZM262.412 77.288C261.9 77.288 261.524 77.16 261.284 76.904C261.06 76.648 260.948 76.312 260.948 75.896V75.584C260.948 75.168 261.06 74.832 261.284 74.576C261.524 74.32 261.9 74.192 262.412 74.192C262.924 74.192 263.292 74.32 263.516 74.576C263.756 74.832 263.876 75.168 263.876 75.584V75.896C263.876 76.312 263.756 76.648 263.516 76.904C263.292 77.16 262.924 77.288 262.412 77.288ZM12.72 109L11.04 104.056H4.272L2.592 109H0.552L6.408 92.248H8.976L14.832 109H12.72ZM7.704 94.12H7.584L4.752 102.28H10.536L7.704 94.12ZM25.335 106.984H25.239C24.487 108.52 23.279 109.288 21.615 109.288C20.847 109.288 20.151 109.136 19.527 108.832C18.903 108.528 18.367 108.096 17.919 107.536C17.487 106.976 17.151 106.296 16.911 105.496C16.687 104.696 16.575 103.8 16.575 102.808C16.575 101.816 16.687 100.92 16.911 100.12C17.151 99.32 17.487 98.64 17.919 98.08C18.367 97.52 18.903 97.088 19.527 96.784C20.151 96.48 20.847 96.328 21.615 96.328C22.479 96.328 23.215 96.52 23.823 96.904C24.447 97.272 24.919 97.848 25.239 98.632H25.335V91.24H27.255V109H25.335V106.984ZM22.143 107.56C22.575 107.56 22.983 107.504 23.367 107.392C23.767 107.28 24.111 107.12 24.399 106.912C24.687 106.688 24.911 106.424 25.071 106.12C25.247 105.8 25.335 105.44 25.335 105.04V100.432C25.335 100.096 25.247 99.784 25.071 99.496C24.911 99.192 24.687 98.936 24.399 98.728C24.111 98.52 23.767 98.36 23.367 98.248C22.983 98.12 22.575 98.056 22.143 98.056C21.055 98.056 20.199 98.4 19.575 99.088C18.951 99.76 18.639 100.648 18.639 101.752V103.864C18.639 104.968 18.951 105.864 19.575 106.552C20.199 107.224 21.055 107.56 22.143 107.56ZM34.0729 109L29.7289 96.616H31.6489L33.8089 102.76L35.1529 106.984H35.2729L36.6169 102.76L38.8249 96.616H40.6729L36.3049 109H34.0729ZM51.9384 109C51.2184 109 50.6984 108.808 50.3784 108.424C50.0744 108.04 49.8824 107.56 49.8024 106.984H49.6824C49.4104 107.752 48.9624 108.328 48.3384 108.712C47.7144 109.096 46.9704 109.288 46.1064 109.288C44.7944 109.288 43.7704 108.952 43.0344 108.28C42.3144 107.608 41.9544 106.696 41.9544 105.544C41.9544 104.376 42.3784 103.48 43.2264 102.856C44.0904 102.232 45.4264 101.92 47.2344 101.92H49.6824V100.696C49.6824 99.816 49.4424 99.144 48.9624 98.68C48.4824 98.216 47.7464 97.984 46.7544 97.984C46.0024 97.984 45.3704 98.152 44.8584 98.488C44.3624 98.824 43.9464 99.272 43.6104 99.832L42.4584 98.752C42.7944 98.08 43.3304 97.512 44.0664 97.048C44.8024 96.568 45.7304 96.328 46.8504 96.328C48.3544 96.328 49.5224 96.696 50.3544 97.432C51.1864 98.168 51.6024 99.192 51.6024 100.504V107.32H53.0184V109H51.9384ZM46.4184 107.656C46.8984 107.656 47.3384 107.6 47.7384 107.488C48.1384 107.376 48.4824 107.216 48.7704 107.008C49.0584 106.8 49.2824 106.56 49.4424 106.288C49.6024 106.016 49.6824 105.72 49.6824 105.4V103.36H47.1384C46.0344 103.36 45.2264 103.52 44.7144 103.84C44.2184 104.16 43.9704 104.624 43.9704 105.232V105.736C43.9704 106.344 44.1864 106.816 44.6184 107.152C45.0664 107.488 45.6664 107.656 46.4184 107.656ZM55.7588 109V96.616H57.6788V98.632H57.7748C58.0788 97.928 58.5028 97.368 59.0468 96.952C59.6068 96.536 60.3508 96.328 61.2788 96.328C62.5588 96.328 63.5668 96.744 64.3028 97.576C65.0548 98.392 65.4308 99.552 65.4308 101.056V109H63.5108V101.392C63.5108 99.168 62.5748 98.056 60.7028 98.056C60.3188 98.056 59.9428 98.104 59.5748 98.2C59.2228 98.296 58.9028 98.44 58.6148 98.632C58.3268 98.824 58.0948 99.072 57.9188 99.376C57.7588 99.664 57.6788 100.008 57.6788 100.408V109H55.7588ZM72.1354 109C71.4634 109 70.9514 108.816 70.5994 108.448C70.2634 108.064 70.0954 107.568 70.0954 106.96V98.296H68.0554V96.616H69.2074C69.6234 96.616 69.9034 96.536 70.0474 96.376C70.2074 96.2 70.2874 95.904 70.2874 95.488V93.184H72.0154V96.616H74.7274V98.296H72.0154V107.32H74.5354V109H72.1354ZM86.8134 109C86.0934 109 85.5734 108.808 85.2534 108.424C84.9494 108.04 84.7574 107.56 84.6774 106.984H84.5574C84.2854 107.752 83.8374 108.328 83.2134 108.712C82.5894 109.096 81.8454 109.288 80.9814 109.288C79.6694 109.288 78.6454 108.952 77.9094 108.28C77.1894 107.608 76.8294 106.696 76.8294 105.544C76.8294 104.376 77.2534 103.48 78.1014 102.856C78.9654 102.232 80.3014 101.92 82.1094 101.92H84.5574V100.696C84.5574 99.816 84.3174 99.144 83.8374 98.68C83.3574 98.216 82.6214 97.984 81.6294 97.984C80.8774 97.984 80.2454 98.152 79.7334 98.488C79.2374 98.824 78.8214 99.272 78.4854 99.832L77.3334 98.752C77.6694 98.08 78.2054 97.512 78.9414 97.048C79.6774 96.568 80.6054 96.328 81.7254 96.328C83.2294 96.328 84.3974 96.696 85.2294 97.432C86.0614 98.168 86.4774 99.192 86.4774 100.504V107.32H87.8934V109H86.8134ZM81.2934 107.656C81.7734 107.656 82.2134 107.6 82.6134 107.488C83.0134 107.376 83.3574 107.216 83.6454 107.008C83.9334 106.8 84.1574 106.56 84.3174 106.288C84.4774 106.016 84.5574 105.72 84.5574 105.4V103.36H82.0134C80.9094 103.36 80.1014 103.52 79.5894 103.84C79.0934 104.16 78.8454 104.624 78.8454 105.232V105.736C78.8454 106.344 79.0614 106.816 79.4934 107.152C79.9414 107.488 80.5414 107.656 81.2934 107.656ZM101.074 110.368C101.074 111.648 100.57 112.584 99.5618 113.176C98.5698 113.784 97.0738 114.088 95.0738 114.088C93.1378 114.088 91.7458 113.824 90.8978 113.296C90.0498 112.768 89.6258 112.016 89.6258 111.04C89.6258 110.368 89.8018 109.84 90.1538 109.456C90.5058 109.088 90.9858 108.816 91.5938 108.64V108.376C90.8578 108.024 90.4898 107.448 90.4898 106.648C90.4898 106.024 90.6898 105.552 91.0898 105.232C91.4898 104.896 92.0018 104.648 92.6258 104.488V104.392C91.8898 104.04 91.3138 103.536 90.8978 102.88C90.4978 102.224 90.2978 101.464 90.2978 100.6C90.2978 99.976 90.4098 99.4 90.6338 98.872C90.8578 98.344 91.1698 97.896 91.5698 97.528C91.9858 97.144 92.4738 96.848 93.0338 96.64C93.6098 96.432 94.2498 96.328 94.9538 96.328C95.8338 96.328 96.6178 96.488 97.3058 96.808V96.592C97.3058 96.112 97.4178 95.72 97.6418 95.416C97.8658 95.096 98.2338 94.936 98.7458 94.936H100.594V96.616H98.2418V97.408C98.6898 97.792 99.0338 98.256 99.2738 98.8C99.5298 99.328 99.6578 99.928 99.6578 100.6C99.6578 101.224 99.5458 101.8 99.3218 102.328C99.0978 102.856 98.7778 103.312 98.3618 103.696C97.9618 104.064 97.4738 104.352 96.8978 104.56C96.3218 104.768 95.6818 104.872 94.9778 104.872C94.5778 104.872 94.1778 104.832 93.7778 104.752C93.3618 104.864 92.9858 105.032 92.6498 105.256C92.3138 105.464 92.1458 105.76 92.1458 106.144C92.1458 106.512 92.3218 106.76 92.6738 106.888C93.0258 107.016 93.4818 107.08 94.0418 107.08H96.6818C98.2178 107.08 99.3298 107.376 100.018 107.968C100.722 108.544 101.074 109.344 101.074 110.368ZM99.2738 110.512C99.2738 110.016 99.0818 109.616 98.6978 109.312C98.3298 109.024 97.6658 108.88 96.7058 108.88H92.5778C91.8098 109.232 91.4258 109.792 91.4258 110.56C91.4258 111.104 91.6258 111.568 92.0258 111.952C92.4418 112.336 93.1378 112.528 94.1138 112.528H95.8898C96.9618 112.528 97.7938 112.36 98.3858 112.024C98.9778 111.688 99.2738 111.184 99.2738 110.512ZM94.9778 103.336C95.7938 103.336 96.4418 103.144 96.9218 102.76C97.4018 102.36 97.6418 101.752 97.6418 100.936V100.264C97.6418 99.448 97.4018 98.848 96.9218 98.464C96.4418 98.064 95.7938 97.864 94.9778 97.864C94.1618 97.864 93.5138 98.064 93.0338 98.464C92.5538 98.848 92.3138 99.448 92.3138 100.264V100.936C92.3138 101.752 92.5538 102.36 93.0338 102.76C93.5138 103.144 94.1618 103.336 94.9778 103.336ZM107.829 109.288C106.981 109.288 106.213 109.136 105.525 108.832C104.853 108.528 104.269 108.096 103.773 107.536C103.293 106.96 102.917 106.28 102.645 105.496C102.389 104.696 102.261 103.8 102.261 102.808C102.261 101.832 102.389 100.944 102.645 100.144C102.917 99.344 103.293 98.664 103.773 98.104C104.269 97.528 104.853 97.088 105.525 96.784C106.213 96.48 106.981 96.328 107.829 96.328C108.661 96.328 109.405 96.48 110.061 96.784C110.717 97.088 111.277 97.512 111.741 98.056C112.205 98.584 112.557 99.216 112.797 99.952C113.053 100.688 113.181 101.496 113.181 102.376V103.288H104.277V103.864C104.277 104.392 104.357 104.888 104.517 105.352C104.693 105.8 104.933 106.192 105.237 106.528C105.557 106.864 105.941 107.128 106.389 107.32C106.853 107.512 107.373 107.608 107.949 107.608C108.733 107.608 109.413 107.424 109.989 107.056C110.581 106.688 111.037 106.16 111.357 105.472L112.725 106.456C112.325 107.304 111.701 107.992 110.853 108.52C110.005 109.032 108.997 109.288 107.829 109.288ZM107.829 97.936C107.301 97.936 106.821 98.032 106.389 98.224C105.957 98.4 105.581 98.656 105.261 98.992C104.957 99.328 104.717 99.728 104.541 100.192C104.365 100.64 104.277 101.136 104.277 101.68V101.848H111.117V101.584C111.117 100.48 110.813 99.6 110.205 98.944C109.613 98.272 108.821 97.936 107.829 97.936ZM120.065 109.288C118.913 109.288 117.945 109.072 117.161 108.64C116.393 108.192 115.729 107.6 115.169 106.864L116.537 105.76C117.017 106.368 117.553 106.84 118.145 107.176C118.737 107.496 119.425 107.656 120.209 107.656C121.025 107.656 121.657 107.48 122.105 107.128C122.569 106.776 122.801 106.28 122.801 105.64C122.801 105.16 122.641 104.752 122.321 104.416C122.017 104.064 121.457 103.824 120.641 103.696L119.657 103.552C119.081 103.472 118.553 103.352 118.073 103.192C117.593 103.016 117.169 102.792 116.801 102.52C116.449 102.232 116.169 101.88 115.961 101.464C115.769 101.048 115.673 100.552 115.673 99.976C115.673 99.368 115.785 98.84 116.009 98.392C116.233 97.928 116.537 97.544 116.921 97.24C117.321 96.936 117.793 96.712 118.337 96.568C118.881 96.408 119.465 96.328 120.089 96.328C121.097 96.328 121.937 96.504 122.609 96.856C123.297 97.208 123.897 97.696 124.409 98.32L123.137 99.472C122.865 99.088 122.465 98.744 121.937 98.44C121.409 98.12 120.745 97.96 119.945 97.96C119.145 97.96 118.537 98.136 118.121 98.488C117.721 98.824 117.521 99.288 117.521 99.88C117.521 100.488 117.721 100.928 118.121 101.2C118.537 101.472 119.129 101.672 119.897 101.8L120.857 101.944C122.233 102.152 123.209 102.552 123.785 103.144C124.361 103.72 124.649 104.48 124.649 105.424C124.649 106.624 124.241 107.568 123.425 108.256C122.609 108.944 121.489 109.288 120.065 109.288ZM142.712 109C141.992 109 141.472 108.808 141.152 108.424C140.848 108.04 140.656 107.56 140.576 106.984H140.456C140.184 107.752 139.736 108.328 139.112 108.712C138.488 109.096 137.744 109.288 136.88 109.288C135.568 109.288 134.544 108.952 133.808 108.28C133.088 107.608 132.728 106.696 132.728 105.544C132.728 104.376 133.152 103.48 134 102.856C134.864 102.232 136.2 101.92 138.008 101.92H140.456V100.696C140.456 99.816 140.216 99.144 139.736 98.68C139.256 98.216 138.52 97.984 137.528 97.984C136.776 97.984 136.144 98.152 135.632 98.488C135.136 98.824 134.72 99.272 134.384 99.832L133.232 98.752C133.568 98.08 134.104 97.512 134.84 97.048C135.576 96.568 136.504 96.328 137.624 96.328C139.128 96.328 140.296 96.696 141.128 97.432C141.96 98.168 142.376 99.192 142.376 100.504V107.32H143.792V109H142.712ZM137.192 107.656C137.672 107.656 138.112 107.6 138.512 107.488C138.912 107.376 139.256 107.216 139.544 107.008C139.832 106.8 140.056 106.56 140.216 106.288C140.376 106.016 140.456 105.72 140.456 105.4V103.36H137.912C136.808 103.36 136 103.52 135.488 103.84C134.992 104.16 134.744 104.624 134.744 105.232V105.736C134.744 106.344 134.96 106.816 135.392 107.152C135.84 107.488 136.44 107.656 137.192 107.656ZM146.532 109V96.616H148.452V98.632H148.548C148.852 97.928 149.276 97.368 149.82 96.952C150.38 96.536 151.124 96.328 152.052 96.328C153.332 96.328 154.34 96.744 155.076 97.576C155.828 98.392 156.204 99.552 156.204 101.056V109H154.284V101.392C154.284 99.168 153.348 98.056 151.476 98.056C151.092 98.056 150.716 98.104 150.348 98.2C149.996 98.296 149.676 98.44 149.388 98.632C149.1 98.824 148.868 99.072 148.692 99.376C148.532 99.664 148.452 100.008 148.452 100.408V109H146.532ZM168.093 106.984H167.997C167.245 108.52 166.037 109.288 164.373 109.288C163.605 109.288 162.909 109.136 162.285 108.832C161.661 108.528 161.125 108.096 160.677 107.536C160.245 106.976 159.909 106.296 159.669 105.496C159.445 104.696 159.333 103.8 159.333 102.808C159.333 101.816 159.445 100.92 159.669 100.12C159.909 99.32 160.245 98.64 160.677 98.08C161.125 97.52 161.661 97.088 162.285 96.784C162.909 96.48 163.605 96.328 164.373 96.328C165.237 96.328 165.973 96.52 166.581 96.904C167.205 97.272 167.677 97.848 167.997 98.632H168.093V91.24H170.013V109H168.093V106.984ZM164.901 107.56C165.333 107.56 165.741 107.504 166.125 107.392C166.525 107.28 166.869 107.12 167.157 106.912C167.445 106.688 167.669 106.424 167.829 106.12C168.005 105.8 168.093 105.44 168.093 105.04V100.432C168.093 100.096 168.005 99.784 167.829 99.496C167.669 99.192 167.445 98.936 167.157 98.728C166.869 98.52 166.525 98.36 166.125 98.248C165.741 98.12 165.333 98.056 164.901 98.056C163.813 98.056 162.957 98.4 162.333 99.088C161.709 99.76 161.397 100.648 161.397 101.752V103.864C161.397 104.968 161.709 105.864 162.333 106.552C162.957 107.224 163.813 107.56 164.901 107.56ZM9.96 138.984H9.864C9.112 140.52 7.904 141.288 6.24 141.288C5.472 141.288 4.776 141.136 4.152 140.832C3.528 140.528 2.992 140.096 2.544 139.536C2.112 138.976 1.776 138.296 1.536 137.496C1.312 136.696 1.2 135.8 1.2 134.808C1.2 133.816 1.312 132.92 1.536 132.12C1.776 131.32 2.112 130.64 2.544 130.08C2.992 129.52 3.528 129.088 4.152 128.784C4.776 128.48 5.472 128.328 6.24 128.328C7.104 128.328 7.84 128.52 8.448 128.904C9.072 129.272 9.544 129.848 9.864 130.632H9.96V123.24H11.88V141H9.96V138.984ZM6.768 139.56C7.2 139.56 7.608 139.504 7.992 139.392C8.392 139.28 8.736 139.12 9.024 138.912C9.312 138.688 9.536 138.424 9.696 138.12C9.872 137.8 9.96 137.44 9.96 137.04V132.432C9.96 132.096 9.872 131.784 9.696 131.496C9.536 131.192 9.312 130.936 9.024 130.728C8.736 130.52 8.392 130.36 7.992 130.248C7.608 130.12 7.2 130.056 6.768 130.056C5.68 130.056 4.824 130.4 4.2 131.088C3.576 131.76 3.264 132.648 3.264 133.752V135.864C3.264 136.968 3.576 137.864 4.2 138.552C4.824 139.224 5.68 139.56 6.768 139.56ZM16.9219 125.712C16.5059 125.712 16.2019 125.616 16.0099 125.424C15.8339 125.216 15.7459 124.952 15.7459 124.632V124.32C15.7459 124 15.8339 123.744 16.0099 123.552C16.2019 123.344 16.5059 123.24 16.9219 123.24C17.3379 123.24 17.6339 123.344 17.8099 123.552C18.0019 123.744 18.0979 124 18.0979 124.32V124.632C18.0979 124.952 18.0019 125.216 17.8099 125.424C17.6339 125.616 17.3379 125.712 16.9219 125.712ZM15.9619 128.616H17.8819V141H15.9619V128.616ZM25.6819 141.288C24.5299 141.288 23.5619 141.072 22.7779 140.64C22.0099 140.192 21.3459 139.6 20.7859 138.864L22.1539 137.76C22.6339 138.368 23.1699 138.84 23.7619 139.176C24.3539 139.496 25.0419 139.656 25.8259 139.656C26.6419 139.656 27.2739 139.48 27.7219 139.128C28.1859 138.776 28.4179 138.28 28.4179 137.64C28.4179 137.16 28.2579 136.752 27.9379 136.416C27.6339 136.064 27.0739 135.824 26.2579 135.696L25.2739 135.552C24.6979 135.472 24.1699 135.352 23.6899 135.192C23.2099 135.016 22.7859 134.792 22.4179 134.52C22.0659 134.232 21.7859 133.88 21.5779 133.464C21.3859 133.048 21.2899 132.552 21.2899 131.976C21.2899 131.368 21.4019 130.84 21.6259 130.392C21.8499 129.928 22.1539 129.544 22.5379 129.24C22.9379 128.936 23.4099 128.712 23.9539 128.568C24.4979 128.408 25.0819 128.328 25.7059 128.328C26.7139 128.328 27.5539 128.504 28.2259 128.856C28.9139 129.208 29.5139 129.696 30.0259 130.32L28.7539 131.472C28.4819 131.088 28.0819 130.744 27.5539 130.44C27.0259 130.12 26.3619 129.96 25.5619 129.96C24.7619 129.96 24.1539 130.136 23.7379 130.488C23.3379 130.824 23.1379 131.288 23.1379 131.88C23.1379 132.488 23.3379 132.928 23.7379 133.2C24.1539 133.472 24.7459 133.672 25.5139 133.8L26.4739 133.944C27.8499 134.152 28.8259 134.552 29.4019 135.144C29.9779 135.72 30.2659 136.48 30.2659 137.424C30.2659 138.624 29.8579 139.568 29.0419 140.256C28.2259 140.944 27.1059 141.288 25.6819 141.288ZM42.6572 141C41.9372 141 41.4172 140.808 41.0972 140.424C40.7932 140.04 40.6012 139.56 40.5212 138.984H40.4012C40.1292 139.752 39.6812 140.328 39.0572 140.712C38.4332 141.096 37.6892 141.288 36.8252 141.288C35.5132 141.288 34.4892 140.952 33.7532 140.28C33.0332 139.608 32.6732 138.696 32.6732 137.544C32.6732 136.376 33.0972 135.48 33.9452 134.856C34.8092 134.232 36.1452 133.92 37.9532 133.92H40.4012V132.696C40.4012 131.816 40.1612 131.144 39.6812 130.68C39.2012 130.216 38.4652 129.984 37.4732 129.984C36.7212 129.984 36.0892 130.152 35.5772 130.488C35.0812 130.824 34.6652 131.272 34.3292 131.832L33.1772 130.752C33.5132 130.08 34.0492 129.512 34.7852 129.048C35.5212 128.568 36.4492 128.328 37.5692 128.328C39.0732 128.328 40.2412 128.696 41.0732 129.432C41.9052 130.168 42.3212 131.192 42.3212 132.504V139.32H43.7372V141H42.6572ZM37.1372 139.656C37.6172 139.656 38.0572 139.6 38.4572 139.488C38.8572 139.376 39.2012 139.216 39.4892 139.008C39.7772 138.8 40.0012 138.56 40.1612 138.288C40.3212 138.016 40.4012 137.72 40.4012 137.4V135.36H37.8572C36.7532 135.36 35.9452 135.52 35.4332 135.84C34.9372 136.16 34.6892 136.624 34.6892 137.232V137.736C34.6892 138.344 34.9052 138.816 35.3372 139.152C35.7852 139.488 36.3852 139.656 37.1372 139.656ZM54.3975 138.984H54.3015C53.5495 140.52 52.3415 141.288 50.6775 141.288C49.9095 141.288 49.2135 141.136 48.5895 140.832C47.9655 140.528 47.4295 140.096 46.9815 139.536C46.5495 138.976 46.2135 138.296 45.9735 137.496C45.7495 136.696 45.6375 135.8 45.6375 134.808C45.6375 133.816 45.7495 132.92 45.9735 132.12C46.2135 131.32 46.5495 130.64 46.9815 130.08C47.4295 129.52 47.9655 129.088 48.5895 128.784C49.2135 128.48 49.9095 128.328 50.6775 128.328C51.5415 128.328 52.2775 128.52 52.8855 128.904C53.5095 129.272 53.9815 129.848 54.3015 130.632H54.3975V123.24H56.3175V141H54.3975V138.984ZM51.2055 139.56C51.6375 139.56 52.0455 139.504 52.4295 139.392C52.8295 139.28 53.1735 139.12 53.4615 138.912C53.7495 138.688 53.9735 138.424 54.1335 138.12C54.3095 137.8 54.3975 137.44 54.3975 137.04V132.432C54.3975 132.096 54.3095 131.784 54.1335 131.496C53.9735 131.192 53.7495 130.936 53.4615 130.728C53.1735 130.52 52.8295 130.36 52.4295 130.248C52.0455 130.12 51.6375 130.056 51.2055 130.056C50.1175 130.056 49.2615 130.4 48.6375 131.088C48.0135 131.76 47.7015 132.648 47.7015 133.752V135.864C47.7015 136.968 48.0135 137.864 48.6375 138.552C49.2615 139.224 50.1175 139.56 51.2055 139.56ZM63.1354 141L58.7914 128.616H60.7114L62.8714 134.76L64.2154 138.984H64.3354L65.6794 134.76L67.8874 128.616H69.7354L65.3674 141H63.1354ZM81.0009 141C80.2809 141 79.7609 140.808 79.4409 140.424C79.1369 140.04 78.9449 139.56 78.8649 138.984H78.7449C78.4729 139.752 78.0249 140.328 77.4009 140.712C76.7769 141.096 76.0329 141.288 75.1689 141.288C73.8569 141.288 72.8329 140.952 72.0969 140.28C71.3769 139.608 71.0169 138.696 71.0169 137.544C71.0169 136.376 71.4409 135.48 72.2889 134.856C73.1529 134.232 74.4889 133.92 76.2969 133.92H78.7449V132.696C78.7449 131.816 78.5049 131.144 78.0249 130.68C77.5449 130.216 76.8089 129.984 75.8169 129.984C75.0649 129.984 74.4329 130.152 73.9209 130.488C73.4249 130.824 73.0089 131.272 72.6729 131.832L71.5209 130.752C71.8569 130.08 72.3929 129.512 73.1289 129.048C73.8649 128.568 74.7929 128.328 75.9129 128.328C77.4169 128.328 78.5849 128.696 79.4169 129.432C80.2489 130.168 80.6649 131.192 80.6649 132.504V139.32H82.0809V141H81.0009ZM75.4809 139.656C75.9609 139.656 76.4009 139.6 76.8009 139.488C77.2009 139.376 77.5449 139.216 77.8329 139.008C78.1209 138.8 78.3449 138.56 78.5049 138.288C78.6649 138.016 78.7449 137.72 78.7449 137.4V135.36H76.2009C75.0969 135.36 74.2889 135.52 73.7769 135.84C73.2809 136.16 73.0329 136.624 73.0329 137.232V137.736C73.0329 138.344 73.2489 138.816 73.6809 139.152C74.1289 139.488 74.7289 139.656 75.4809 139.656ZM84.8213 141V128.616H86.7413V130.632H86.8373C87.1413 129.928 87.5653 129.368 88.1093 128.952C88.6693 128.536 89.4133 128.328 90.3413 128.328C91.6213 128.328 92.6293 128.744 93.3653 129.576C94.1173 130.392 94.4933 131.552 94.4933 133.056V141H92.5733V133.392C92.5733 131.168 91.6373 130.056 89.7653 130.056C89.3813 130.056 89.0053 130.104 88.6373 130.2C88.2853 130.296 87.9653 130.44 87.6773 130.632C87.3893 130.824 87.1573 131.072 86.9813 131.376C86.8213 131.664 86.7413 132.008 86.7413 132.408V141H84.8213ZM101.198 141C100.526 141 100.014 140.816 99.6619 140.448C99.3259 140.064 99.1579 139.568 99.1579 138.96V130.296H97.1179V128.616H98.2699C98.6859 128.616 98.9659 128.536 99.1099 128.376C99.2699 128.2 99.3499 127.904 99.3499 127.488V125.184H101.078V128.616H103.79V130.296H101.078V139.32H103.598V141H101.198ZM115.876 141C115.156 141 114.636 140.808 114.316 140.424C114.012 140.04 113.82 139.56 113.74 138.984H113.62C113.348 139.752 112.9 140.328 112.276 140.712C111.652 141.096 110.908 141.288 110.044 141.288C108.732 141.288 107.708 140.952 106.972 140.28C106.252 139.608 105.892 138.696 105.892 137.544C105.892 136.376 106.316 135.48 107.164 134.856C108.028 134.232 109.364 133.92 111.172 133.92H113.62V132.696C113.62 131.816 113.38 131.144 112.9 130.68C112.42 130.216 111.684 129.984 110.692 129.984C109.94 129.984 109.308 130.152 108.796 130.488C108.3 130.824 107.884 131.272 107.548 131.832L106.396 130.752C106.732 130.08 107.268 129.512 108.004 129.048C108.74 128.568 109.668 128.328 110.788 128.328C112.292 128.328 113.46 128.696 114.292 129.432C115.124 130.168 115.54 131.192 115.54 132.504V139.32H116.956V141H115.876ZM110.356 139.656C110.836 139.656 111.276 139.6 111.676 139.488C112.076 139.376 112.42 139.216 112.708 139.008C112.996 138.8 113.22 138.56 113.38 138.288C113.54 138.016 113.62 137.72 113.62 137.4V135.36H111.076C109.972 135.36 109.164 135.52 108.652 135.84C108.156 136.16 107.908 136.624 107.908 137.232V137.736C107.908 138.344 108.124 138.816 108.556 139.152C109.004 139.488 109.604 139.656 110.356 139.656ZM130.136 142.368C130.136 143.648 129.632 144.584 128.624 145.176C127.632 145.784 126.136 146.088 124.136 146.088C122.2 146.088 120.808 145.824 119.96 145.296C119.112 144.768 118.688 144.016 118.688 143.04C118.688 142.368 118.864 141.84 119.216 141.456C119.568 141.088 120.048 140.816 120.656 140.64V140.376C119.92 140.024 119.552 139.448 119.552 138.648C119.552 138.024 119.752 137.552 120.152 137.232C120.552 136.896 121.064 136.648 121.688 136.488V136.392C120.952 136.04 120.376 135.536 119.96 134.88C119.56 134.224 119.36 133.464 119.36 132.6C119.36 131.976 119.472 131.4 119.696 130.872C119.92 130.344 120.232 129.896 120.632 129.528C121.048 129.144 121.536 128.848 122.096 128.64C122.672 128.432 123.312 128.328 124.016 128.328C124.896 128.328 125.68 128.488 126.368 128.808V128.592C126.368 128.112 126.48 127.72 126.704 127.416C126.928 127.096 127.296 126.936 127.808 126.936H129.656V128.616H127.304V129.408C127.752 129.792 128.096 130.256 128.336 130.8C128.592 131.328 128.72 131.928 128.72 132.6C128.72 133.224 128.608 133.8 128.384 134.328C128.16 134.856 127.84 135.312 127.424 135.696C127.024 136.064 126.536 136.352 125.96 136.56C125.384 136.768 124.744 136.872 124.04 136.872C123.64 136.872 123.24 136.832 122.84 136.752C122.424 136.864 122.048 137.032 121.712 137.256C121.376 137.464 121.208 137.76 121.208 138.144C121.208 138.512 121.384 138.76 121.736 138.888C122.088 139.016 122.544 139.08 123.104 139.08H125.744C127.28 139.08 128.392 139.376 129.08 139.968C129.784 140.544 130.136 141.344 130.136 142.368ZM128.336 142.512C128.336 142.016 128.144 141.616 127.76 141.312C127.392 141.024 126.728 140.88 125.768 140.88H121.64C120.872 141.232 120.488 141.792 120.488 142.56C120.488 143.104 120.688 143.568 121.088 143.952C121.504 144.336 122.2 144.528 123.176 144.528H124.952C126.024 144.528 126.856 144.36 127.448 144.024C128.04 143.688 128.336 143.184 128.336 142.512ZM124.04 135.336C124.856 135.336 125.504 135.144 125.984 134.76C126.464 134.36 126.704 133.752 126.704 132.936V132.264C126.704 131.448 126.464 130.848 125.984 130.464C125.504 130.064 124.856 129.864 124.04 129.864C123.224 129.864 122.576 130.064 122.096 130.464C121.616 130.848 121.376 131.448 121.376 132.264V132.936C121.376 133.752 121.616 134.36 122.096 134.76C122.576 135.144 123.224 135.336 124.04 135.336ZM136.891 141.288C136.043 141.288 135.275 141.136 134.587 140.832C133.915 140.528 133.331 140.096 132.835 139.536C132.355 138.96 131.979 138.28 131.707 137.496C131.451 136.696 131.323 135.8 131.323 134.808C131.323 133.832 131.451 132.944 131.707 132.144C131.979 131.344 132.355 130.664 132.835 130.104C133.331 129.528 133.915 129.088 134.587 128.784C135.275 128.48 136.043 128.328 136.891 128.328C137.723 128.328 138.467 128.48 139.123 128.784C139.779 129.088 140.339 129.512 140.803 130.056C141.267 130.584 141.619 131.216 141.859 131.952C142.115 132.688 142.243 133.496 142.243 134.376V135.288H133.339V135.864C133.339 136.392 133.419 136.888 133.579 137.352C133.755 137.8 133.995 138.192 134.299 138.528C134.619 138.864 135.003 139.128 135.451 139.32C135.915 139.512 136.435 139.608 137.011 139.608C137.795 139.608 138.475 139.424 139.051 139.056C139.643 138.688 140.099 138.16 140.419 137.472L141.787 138.456C141.387 139.304 140.763 139.992 139.915 140.52C139.067 141.032 138.059 141.288 136.891 141.288ZM136.891 129.936C136.363 129.936 135.883 130.032 135.451 130.224C135.019 130.4 134.643 130.656 134.323 130.992C134.019 131.328 133.779 131.728 133.603 132.192C133.427 132.64 133.339 133.136 133.339 133.68V133.848H140.179V133.584C140.179 132.48 139.875 131.6 139.267 130.944C138.675 130.272 137.883 129.936 136.891 129.936ZM149.127 141.288C147.975 141.288 147.007 141.072 146.223 140.64C145.455 140.192 144.791 139.6 144.231 138.864L145.599 137.76C146.079 138.368 146.615 138.84 147.207 139.176C147.799 139.496 148.487 139.656 149.271 139.656C150.087 139.656 150.719 139.48 151.167 139.128C151.631 138.776 151.863 138.28 151.863 137.64C151.863 137.16 151.703 136.752 151.383 136.416C151.079 136.064 150.519 135.824 149.703 135.696L148.719 135.552C148.143 135.472 147.615 135.352 147.135 135.192C146.655 135.016 146.231 134.792 145.863 134.52C145.511 134.232 145.231 133.88 145.023 133.464C144.831 133.048 144.735 132.552 144.735 131.976C144.735 131.368 144.847 130.84 145.071 130.392C145.295 129.928 145.599 129.544 145.983 129.24C146.383 128.936 146.855 128.712 147.399 128.568C147.943 128.408 148.527 128.328 149.151 128.328C150.159 128.328 150.999 128.504 151.671 128.856C152.359 129.208 152.959 129.696 153.471 130.32L152.199 131.472C151.927 131.088 151.527 130.744 150.999 130.44C150.471 130.12 149.807 129.96 149.007 129.96C148.207 129.96 147.599 130.136 147.183 130.488C146.783 130.824 146.583 131.288 146.583 131.88C146.583 132.488 146.783 132.928 147.183 133.2C147.599 133.472 148.191 133.672 148.959 133.8L149.919 133.944C151.295 134.152 152.271 134.552 152.847 135.144C153.423 135.72 153.711 136.48 153.711 137.424C153.711 138.624 153.303 139.568 152.487 140.256C151.671 140.944 150.551 141.288 149.127 141.288Z" fill="#1E1E1E"/>
<path d="M304 169H0V171H304V169Z" fill="#EEE5FF" mask="url(#path-1-inside-1_1_979)"/>
</svg>
