<svg width="304" height="170" viewBox="0 0 304 170" fill="none" xmlns="http://www.w3.org/2000/svg">
<g clip-path="url(#clip0_1_974)">
<rect width="83" height="36" rx="4" fill="#EEE5FF"/>
<path d="M11.654 17.372C12.3167 17.372 12.8113 17.2227 13.138 16.924C13.474 16.616 13.642 16.224 13.642 15.748V15.65C13.642 15.1367 13.4787 14.754 13.152 14.502C12.8347 14.2407 12.4147 14.11 11.892 14.11C11.388 14.11 10.9773 14.222 10.66 14.446C10.3427 14.6607 10.0813 14.9547 9.876 15.328L9.008 14.656C9.12933 14.46 9.274 14.2687 9.442 14.082C9.61933 13.886 9.82467 13.7133 10.058 13.564C10.2913 13.4147 10.562 13.2933 10.87 13.2C11.178 13.1067 11.528 13.06 11.92 13.06C12.3307 13.06 12.718 13.116 13.082 13.228C13.446 13.3307 13.7587 13.4893 14.02 13.704C14.2907 13.9093 14.5007 14.166 14.65 14.474C14.8087 14.782 14.888 15.132 14.888 15.524C14.888 15.8413 14.8367 16.126 14.734 16.378C14.6407 16.63 14.51 16.8493 14.342 17.036C14.174 17.2227 13.9733 17.3813 13.74 17.512C13.516 17.6427 13.2733 17.7407 13.012 17.806V17.862C13.2733 17.918 13.5253 18.0113 13.768 18.142C14.02 18.2633 14.2393 18.4267 14.426 18.632C14.622 18.828 14.776 19.0707 14.888 19.36C15.0093 19.64 15.07 19.962 15.07 20.326C15.07 20.746 14.9907 21.1333 14.832 21.488C14.6733 21.8333 14.4493 22.132 14.16 22.384C13.8707 22.6267 13.5207 22.818 13.11 22.958C12.6993 23.098 12.2467 23.168 11.752 23.168C11.332 23.168 10.9587 23.1213 10.632 23.028C10.3053 22.9347 10.016 22.8087 9.764 22.65C9.512 22.4913 9.288 22.314 9.092 22.118C8.90533 21.922 8.73733 21.7167 8.588 21.502L9.47 20.83C9.59133 21.026 9.722 21.2033 9.862 21.362C10.0113 21.5207 10.1747 21.656 10.352 21.768C10.5293 21.88 10.73 21.9687 10.954 22.034C11.178 22.09 11.4393 22.118 11.738 22.118C12.4287 22.118 12.9513 21.964 13.306 21.656C13.6607 21.3387 13.838 20.8907 13.838 20.312V20.2C13.838 19.6213 13.6607 19.178 13.306 18.87C12.9513 18.5527 12.4287 18.394 11.738 18.394H10.59V17.372H11.654ZM25.5131 21.824H25.4571C25.0185 22.72 24.3138 23.168 23.3431 23.168C22.8951 23.168 22.4891 23.0793 22.1251 22.902C21.7611 22.7247 21.4485 22.4727 21.1871 22.146C20.9351 21.8193 20.7391 21.4227 20.5991 20.956C20.4685 20.4893 20.4031 19.9667 20.4031 19.388C20.4031 18.8093 20.4685 18.2867 20.5991 17.82C20.7391 17.3533 20.9351 16.9567 21.1871 16.63C21.4485 16.3033 21.7611 16.0513 22.1251 15.874C22.4891 15.6967 22.8951 15.608 23.3431 15.608C23.8471 15.608 24.2765 15.72 24.6311 15.944C24.9951 16.1587 25.2705 16.4947 25.4571 16.952H25.5131V12.64H26.6331V23H25.5131V21.824ZM23.6511 22.16C23.9031 22.16 24.1411 22.1273 24.3651 22.062C24.5985 21.9967 24.7991 21.9033 24.9671 21.782C25.1351 21.6513 25.2658 21.4973 25.3591 21.32C25.4618 21.1333 25.5131 20.9233 25.5131 20.69V18.002C25.5131 17.806 25.4618 17.624 25.3591 17.456C25.2658 17.2787 25.1351 17.1293 24.9671 17.008C24.7991 16.8867 24.5985 16.7933 24.3651 16.728C24.1411 16.6533 23.9031 16.616 23.6511 16.616C23.0165 16.616 22.5171 16.8167 22.1531 17.218C21.7891 17.61 21.6071 18.128 21.6071 18.772V20.004C21.6071 20.648 21.7891 21.1707 22.1531 21.572C22.5171 21.964 23.0165 22.16 23.6511 22.16ZM34.2642 23C33.8442 23 33.5409 22.888 33.3542 22.664C33.1769 22.44 33.0649 22.16 33.0182 21.824H32.9482C32.7896 22.272 32.5282 22.608 32.1642 22.832C31.8002 23.056 31.3662 23.168 30.8622 23.168C30.0969 23.168 29.4996 22.972 29.0702 22.58C28.6502 22.188 28.4402 21.656 28.4402 20.984C28.4402 20.3027 28.6876 19.78 29.1822 19.416C29.6862 19.052 30.4656 18.87 31.5202 18.87H32.9482V18.156C32.9482 17.6427 32.8082 17.2507 32.5282 16.98C32.2482 16.7093 31.8189 16.574 31.2402 16.574C30.8016 16.574 30.4329 16.672 30.1342 16.868C29.8449 17.064 29.6022 17.3253 29.4062 17.652L28.7342 17.022C28.9302 16.63 29.2429 16.2987 29.6722 16.028C30.1016 15.748 30.6429 15.608 31.2962 15.608C32.1736 15.608 32.8549 15.8227 33.3402 16.252C33.8256 16.6813 34.0682 17.2787 34.0682 18.044V22.02H34.8942V23H34.2642ZM31.0442 22.216C31.3242 22.216 31.5809 22.1833 31.8142 22.118C32.0476 22.0527 32.2482 21.9593 32.4162 21.838C32.5842 21.7167 32.7149 21.5767 32.8082 21.418C32.9016 21.2593 32.9482 21.0867 32.9482 20.9V19.71H31.4642C30.8202 19.71 30.3489 19.8033 30.0502 19.99C29.7609 20.1767 29.6162 20.4473 29.6162 20.802V21.096C29.6162 21.4507 29.7422 21.726 29.9942 21.922C30.2556 22.118 30.6056 22.216 31.0442 22.216ZM40.8764 15.776H41.9824L38.7484 24.68C38.6644 24.8947 38.5804 25.072 38.4964 25.212C38.4124 25.3613 38.3097 25.478 38.1884 25.562C38.067 25.646 37.913 25.7067 37.7264 25.744C37.549 25.7813 37.3297 25.8 37.0684 25.8H36.4944V24.82H37.6284L38.1744 23.28L35.4724 15.776H36.5924L38.3284 20.69L38.6644 21.866H38.7344L39.1264 20.69L40.8764 15.776ZM45.526 23.168C44.854 23.168 44.2893 23.042 43.832 22.79C43.384 22.5287 42.9967 22.1833 42.67 21.754L43.468 21.11C43.748 21.4647 44.0607 21.74 44.406 21.936C44.7513 22.1227 45.1527 22.216 45.61 22.216C46.086 22.216 46.4547 22.1133 46.716 21.908C46.9867 21.7027 47.122 21.4133 47.122 21.04C47.122 20.76 47.0287 20.522 46.842 20.326C46.6647 20.1207 46.338 19.9807 45.862 19.906L45.288 19.822C44.952 19.7753 44.644 19.7053 44.364 19.612C44.084 19.5093 43.8367 19.3787 43.622 19.22C43.4167 19.052 43.2533 18.8467 43.132 18.604C43.02 18.3613 42.964 18.072 42.964 17.736C42.964 17.3813 43.0293 17.0733 43.16 16.812C43.2907 16.5413 43.468 16.3173 43.692 16.14C43.9253 15.9627 44.2007 15.832 44.518 15.748C44.8353 15.6547 45.176 15.608 45.54 15.608C46.128 15.608 46.618 15.7107 47.01 15.916C47.4113 16.1213 47.7613 16.406 48.06 16.77L47.318 17.442C47.1593 17.218 46.926 17.0173 46.618 16.84C46.31 16.6533 45.9227 16.56 45.456 16.56C44.9893 16.56 44.6347 16.6627 44.392 16.868C44.1587 17.064 44.042 17.3347 44.042 17.68C44.042 18.0347 44.1587 18.2913 44.392 18.45C44.6347 18.6087 44.98 18.7253 45.428 18.8L45.988 18.884C46.7907 19.0053 47.36 19.2387 47.696 19.584C48.032 19.92 48.2 20.3633 48.2 20.914C48.2 21.614 47.962 22.1647 47.486 22.566C47.01 22.9673 46.3567 23.168 45.526 23.168ZM58.7369 23C58.3169 23 58.0135 22.888 57.8269 22.664C57.6495 22.44 57.5375 22.16 57.4909 21.824H57.4209C57.2622 22.272 57.0009 22.608 56.6369 22.832C56.2729 23.056 55.8389 23.168 55.3349 23.168C54.5695 23.168 53.9722 22.972 53.5429 22.58C53.1229 22.188 52.9129 21.656 52.9129 20.984C52.9129 20.3027 53.1602 19.78 53.6549 19.416C54.1589 19.052 54.9382 18.87 55.9929 18.87H57.4209V18.156C57.4209 17.6427 57.2809 17.2507 57.0009 16.98C56.7209 16.7093 56.2915 16.574 55.7129 16.574C55.2742 16.574 54.9055 16.672 54.6069 16.868C54.3175 17.064 54.0749 17.3253 53.8789 17.652L53.2069 17.022C53.4029 16.63 53.7155 16.2987 54.1449 16.028C54.5742 15.748 55.1155 15.608 55.7689 15.608C56.6462 15.608 57.3275 15.8227 57.8129 16.252C58.2982 16.6813 58.5409 17.2787 58.5409 18.044V22.02H59.3669V23H58.7369ZM55.5169 22.216C55.7969 22.216 56.0535 22.1833 56.2869 22.118C56.5202 22.0527 56.7209 21.9593 56.8889 21.838C57.0569 21.7167 57.1875 21.5767 57.2809 21.418C57.3742 21.2593 57.4209 21.0867 57.4209 20.9V19.71H55.9369C55.2929 19.71 54.8215 19.8033 54.5229 19.99C54.2335 20.1767 54.0889 20.4473 54.0889 20.802V21.096C54.0889 21.4507 54.2149 21.726 54.4669 21.922C54.7282 22.118 55.0782 22.216 55.5169 22.216ZM67.0554 23.798C67.0554 24.5447 66.7614 25.0907 66.1734 25.436C65.5947 25.7907 64.7221 25.968 63.5554 25.968C62.4261 25.968 61.6141 25.814 61.1194 25.506C60.6247 25.198 60.3774 24.7593 60.3774 24.19C60.3774 23.798 60.4801 23.49 60.6854 23.266C60.8907 23.0513 61.1707 22.8927 61.5254 22.79V22.636C61.0961 22.4307 60.8814 22.0947 60.8814 21.628C60.8814 21.264 60.9981 20.9887 61.2314 20.802C61.4647 20.606 61.7634 20.4613 62.1274 20.368V20.312C61.6981 20.1067 61.3621 19.8127 61.1194 19.43C60.8861 19.0473 60.7694 18.604 60.7694 18.1C60.7694 17.736 60.8347 17.4 60.9654 17.092C61.0961 16.784 61.2781 16.5227 61.5114 16.308C61.7541 16.084 62.0387 15.9113 62.3654 15.79C62.7014 15.6687 63.0747 15.608 63.4854 15.608C63.9987 15.608 64.4561 15.7013 64.8574 15.888V15.762C64.8574 15.482 64.9227 15.2533 65.0534 15.076C65.1841 14.8893 65.3987 14.796 65.6974 14.796H66.7754V15.776H65.4034V16.238C65.6647 16.462 65.8654 16.7327 66.0054 17.05C66.1547 17.358 66.2294 17.708 66.2294 18.1C66.2294 18.464 66.1641 18.8 66.0334 19.108C65.9027 19.416 65.7161 19.682 65.4734 19.906C65.2401 20.1207 64.9554 20.2887 64.6194 20.41C64.2834 20.5313 63.9101 20.592 63.4994 20.592C63.2661 20.592 63.0327 20.5687 62.7994 20.522C62.5567 20.5873 62.3374 20.6853 62.1414 20.816C61.9454 20.9373 61.8474 21.11 61.8474 21.334C61.8474 21.5487 61.9501 21.6933 62.1554 21.768C62.3607 21.8427 62.6267 21.88 62.9534 21.88H64.4934C65.3894 21.88 66.0381 22.0527 66.4394 22.398C66.8501 22.734 67.0554 23.2007 67.0554 23.798ZM66.0054 23.882C66.0054 23.5927 65.8934 23.3593 65.6694 23.182C65.4547 23.014 65.0674 22.93 64.5074 22.93H62.0994C61.6514 23.1353 61.4274 23.462 61.4274 23.91C61.4274 24.2273 61.5441 24.498 61.7774 24.722C62.0201 24.946 62.4261 25.058 62.9954 25.058H64.0314C64.6567 25.058 65.1421 24.96 65.4874 24.764C65.8327 24.568 66.0054 24.274 66.0054 23.882ZM63.4994 19.696C63.9754 19.696 64.3534 19.584 64.6334 19.36C64.9134 19.1267 65.0534 18.772 65.0534 18.296V17.904C65.0534 17.428 64.9134 17.078 64.6334 16.854C64.3534 16.6207 63.9754 16.504 63.4994 16.504C63.0234 16.504 62.6454 16.6207 62.3654 16.854C62.0854 17.078 61.9454 17.428 61.9454 17.904V18.296C61.9454 18.772 62.0854 19.1267 62.3654 19.36C62.6454 19.584 63.0234 19.696 63.4994 19.696ZM71.0098 23.168C70.5245 23.168 70.0812 23.0793 69.6798 22.902C69.2785 22.7247 68.9332 22.4727 68.6438 22.146C68.3638 21.81 68.1445 21.4133 67.9858 20.956C67.8272 20.4893 67.7478 19.9667 67.7478 19.388C67.7478 18.8187 67.8272 18.3007 67.9858 17.834C68.1445 17.3673 68.3638 16.9707 68.6438 16.644C68.9332 16.308 69.2785 16.0513 69.6798 15.874C70.0812 15.6967 70.5245 15.608 71.0098 15.608C71.4952 15.608 71.9338 15.6967 72.3258 15.874C72.7272 16.0513 73.0725 16.308 73.3618 16.644C73.6512 16.9707 73.8752 17.3673 74.0338 17.834C74.1925 18.3007 74.2718 18.8187 74.2718 19.388C74.2718 19.9667 74.1925 20.4893 74.0338 20.956C73.8752 21.4133 73.6512 21.81 73.3618 22.146C73.0725 22.4727 72.7272 22.7247 72.3258 22.902C71.9338 23.0793 71.4952 23.168 71.0098 23.168ZM71.0098 22.174C71.6165 22.174 72.1112 21.9873 72.4938 21.614C72.8765 21.2407 73.0678 20.6713 73.0678 19.906V18.87C73.0678 18.1047 72.8765 17.5353 72.4938 17.162C72.1112 16.7887 71.6165 16.602 71.0098 16.602C70.4032 16.602 69.9085 16.7887 69.5258 17.162C69.1432 17.5353 68.9518 18.1047 68.9518 18.87V19.906C68.9518 20.6713 69.1432 21.2407 69.5258 21.614C69.9085 21.9873 70.4032 22.174 71.0098 22.174Z" fill="#937CC8"/>
<path d="M12.72 69.416H4.248V77H2.232V60.248H4.248V67.64H12.72V60.248H14.736V77H12.72V69.416ZM23.6888 77.288C22.8568 77.288 22.0968 77.136 21.4088 76.832C20.7208 76.528 20.1288 76.096 19.6328 75.536C19.1528 74.96 18.7768 74.28 18.5048 73.496C18.2328 72.696 18.0968 71.8 18.0968 70.808C18.0968 69.832 18.2328 68.944 18.5048 68.144C18.7768 67.344 19.1528 66.664 19.6328 66.104C20.1288 65.528 20.7208 65.088 21.4088 64.784C22.0968 64.48 22.8568 64.328 23.6888 64.328C24.5208 64.328 25.2728 64.48 25.9448 64.784C26.6328 65.088 27.2248 65.528 27.7208 66.104C28.2168 66.664 28.6008 67.344 28.8728 68.144C29.1448 68.944 29.2808 69.832 29.2808 70.808C29.2808 71.8 29.1448 72.696 28.8728 73.496C28.6008 74.28 28.2168 74.96 27.7208 75.536C27.2248 76.096 26.6328 76.528 25.9448 76.832C25.2728 77.136 24.5208 77.288 23.6888 77.288ZM23.6888 75.584C24.7288 75.584 25.5768 75.264 26.2328 74.624C26.8888 73.984 27.2168 73.008 27.2168 71.696V69.92C27.2168 68.608 26.8888 67.632 26.2328 66.992C25.5768 66.352 24.7288 66.032 23.6888 66.032C22.6488 66.032 21.8008 66.352 21.1448 66.992C20.4888 67.632 20.1608 68.608 20.1608 69.92V71.696C20.1608 73.008 20.4888 73.984 21.1448 74.624C21.8008 75.264 22.6488 75.584 23.6888 75.584ZM31.0253 64.616H32.8973L34.2173 69.968L35.5373 75.392H35.5853L37.0973 69.968L38.6573 64.616H40.3613L41.9693 69.968L43.5052 75.392H43.5533L44.8253 69.968L46.1693 64.616H47.9693L44.6813 77H42.3053L40.5773 71.048L39.4973 67.28H39.4493L38.3933 71.048L36.6653 77H34.3373L31.0253 64.616ZM59.151 77C58.479 77 57.967 76.816 57.615 76.448C57.279 76.064 57.111 75.568 57.111 74.96V66.296H55.071V64.616H56.223C56.639 64.616 56.919 64.536 57.063 64.376C57.223 64.2 57.303 63.904 57.303 63.488V61.184H59.031V64.616H61.743V66.296H59.031V75.32H61.551V77H59.151ZM69.4153 77.288C68.5833 77.288 67.8233 77.136 67.1353 76.832C66.4473 76.528 65.8553 76.096 65.3593 75.536C64.8793 74.96 64.5033 74.28 64.2313 73.496C63.9593 72.696 63.8233 71.8 63.8233 70.808C63.8233 69.832 63.9593 68.944 64.2313 68.144C64.5033 67.344 64.8793 66.664 65.3593 66.104C65.8553 65.528 66.4473 65.088 67.1353 64.784C67.8233 64.48 68.5833 64.328 69.4153 64.328C70.2473 64.328 70.9993 64.48 71.6713 64.784C72.3593 65.088 72.9513 65.528 73.4473 66.104C73.9433 66.664 74.3273 67.344 74.5993 68.144C74.8713 68.944 75.0073 69.832 75.0073 70.808C75.0073 71.8 74.8713 72.696 74.5993 73.496C74.3273 74.28 73.9433 74.96 73.4473 75.536C72.9513 76.096 72.3593 76.528 71.6713 76.832C70.9993 77.136 70.2473 77.288 69.4153 77.288ZM69.4153 75.584C70.4553 75.584 71.3033 75.264 71.9593 74.624C72.6153 73.984 72.9433 73.008 72.9433 71.696V69.92C72.9433 68.608 72.6153 67.632 71.9593 66.992C71.3033 66.352 70.4553 66.032 69.4153 66.032C68.3753 66.032 67.5273 66.352 66.8713 66.992C66.2153 67.632 65.8873 68.608 65.8873 69.92V71.696C65.8873 73.008 66.2153 73.984 66.8713 74.624C67.5273 75.264 68.3753 75.584 69.4153 75.584ZM87.5569 77.288C86.4049 77.288 85.4369 77.072 84.6529 76.64C83.8849 76.192 83.2209 75.6 82.6609 74.864L84.0289 73.76C84.5089 74.368 85.0449 74.84 85.6369 75.176C86.2289 75.496 86.9169 75.656 87.7009 75.656C88.5169 75.656 89.1489 75.48 89.5969 75.128C90.0609 74.776 90.2929 74.28 90.2929 73.64C90.2929 73.16 90.1329 72.752 89.8129 72.416C89.5089 72.064 88.9489 71.824 88.1329 71.696L87.1489 71.552C86.5729 71.472 86.0449 71.352 85.5649 71.192C85.0849 71.016 84.6609 70.792 84.2929 70.52C83.9409 70.232 83.6609 69.88 83.4529 69.464C83.2609 69.048 83.1649 68.552 83.1649 67.976C83.1649 67.368 83.2769 66.84 83.5009 66.392C83.7249 65.928 84.0289 65.544 84.4129 65.24C84.8129 64.936 85.2849 64.712 85.8289 64.568C86.3729 64.408 86.9569 64.328 87.5809 64.328C88.5889 64.328 89.4289 64.504 90.1009 64.856C90.7889 65.208 91.3889 65.696 91.9009 66.32L90.6289 67.472C90.3569 67.088 89.9569 66.744 89.4289 66.44C88.9009 66.12 88.2369 65.96 87.4369 65.96C86.6369 65.96 86.0289 66.136 85.6129 66.488C85.2129 66.824 85.0129 67.288 85.0129 67.88C85.0129 68.488 85.2129 68.928 85.6129 69.2C86.0289 69.472 86.6209 69.672 87.3889 69.8L88.3489 69.944C89.7249 70.152 90.7009 70.552 91.2769 71.144C91.8529 71.72 92.1409 72.48 92.1409 73.424C92.1409 74.624 91.7329 75.568 90.9169 76.256C90.1009 76.944 88.9809 77.288 87.5569 77.288ZM98.1041 77C97.4321 77 96.9201 76.816 96.5681 76.448C96.2321 76.064 96.0641 75.568 96.0641 74.96V66.296H94.0241V64.616H95.1761C95.5921 64.616 95.8721 64.536 96.0161 64.376C96.1761 64.2 96.2561 63.904 96.2561 63.488V61.184H97.9841V64.616H100.696V66.296H97.9841V75.32H100.504V77H98.1041ZM108.368 77.288C107.536 77.288 106.776 77.136 106.088 76.832C105.4 76.528 104.808 76.096 104.312 75.536C103.832 74.96 103.456 74.28 103.184 73.496C102.912 72.696 102.776 71.8 102.776 70.808C102.776 69.832 102.912 68.944 103.184 68.144C103.456 67.344 103.832 66.664 104.312 66.104C104.808 65.528 105.4 65.088 106.088 64.784C106.776 64.48 107.536 64.328 108.368 64.328C109.2 64.328 109.952 64.48 110.624 64.784C111.312 65.088 111.904 65.528 112.4 66.104C112.896 66.664 113.28 67.344 113.552 68.144C113.824 68.944 113.96 69.832 113.96 70.808C113.96 71.8 113.824 72.696 113.552 73.496C113.28 74.28 112.896 74.96 112.4 75.536C111.904 76.096 111.312 76.528 110.624 76.832C109.952 77.136 109.2 77.288 108.368 77.288ZM108.368 75.584C109.408 75.584 110.256 75.264 110.912 74.624C111.568 73.984 111.896 73.008 111.896 71.696V69.92C111.896 68.608 111.568 67.632 110.912 66.992C110.256 66.352 109.408 66.032 108.368 66.032C107.328 66.032 106.48 66.352 105.824 66.992C105.168 67.632 104.84 68.608 104.84 69.92V71.696C104.84 73.008 105.168 73.984 105.824 74.624C106.48 75.264 107.328 75.584 108.368 75.584ZM117.118 64.616H119.038V66.632H119.134C119.454 65.848 119.918 65.272 120.526 64.904C121.15 64.52 121.894 64.328 122.758 64.328C123.526 64.328 124.222 64.48 124.846 64.784C125.47 65.088 125.998 65.52 126.43 66.08C126.878 66.64 127.214 67.32 127.438 68.12C127.678 68.92 127.798 69.816 127.798 70.808C127.798 71.8 127.678 72.696 127.438 73.496C127.214 74.296 126.878 74.976 126.43 75.536C125.998 76.096 125.47 76.528 124.846 76.832C124.222 77.136 123.526 77.288 122.758 77.288C121.078 77.288 119.87 76.52 119.134 74.984H119.038V81.8H117.118V64.616ZM122.23 75.56C123.318 75.56 124.174 75.224 124.798 74.552C125.422 73.864 125.734 72.968 125.734 71.864V69.752C125.734 68.648 125.422 67.76 124.798 67.088C124.174 66.4 123.318 66.056 122.23 66.056C121.798 66.056 121.382 66.12 120.982 66.248C120.598 66.36 120.262 66.52 119.974 66.728C119.686 66.936 119.454 67.192 119.278 67.496C119.118 67.784 119.038 68.096 119.038 68.432V73.04C119.038 73.44 119.118 73.8 119.278 74.12C119.454 74.424 119.686 74.688 119.974 74.912C120.262 75.12 120.598 75.28 120.982 75.392C121.382 75.504 121.798 75.56 122.23 75.56ZM136.712 64.616H138.632V66.632H138.728C139.048 65.848 139.512 65.272 140.12 64.904C140.744 64.52 141.488 64.328 142.352 64.328C143.12 64.328 143.816 64.48 144.44 64.784C145.064 65.088 145.592 65.52 146.024 66.08C146.472 66.64 146.808 67.32 147.032 68.12C147.272 68.92 147.392 69.816 147.392 70.808C147.392 71.8 147.272 72.696 147.032 73.496C146.808 74.296 146.472 74.976 146.024 75.536C145.592 76.096 145.064 76.528 144.44 76.832C143.816 77.136 143.12 77.288 142.352 77.288C140.672 77.288 139.464 76.52 138.728 74.984H138.632V81.8H136.712V64.616ZM141.824 75.56C142.912 75.56 143.768 75.224 144.392 74.552C145.016 73.864 145.328 72.968 145.328 71.864V69.752C145.328 68.648 145.016 67.76 144.392 67.088C143.768 66.4 142.912 66.056 141.824 66.056C141.392 66.056 140.976 66.12 140.576 66.248C140.192 66.36 139.856 66.52 139.568 66.728C139.28 66.936 139.048 67.192 138.872 67.496C138.712 67.784 138.632 68.096 138.632 68.432V73.04C138.632 73.44 138.712 73.8 138.872 74.12C139.048 74.424 139.28 74.688 139.568 74.912C139.856 75.12 140.192 75.28 140.576 75.392C140.976 75.504 141.392 75.56 141.824 75.56ZM150.634 77V64.616H152.554V66.896H152.674C152.898 66.304 153.298 65.776 153.874 65.312C154.45 64.848 155.242 64.616 156.25 64.616H156.994V66.536H155.866C154.826 66.536 154.01 66.736 153.418 67.136C152.842 67.52 152.554 68.008 152.554 68.6V77H150.634ZM164.009 77.288C163.177 77.288 162.417 77.136 161.729 76.832C161.041 76.528 160.449 76.096 159.953 75.536C159.473 74.96 159.097 74.28 158.825 73.496C158.553 72.696 158.417 71.8 158.417 70.808C158.417 69.832 158.553 68.944 158.825 68.144C159.097 67.344 159.473 66.664 159.953 66.104C160.449 65.528 161.041 65.088 161.729 64.784C162.417 64.48 163.177 64.328 164.009 64.328C164.841 64.328 165.593 64.48 166.265 64.784C166.953 65.088 167.545 65.528 168.041 66.104C168.537 66.664 168.921 67.344 169.193 68.144C169.465 68.944 169.601 69.832 169.601 70.808C169.601 71.8 169.465 72.696 169.193 73.496C168.921 74.28 168.537 74.96 168.041 75.536C167.545 76.096 166.953 76.528 166.265 76.832C165.593 77.136 164.841 77.288 164.009 77.288ZM164.009 75.584C165.049 75.584 165.897 75.264 166.553 74.624C167.209 73.984 167.537 73.008 167.537 71.696V69.92C167.537 68.608 167.209 67.632 166.553 66.992C165.897 66.352 165.049 66.032 164.009 66.032C162.969 66.032 162.121 66.352 161.465 66.992C160.809 67.632 160.481 68.608 160.481 69.92V71.696C160.481 73.008 160.809 73.984 161.465 74.624C162.121 75.264 162.969 75.584 164.009 75.584ZM177.367 77.288C176.503 77.288 175.727 77.136 175.039 76.832C174.351 76.528 173.767 76.096 173.287 75.536C172.823 74.976 172.463 74.296 172.207 73.496C171.967 72.696 171.847 71.8 171.847 70.808C171.847 69.816 171.967 68.92 172.207 68.12C172.463 67.32 172.823 66.64 173.287 66.08C173.767 65.52 174.351 65.088 175.039 64.784C175.727 64.48 176.503 64.328 177.367 64.328C178.599 64.328 179.583 64.6 180.319 65.144C181.071 65.672 181.631 66.368 181.999 67.232L180.391 68.048C180.167 67.408 179.799 66.912 179.287 66.56C178.775 66.208 178.135 66.032 177.367 66.032C176.791 66.032 176.287 66.128 175.855 66.32C175.423 66.496 175.063 66.752 174.775 67.088C174.487 67.408 174.271 67.8 174.127 68.264C173.983 68.712 173.911 69.208 173.911 69.752V71.864C173.911 72.952 174.199 73.848 174.775 74.552C175.367 75.24 176.231 75.584 177.367 75.584C178.919 75.584 180.039 74.864 180.727 73.424L182.119 74.36C181.719 75.256 181.119 75.968 180.319 76.496C179.535 77.024 178.551 77.288 177.367 77.288ZM184.829 77V64.616H186.749V66.896H186.869C187.093 66.304 187.493 65.776 188.069 65.312C188.645 64.848 189.437 64.616 190.445 64.616H191.189V66.536H190.061C189.021 66.536 188.205 66.736 187.613 67.136C187.037 67.52 186.749 68.008 186.749 68.6V77H184.829ZM202.548 77C201.828 77 201.308 76.808 200.988 76.424C200.684 76.04 200.492 75.56 200.412 74.984H200.292C200.02 75.752 199.572 76.328 198.948 76.712C198.324 77.096 197.58 77.288 196.716 77.288C195.404 77.288 194.38 76.952 193.644 76.28C192.924 75.608 192.564 74.696 192.564 73.544C192.564 72.376 192.988 71.48 193.836 70.856C194.7 70.232 196.036 69.92 197.844 69.92H200.292V68.696C200.292 67.816 200.052 67.144 199.572 66.68C199.092 66.216 198.356 65.984 197.364 65.984C196.612 65.984 195.98 66.152 195.468 66.488C194.972 66.824 194.556 67.272 194.22 67.832L193.068 66.752C193.404 66.08 193.94 65.512 194.676 65.048C195.412 64.568 196.34 64.328 197.46 64.328C198.964 64.328 200.132 64.696 200.964 65.432C201.796 66.168 202.212 67.192 202.212 68.504V75.32H203.628V77H202.548ZM197.028 75.656C197.508 75.656 197.948 75.6 198.348 75.488C198.748 75.376 199.092 75.216 199.38 75.008C199.668 74.8 199.892 74.56 200.052 74.288C200.212 74.016 200.292 73.72 200.292 73.4V71.36H197.748C196.644 71.36 195.836 71.52 195.324 71.84C194.828 72.16 194.58 72.624 194.58 73.232V73.736C194.58 74.344 194.796 74.816 195.228 75.152C195.676 75.488 196.276 75.656 197.028 75.656ZM210.088 77.288C208.936 77.288 207.968 77.072 207.184 76.64C206.416 76.192 205.752 75.6 205.192 74.864L206.56 73.76C207.04 74.368 207.576 74.84 208.168 75.176C208.76 75.496 209.448 75.656 210.232 75.656C211.048 75.656 211.68 75.48 212.128 75.128C212.592 74.776 212.824 74.28 212.824 73.64C212.824 73.16 212.664 72.752 212.344 72.416C212.04 72.064 211.48 71.824 210.664 71.696L209.68 71.552C209.104 71.472 208.576 71.352 208.096 71.192C207.616 71.016 207.192 70.792 206.824 70.52C206.472 70.232 206.192 69.88 205.984 69.464C205.792 69.048 205.696 68.552 205.696 67.976C205.696 67.368 205.808 66.84 206.032 66.392C206.256 65.928 206.56 65.544 206.944 65.24C207.344 64.936 207.816 64.712 208.36 64.568C208.904 64.408 209.488 64.328 210.112 64.328C211.12 64.328 211.96 64.504 212.632 64.856C213.32 65.208 213.92 65.696 214.432 66.32L213.16 67.472C212.888 67.088 212.488 66.744 211.96 66.44C211.432 66.12 210.768 65.96 209.968 65.96C209.168 65.96 208.56 66.136 208.144 66.488C207.744 66.824 207.544 67.288 207.544 67.88C207.544 68.488 207.744 68.928 208.144 69.2C208.56 69.472 209.152 69.672 209.92 69.8L210.88 69.944C212.256 70.152 213.232 70.552 213.808 71.144C214.384 71.72 214.672 72.48 214.672 73.424C214.672 74.624 214.264 75.568 213.448 76.256C212.632 76.944 211.512 77.288 210.088 77.288ZM220.635 77C219.963 77 219.451 76.816 219.099 76.448C218.763 76.064 218.595 75.568 218.595 74.96V66.296H216.555V64.616H217.707C218.123 64.616 218.403 64.536 218.547 64.376C218.707 64.2 218.787 63.904 218.787 63.488V61.184H220.515V64.616H223.227V66.296H220.515V75.32H223.035V77H220.635ZM227.273 61.712C226.857 61.712 226.553 61.616 226.361 61.424C226.185 61.216 226.097 60.952 226.097 60.632V60.32C226.097 60 226.185 59.744 226.361 59.552C226.553 59.344 226.857 59.24 227.273 59.24C227.689 59.24 227.985 59.344 228.161 59.552C228.353 59.744 228.449 60 228.449 60.32V60.632C228.449 60.952 228.353 61.216 228.161 61.424C227.985 61.616 227.689 61.712 227.273 61.712ZM226.313 64.616H228.233V77H226.313V64.616ZM232.313 77V64.616H234.233V66.632H234.329C234.633 65.928 235.057 65.368 235.601 64.952C236.161 64.536 236.905 64.328 237.833 64.328C239.113 64.328 240.121 64.744 240.857 65.576C241.609 66.392 241.985 67.552 241.985 69.056V77H240.065V69.392C240.065 67.168 239.129 66.056 237.257 66.056C236.873 66.056 236.497 66.104 236.129 66.2C235.777 66.296 235.457 66.44 235.169 66.632C234.881 66.824 234.649 67.072 234.473 67.376C234.313 67.664 234.233 68.008 234.233 68.408V77H232.313ZM254.954 77C254.234 77 253.714 76.808 253.394 76.424C253.09 76.04 252.898 75.56 252.818 74.984H252.698C252.426 75.752 251.978 76.328 251.354 76.712C250.73 77.096 249.986 77.288 249.122 77.288C247.81 77.288 246.786 76.952 246.05 76.28C245.33 75.608 244.97 74.696 244.97 73.544C244.97 72.376 245.394 71.48 246.242 70.856C247.106 70.232 248.442 69.92 250.25 69.92H252.698V68.696C252.698 67.816 252.458 67.144 251.978 66.68C251.498 66.216 250.762 65.984 249.77 65.984C249.018 65.984 248.386 66.152 247.874 66.488C247.378 66.824 246.962 67.272 246.626 67.832L245.474 66.752C245.81 66.08 246.346 65.512 247.082 65.048C247.818 64.568 248.746 64.328 249.866 64.328C251.37 64.328 252.538 64.696 253.37 65.432C254.202 66.168 254.618 67.192 254.618 68.504V75.32H256.034V77H254.954ZM249.434 75.656C249.914 75.656 250.354 75.6 250.754 75.488C251.154 75.376 251.498 75.216 251.786 75.008C252.074 74.8 252.298 74.56 252.458 74.288C252.618 74.016 252.698 73.72 252.698 73.4V71.36H250.154C249.05 71.36 248.242 71.52 247.73 71.84C247.234 72.16 246.986 72.624 246.986 73.232V73.736C246.986 74.344 247.202 74.816 247.634 75.152C248.082 75.488 248.682 75.656 249.434 75.656ZM261.51 77C260.838 77 260.326 76.816 259.974 76.448C259.638 76.064 259.47 75.568 259.47 74.96V66.296H257.43V64.616H258.582C258.998 64.616 259.278 64.536 259.422 64.376C259.582 64.2 259.662 63.904 259.662 63.488V61.184H261.39V64.616H264.102V66.296H261.39V75.32H263.91V77H261.51ZM268.148 61.712C267.732 61.712 267.428 61.616 267.236 61.424C267.06 61.216 266.972 60.952 266.972 60.632V60.32C266.972 60 267.06 59.744 267.236 59.552C267.428 59.344 267.732 59.24 268.148 59.24C268.564 59.24 268.86 59.344 269.036 59.552C269.228 59.744 269.324 60 269.324 60.32V60.632C269.324 60.952 269.228 61.216 269.036 61.424C268.86 61.616 268.564 61.712 268.148 61.712ZM267.188 64.616H269.108V77H267.188V64.616ZM273.188 77V64.616H275.108V66.632H275.204C275.508 65.928 275.932 65.368 276.476 64.952C277.036 64.536 277.78 64.328 278.708 64.328C279.988 64.328 280.996 64.744 281.732 65.576C282.484 66.392 282.86 67.552 282.86 69.056V77H280.94V69.392C280.94 67.168 280.004 66.056 278.132 66.056C277.748 66.056 277.372 66.104 277.004 66.2C276.652 66.296 276.332 66.44 276.044 66.632C275.756 66.824 275.524 67.072 275.348 67.376C275.188 67.664 275.108 68.008 275.108 68.408V77H273.188ZM297.269 78.368C297.269 79.648 296.765 80.584 295.757 81.176C294.765 81.784 293.269 82.088 291.269 82.088C289.333 82.088 287.941 81.824 287.093 81.296C286.245 80.768 285.821 80.016 285.821 79.04C285.821 78.368 285.997 77.84 286.349 77.456C286.701 77.088 287.181 76.816 287.789 76.64V76.376C287.053 76.024 286.685 75.448 286.685 74.648C286.685 74.024 286.885 73.552 287.285 73.232C287.685 72.896 288.197 72.648 288.821 72.488V72.392C288.085 72.04 287.509 71.536 287.093 70.88C286.693 70.224 286.493 69.464 286.493 68.6C286.493 67.976 286.605 67.4 286.829 66.872C287.053 66.344 287.365 65.896 287.765 65.528C288.181 65.144 288.669 64.848 289.229 64.64C289.805 64.432 290.445 64.328 291.149 64.328C292.029 64.328 292.813 64.488 293.501 64.808V64.592C293.501 64.112 293.613 63.72 293.837 63.416C294.061 63.096 294.429 62.936 294.941 62.936H296.789V64.616H294.437V65.408C294.885 65.792 295.229 66.256 295.469 66.8C295.725 67.328 295.853 67.928 295.853 68.6C295.853 69.224 295.741 69.8 295.517 70.328C295.293 70.856 294.973 71.312 294.557 71.696C294.157 72.064 293.669 72.352 293.093 72.56C292.517 72.768 291.877 72.872 291.173 72.872C290.773 72.872 290.373 72.832 289.973 72.752C289.557 72.864 289.181 73.032 288.845 73.256C288.509 73.464 288.341 73.76 288.341 74.144C288.341 74.512 288.517 74.76 288.869 74.888C289.221 75.016 289.677 75.08 290.237 75.08H292.877C294.413 75.08 295.525 75.376 296.213 75.968C296.917 76.544 297.269 77.344 297.269 78.368ZM295.469 78.512C295.469 78.016 295.277 77.616 294.893 77.312C294.525 77.024 293.861 76.88 292.901 76.88H288.773C288.005 77.232 287.621 77.792 287.621 78.56C287.621 79.104 287.821 79.568 288.221 79.952C288.637 80.336 289.333 80.528 290.309 80.528H292.085C293.157 80.528 293.989 80.36 294.581 80.024C295.173 79.688 295.469 79.184 295.469 78.512ZM291.173 71.336C291.989 71.336 292.637 71.144 293.117 70.76C293.597 70.36 293.837 69.752 293.837 68.936V68.264C293.837 67.448 293.597 66.848 293.117 66.464C292.637 66.064 291.989 65.864 291.173 65.864C290.357 65.864 289.709 66.064 289.229 66.464C288.749 66.848 288.509 67.448 288.509 68.264V68.936C288.509 69.752 288.749 70.36 289.229 70.76C289.709 71.144 290.357 71.336 291.173 71.336ZM11.04 109C10.32 109 9.8 108.808 9.48 108.424C9.176 108.04 8.984 107.56 8.904 106.984H8.784C8.512 107.752 8.064 108.328 7.44 108.712C6.816 109.096 6.072 109.288 5.208 109.288C3.896 109.288 2.872 108.952 2.136 108.28C1.416 107.608 1.056 106.696 1.056 105.544C1.056 104.376 1.48 103.48 2.328 102.856C3.192 102.232 4.528 101.92 6.336 101.92H8.784V100.696C8.784 99.816 8.544 99.144 8.064 98.68C7.584 98.216 6.848 97.984 5.856 97.984C5.104 97.984 4.472 98.152 3.96 98.488C3.464 98.824 3.048 99.272 2.712 99.832L1.56 98.752C1.896 98.08 2.432 97.512 3.168 97.048C3.904 96.568 4.832 96.328 5.952 96.328C7.456 96.328 8.624 96.696 9.456 97.432C10.288 98.168 10.704 99.192 10.704 100.504V107.32H12.12V109H11.04ZM5.52 107.656C6 107.656 6.44 107.6 6.84 107.488C7.24 107.376 7.584 107.216 7.872 107.008C8.16 106.8 8.384 106.56 8.544 106.288C8.704 106.016 8.784 105.72 8.784 105.4V103.36H6.24C5.136 103.36 4.328 103.52 3.816 103.84C3.32 104.16 3.072 104.624 3.072 105.232V105.736C3.072 106.344 3.288 106.816 3.72 107.152C4.168 107.488 4.768 107.656 5.52 107.656ZM14.8603 109V96.616H16.7803V98.632H16.8763C17.1803 97.928 17.6043 97.368 18.1483 96.952C18.7083 96.536 19.4523 96.328 20.3803 96.328C21.6603 96.328 22.6683 96.744 23.4043 97.576C24.1563 98.392 24.5323 99.552 24.5323 101.056V109H22.6123V101.392C22.6123 99.168 21.6763 98.056 19.8043 98.056C19.4203 98.056 19.0443 98.104 18.6763 98.2C18.3243 98.296 18.0043 98.44 17.7163 98.632C17.4283 98.824 17.1963 99.072 17.0203 99.376C16.8603 99.664 16.7803 100.008 16.7803 100.408V109H14.8603ZM36.4209 106.984H36.3249C35.5729 108.52 34.3649 109.288 32.7009 109.288C31.9329 109.288 31.2369 109.136 30.6129 108.832C29.9889 108.528 29.4529 108.096 29.0049 107.536C28.5729 106.976 28.2369 106.296 27.9969 105.496C27.7729 104.696 27.6609 103.8 27.6609 102.808C27.6609 101.816 27.7729 100.92 27.9969 100.12C28.2369 99.32 28.5729 98.64 29.0049 98.08C29.4529 97.52 29.9889 97.088 30.6129 96.784C31.2369 96.48 31.9329 96.328 32.7009 96.328C33.5649 96.328 34.3009 96.52 34.9089 96.904C35.5329 97.272 36.0049 97.848 36.3249 98.632H36.4209V91.24H38.3409V109H36.4209V106.984ZM33.2289 107.56C33.6609 107.56 34.0689 107.504 34.4529 107.392C34.8529 107.28 35.1969 107.12 35.4849 106.912C35.7729 106.688 35.9969 106.424 36.1569 106.12C36.3329 105.8 36.4209 105.44 36.4209 105.04V100.432C36.4209 100.096 36.3329 99.784 36.1569 99.496C35.9969 99.192 35.7729 98.936 35.4849 98.728C35.1969 98.52 34.8529 98.36 34.4529 98.248C34.0689 98.12 33.6609 98.056 33.2289 98.056C32.1409 98.056 31.2849 98.4 30.6609 99.088C30.0369 99.76 29.7249 100.648 29.7249 101.752V103.864C29.7249 104.968 30.0369 105.864 30.6609 106.552C31.2849 107.224 32.1409 107.56 33.2289 107.56ZM51.8147 109.288C50.6627 109.288 49.6947 109.072 48.9107 108.64C48.1427 108.192 47.4787 107.6 46.9187 106.864L48.2867 105.76C48.7667 106.368 49.3027 106.84 49.8947 107.176C50.4867 107.496 51.1747 107.656 51.9587 107.656C52.7747 107.656 53.4067 107.48 53.8547 107.128C54.3187 106.776 54.5507 106.28 54.5507 105.64C54.5507 105.16 54.3907 104.752 54.0707 104.416C53.7667 104.064 53.2067 103.824 52.3907 103.696L51.4067 103.552C50.8307 103.472 50.3027 103.352 49.8227 103.192C49.3427 103.016 48.9187 102.792 48.5507 102.52C48.1987 102.232 47.9187 101.88 47.7107 101.464C47.5187 101.048 47.4227 100.552 47.4227 99.976C47.4227 99.368 47.5347 98.84 47.7587 98.392C47.9827 97.928 48.2867 97.544 48.6707 97.24C49.0707 96.936 49.5427 96.712 50.0867 96.568C50.6307 96.408 51.2147 96.328 51.8387 96.328C52.8467 96.328 53.6867 96.504 54.3587 96.856C55.0467 97.208 55.6467 97.696 56.1587 98.32L54.8867 99.472C54.6147 99.088 54.2147 98.744 53.6867 98.44C53.1587 98.12 52.4947 97.96 51.6947 97.96C50.8947 97.96 50.2867 98.136 49.8707 98.488C49.4707 98.824 49.2707 99.288 49.2707 99.88C49.2707 100.488 49.4707 100.928 49.8707 101.2C50.2867 101.472 50.8787 101.672 51.6467 101.8L52.6067 101.944C53.9827 102.152 54.9587 102.552 55.5347 103.144C56.1107 103.72 56.3987 104.48 56.3987 105.424C56.3987 106.624 55.9907 107.568 55.1747 108.256C54.3587 108.944 53.2387 109.288 51.8147 109.288ZM62.3619 109C61.6899 109 61.1779 108.816 60.8259 108.448C60.4899 108.064 60.3219 107.568 60.3219 106.96V98.296H58.2819V96.616H59.4339C59.8499 96.616 60.1299 96.536 60.2739 96.376C60.4339 96.2 60.5139 95.904 60.5139 95.488V93.184H62.2419V96.616H64.9539V98.296H62.2419V107.32H64.7619V109H62.3619ZM77.04 109C76.32 109 75.8 108.808 75.48 108.424C75.176 108.04 74.984 107.56 74.904 106.984H74.784C74.512 107.752 74.064 108.328 73.44 108.712C72.816 109.096 72.072 109.288 71.208 109.288C69.896 109.288 68.872 108.952 68.136 108.28C67.416 107.608 67.056 106.696 67.056 105.544C67.056 104.376 67.48 103.48 68.328 102.856C69.192 102.232 70.528 101.92 72.336 101.92H74.784V100.696C74.784 99.816 74.544 99.144 74.064 98.68C73.584 98.216 72.848 97.984 71.856 97.984C71.104 97.984 70.472 98.152 69.96 98.488C69.464 98.824 69.048 99.272 68.712 99.832L67.56 98.752C67.896 98.08 68.432 97.512 69.168 97.048C69.904 96.568 70.832 96.328 71.952 96.328C73.456 96.328 74.624 96.696 75.456 97.432C76.288 98.168 76.704 99.192 76.704 100.504V107.32H78.12V109H77.04ZM71.52 107.656C72 107.656 72.44 107.6 72.84 107.488C73.24 107.376 73.584 107.216 73.872 107.008C74.16 106.8 74.384 106.56 74.544 106.288C74.704 106.016 74.784 105.72 74.784 105.4V103.36H72.24C71.136 103.36 70.328 103.52 69.816 103.84C69.32 104.16 69.072 104.624 69.072 105.232V105.736C69.072 106.344 69.288 106.816 69.72 107.152C70.168 107.488 70.768 107.656 71.52 107.656ZM80.8603 109V96.616H82.7803V98.896H82.9003C83.1243 98.304 83.5243 97.776 84.1003 97.312C84.6763 96.848 85.4683 96.616 86.4763 96.616H87.2203V98.536H86.0923C85.0523 98.536 84.2363 98.736 83.6443 99.136C83.0683 99.52 82.7803 100.008 82.7803 100.6V109H80.8603ZM92.5026 109C91.8306 109 91.3186 108.816 90.9666 108.448C90.6306 108.064 90.4626 107.568 90.4626 106.96V98.296H88.4226V96.616H89.5746C89.9906 96.616 90.2706 96.536 90.4146 96.376C90.5746 96.2 90.6546 95.904 90.6546 95.488V93.184H92.3826V96.616H95.0946V98.296H92.3826V107.32H94.9026V109H92.5026ZM111.773 106.984H111.677C110.925 108.52 109.717 109.288 108.053 109.288C107.285 109.288 106.589 109.136 105.965 108.832C105.341 108.528 104.805 108.096 104.357 107.536C103.925 106.976 103.589 106.296 103.349 105.496C103.125 104.696 103.013 103.8 103.013 102.808C103.013 101.816 103.125 100.92 103.349 100.12C103.589 99.32 103.925 98.64 104.357 98.08C104.805 97.52 105.341 97.088 105.965 96.784C106.589 96.48 107.285 96.328 108.053 96.328C108.917 96.328 109.653 96.52 110.261 96.904C110.885 97.272 111.357 97.848 111.677 98.632H111.773V91.24H113.693V109H111.773V106.984ZM108.581 107.56C109.013 107.56 109.421 107.504 109.805 107.392C110.205 107.28 110.549 107.12 110.837 106.912C111.125 106.688 111.349 106.424 111.509 106.12C111.685 105.8 111.773 105.44 111.773 105.04V100.432C111.773 100.096 111.685 99.784 111.509 99.496C111.349 99.192 111.125 98.936 110.837 98.728C110.549 98.52 110.205 98.36 109.805 98.248C109.421 98.12 109.013 98.056 108.581 98.056C107.493 98.056 106.637 98.4 106.013 99.088C105.389 99.76 105.077 100.648 105.077 101.752V103.864C105.077 104.968 105.389 105.864 106.013 106.552C106.637 107.224 107.493 107.56 108.581 107.56ZM122.454 109.288C121.622 109.288 120.862 109.136 120.174 108.832C119.486 108.528 118.894 108.096 118.398 107.536C117.918 106.96 117.542 106.28 117.27 105.496C116.998 104.696 116.862 103.8 116.862 102.808C116.862 101.832 116.998 100.944 117.27 100.144C117.542 99.344 117.918 98.664 118.398 98.104C118.894 97.528 119.486 97.088 120.174 96.784C120.862 96.48 121.622 96.328 122.454 96.328C123.286 96.328 124.038 96.48 124.71 96.784C125.398 97.088 125.99 97.528 126.486 98.104C126.982 98.664 127.366 99.344 127.638 100.144C127.91 100.944 128.046 101.832 128.046 102.808C128.046 103.8 127.91 104.696 127.638 105.496C127.366 106.28 126.982 106.96 126.486 107.536C125.99 108.096 125.398 108.528 124.71 108.832C124.038 109.136 123.286 109.288 122.454 109.288ZM122.454 107.584C123.494 107.584 124.342 107.264 124.998 106.624C125.654 105.984 125.982 105.008 125.982 103.696V101.92C125.982 100.608 125.654 99.632 124.998 98.992C124.342 98.352 123.494 98.032 122.454 98.032C121.414 98.032 120.566 98.352 119.91 98.992C119.254 99.632 118.926 100.608 118.926 101.92V103.696C118.926 105.008 119.254 105.984 119.91 106.624C120.566 107.264 121.414 107.584 122.454 107.584ZM132.164 93.712C131.748 93.712 131.444 93.616 131.252 93.424C131.076 93.216 130.988 92.952 130.988 92.632V92.32C130.988 92 131.076 91.744 131.252 91.552C131.444 91.344 131.748 91.24 132.164 91.24C132.58 91.24 132.876 91.344 133.052 91.552C133.244 91.744 133.34 92 133.34 92.32V92.632C133.34 92.952 133.244 93.216 133.052 93.424C132.876 93.616 132.58 93.712 132.164 93.712ZM131.204 96.616H133.124V109H131.204V96.616ZM137.204 109V96.616H139.124V98.632H139.22C139.524 97.928 139.948 97.368 140.492 96.952C141.052 96.536 141.796 96.328 142.724 96.328C144.004 96.328 145.012 96.744 145.748 97.576C146.5 98.392 146.876 99.552 146.876 101.056V109H144.956V101.392C144.956 99.168 144.02 98.056 142.148 98.056C141.764 98.056 141.388 98.104 141.02 98.2C140.668 98.296 140.348 98.44 140.06 98.632C139.772 98.824 139.54 99.072 139.364 99.376C139.204 99.664 139.124 100.008 139.124 100.408V109H137.204ZM161.285 110.368C161.285 111.648 160.781 112.584 159.773 113.176C158.781 113.784 157.285 114.088 155.285 114.088C153.349 114.088 151.957 113.824 151.109 113.296C150.261 112.768 149.837 112.016 149.837 111.04C149.837 110.368 150.013 109.84 150.365 109.456C150.717 109.088 151.197 108.816 151.805 108.64V108.376C151.069 108.024 150.701 107.448 150.701 106.648C150.701 106.024 150.901 105.552 151.301 105.232C151.701 104.896 152.213 104.648 152.837 104.488V104.392C152.101 104.04 151.525 103.536 151.109 102.88C150.709 102.224 150.509 101.464 150.509 100.6C150.509 99.976 150.621 99.4 150.845 98.872C151.069 98.344 151.381 97.896 151.781 97.528C152.197 97.144 152.685 96.848 153.245 96.64C153.821 96.432 154.461 96.328 155.165 96.328C156.045 96.328 156.829 96.488 157.517 96.808V96.592C157.517 96.112 157.629 95.72 157.853 95.416C158.077 95.096 158.445 94.936 158.957 94.936H160.805V96.616H158.453V97.408C158.901 97.792 159.245 98.256 159.485 98.8C159.741 99.328 159.869 99.928 159.869 100.6C159.869 101.224 159.757 101.8 159.533 102.328C159.309 102.856 158.989 103.312 158.573 103.696C158.173 104.064 157.685 104.352 157.109 104.56C156.533 104.768 155.893 104.872 155.189 104.872C154.789 104.872 154.389 104.832 153.989 104.752C153.573 104.864 153.197 105.032 152.861 105.256C152.525 105.464 152.357 105.76 152.357 106.144C152.357 106.512 152.533 106.76 152.885 106.888C153.237 107.016 153.693 107.08 154.253 107.08H156.893C158.429 107.08 159.541 107.376 160.229 107.968C160.933 108.544 161.285 109.344 161.285 110.368ZM159.485 110.512C159.485 110.016 159.293 109.616 158.909 109.312C158.541 109.024 157.877 108.88 156.917 108.88H152.789C152.021 109.232 151.637 109.792 151.637 110.56C151.637 111.104 151.837 111.568 152.237 111.952C152.653 112.336 153.349 112.528 154.325 112.528H156.101C157.173 112.528 158.005 112.36 158.597 112.024C159.189 111.688 159.485 111.184 159.485 110.512ZM155.189 103.336C156.005 103.336 156.653 103.144 157.133 102.76C157.613 102.36 157.853 101.752 157.853 100.936V100.264C157.853 99.448 157.613 98.848 157.133 98.464C156.653 98.064 156.005 97.864 155.189 97.864C154.373 97.864 153.725 98.064 153.245 98.464C152.765 98.848 152.525 99.448 152.525 100.264V100.936C152.525 101.752 152.765 102.36 153.245 102.76C153.725 103.144 154.373 103.336 155.189 103.336ZM171.932 109C171.26 109 170.748 108.816 170.396 108.448C170.06 108.064 169.892 107.568 169.892 106.96V98.296H167.852V96.616H169.004C169.42 96.616 169.7 96.536 169.844 96.376C170.004 96.2 170.084 95.904 170.084 95.488V93.184H171.812V96.616H174.524V98.296H171.812V107.32H174.332V109H171.932ZM177.61 91.24H179.53V98.632H179.626C179.93 97.928 180.354 97.368 180.898 96.952C181.458 96.536 182.202 96.328 183.13 96.328C184.41 96.328 185.418 96.744 186.154 97.576C186.906 98.392 187.282 99.552 187.282 101.056V109H185.362V101.392C185.362 99.168 184.426 98.056 182.554 98.056C182.17 98.056 181.794 98.104 181.426 98.2C181.074 98.296 180.754 98.44 180.466 98.632C180.178 98.824 179.946 99.072 179.77 99.376C179.61 99.664 179.53 100.008 179.53 100.408V109H177.61V91.24ZM192.211 93.712C191.795 93.712 191.491 93.616 191.299 93.424C191.123 93.216 191.035 92.952 191.035 92.632V92.32C191.035 92 191.123 91.744 191.299 91.552C191.491 91.344 191.795 91.24 192.211 91.24C192.627 91.24 192.923 91.344 193.099 91.552C193.291 91.744 193.387 92 193.387 92.32V92.632C193.387 92.952 193.291 93.216 193.099 93.424C192.923 93.616 192.627 93.712 192.211 93.712ZM191.251 96.616H193.171V109H191.251V96.616ZM197.251 109V96.616H199.171V98.632H199.267C199.571 97.928 199.995 97.368 200.539 96.952C201.099 96.536 201.843 96.328 202.771 96.328C204.051 96.328 205.059 96.744 205.795 97.576C206.547 98.392 206.923 99.552 206.923 101.056V109H205.003V101.392C205.003 99.168 204.067 98.056 202.195 98.056C201.811 98.056 201.435 98.104 201.067 98.2C200.715 98.296 200.395 98.44 200.107 98.632C199.819 98.824 199.587 99.072 199.411 99.376C199.251 99.664 199.171 100.008 199.171 100.408V109H197.251ZM221.332 110.368C221.332 111.648 220.828 112.584 219.82 113.176C218.828 113.784 217.332 114.088 215.332 114.088C213.396 114.088 212.004 113.824 211.156 113.296C210.308 112.768 209.884 112.016 209.884 111.04C209.884 110.368 210.06 109.84 210.412 109.456C210.764 109.088 211.244 108.816 211.852 108.64V108.376C211.116 108.024 210.748 107.448 210.748 106.648C210.748 106.024 210.948 105.552 211.348 105.232C211.748 104.896 212.26 104.648 212.884 104.488V104.392C212.148 104.04 211.572 103.536 211.156 102.88C210.756 102.224 210.556 101.464 210.556 100.6C210.556 99.976 210.668 99.4 210.892 98.872C211.116 98.344 211.428 97.896 211.828 97.528C212.244 97.144 212.732 96.848 213.292 96.64C213.868 96.432 214.508 96.328 215.212 96.328C216.092 96.328 216.876 96.488 217.564 96.808V96.592C217.564 96.112 217.676 95.72 217.9 95.416C218.124 95.096 218.492 94.936 219.004 94.936H220.852V96.616H218.5V97.408C218.948 97.792 219.292 98.256 219.532 98.8C219.788 99.328 219.916 99.928 219.916 100.6C219.916 101.224 219.804 101.8 219.58 102.328C219.356 102.856 219.036 103.312 218.62 103.696C218.22 104.064 217.732 104.352 217.156 104.56C216.58 104.768 215.94 104.872 215.236 104.872C214.836 104.872 214.436 104.832 214.036 104.752C213.62 104.864 213.244 105.032 212.908 105.256C212.572 105.464 212.404 105.76 212.404 106.144C212.404 106.512 212.58 106.76 212.932 106.888C213.284 107.016 213.74 107.08 214.3 107.08H216.94C218.476 107.08 219.588 107.376 220.276 107.968C220.98 108.544 221.332 109.344 221.332 110.368ZM219.532 110.512C219.532 110.016 219.34 109.616 218.956 109.312C218.588 109.024 217.924 108.88 216.964 108.88H212.836C212.068 109.232 211.684 109.792 211.684 110.56C211.684 111.104 211.884 111.568 212.284 111.952C212.7 112.336 213.396 112.528 214.372 112.528H216.148C217.22 112.528 218.052 112.36 218.644 112.024C219.236 111.688 219.532 111.184 219.532 110.512ZM215.236 103.336C216.052 103.336 216.7 103.144 217.18 102.76C217.66 102.36 217.9 101.752 217.9 100.936V100.264C217.9 99.448 217.66 98.848 217.18 98.464C216.7 98.064 216.052 97.864 215.236 97.864C214.42 97.864 213.772 98.064 213.292 98.464C212.812 98.848 212.572 99.448 212.572 100.264V100.936C212.572 101.752 212.812 102.36 213.292 102.76C213.772 103.144 214.42 103.336 215.236 103.336ZM227.291 109.288C226.139 109.288 225.171 109.072 224.387 108.64C223.619 108.192 222.955 107.6 222.395 106.864L223.763 105.76C224.243 106.368 224.779 106.84 225.371 107.176C225.963 107.496 226.651 107.656 227.435 107.656C228.251 107.656 228.883 107.48 229.331 107.128C229.795 106.776 230.027 106.28 230.027 105.64C230.027 105.16 229.867 104.752 229.547 104.416C229.243 104.064 228.683 103.824 227.867 103.696L226.883 103.552C226.307 103.472 225.779 103.352 225.299 103.192C224.819 103.016 224.395 102.792 224.027 102.52C223.675 102.232 223.395 101.88 223.187 101.464C222.995 101.048 222.899 100.552 222.899 99.976C222.899 99.368 223.011 98.84 223.235 98.392C223.459 97.928 223.763 97.544 224.147 97.24C224.547 96.936 225.019 96.712 225.563 96.568C226.107 96.408 226.691 96.328 227.315 96.328C228.323 96.328 229.163 96.504 229.835 96.856C230.523 97.208 231.123 97.696 231.635 98.32L230.363 99.472C230.091 99.088 229.691 98.744 229.163 98.44C228.635 98.12 227.971 97.96 227.171 97.96C226.371 97.96 225.763 98.136 225.347 98.488C224.947 98.824 224.747 99.288 224.747 99.88C224.747 100.488 224.947 100.928 225.347 101.2C225.763 101.472 226.355 101.672 227.123 101.8L228.083 101.944C229.459 102.152 230.435 102.552 231.011 103.144C231.587 103.72 231.875 104.48 231.875 105.424C231.875 106.624 231.467 107.568 230.651 108.256C229.835 108.944 228.715 109.288 227.291 109.288Z" fill="#1E1E1E"/>
</g>
<defs>
<clipPath id="clip0_1_974">
<rect width="304" height="170" fill="white"/>
</clipPath>
</defs>
</svg>
