<svg width="304" height="170" viewBox="0 0 304 170" fill="none" xmlns="http://www.w3.org/2000/svg">
<g clip-path="url(#clip0_1_983)">
<rect width="83" height="36" rx="4" fill="#EEE5FF"/>
<path d="M11.654 17.372C12.3167 17.372 12.8113 17.2227 13.138 16.924C13.474 16.616 13.642 16.224 13.642 15.748V15.65C13.642 15.1367 13.4787 14.754 13.152 14.502C12.8347 14.2407 12.4147 14.11 11.892 14.11C11.388 14.11 10.9773 14.222 10.66 14.446C10.3427 14.6607 10.0813 14.9547 9.876 15.328L9.008 14.656C9.12933 14.46 9.274 14.2687 9.442 14.082C9.61933 13.886 9.82467 13.7133 10.058 13.564C10.2913 13.4147 10.562 13.2933 10.87 13.2C11.178 13.1067 11.528 13.06 11.92 13.06C12.3307 13.06 12.718 13.116 13.082 13.228C13.446 13.3307 13.7587 13.4893 14.02 13.704C14.2907 13.9093 14.5007 14.166 14.65 14.474C14.8087 14.782 14.888 15.132 14.888 15.524C14.888 15.8413 14.8367 16.126 14.734 16.378C14.6407 16.63 14.51 16.8493 14.342 17.036C14.174 17.2227 13.9733 17.3813 13.74 17.512C13.516 17.6427 13.2733 17.7407 13.012 17.806V17.862C13.2733 17.918 13.5253 18.0113 13.768 18.142C14.02 18.2633 14.2393 18.4267 14.426 18.632C14.622 18.828 14.776 19.0707 14.888 19.36C15.0093 19.64 15.07 19.962 15.07 20.326C15.07 20.746 14.9907 21.1333 14.832 21.488C14.6733 21.8333 14.4493 22.132 14.16 22.384C13.8707 22.6267 13.5207 22.818 13.11 22.958C12.6993 23.098 12.2467 23.168 11.752 23.168C11.332 23.168 10.9587 23.1213 10.632 23.028C10.3053 22.9347 10.016 22.8087 9.764 22.65C9.512 22.4913 9.288 22.314 9.092 22.118C8.90533 21.922 8.73733 21.7167 8.588 21.502L9.47 20.83C9.59133 21.026 9.722 21.2033 9.862 21.362C10.0113 21.5207 10.1747 21.656 10.352 21.768C10.5293 21.88 10.73 21.9687 10.954 22.034C11.178 22.09 11.4393 22.118 11.738 22.118C12.4287 22.118 12.9513 21.964 13.306 21.656C13.6607 21.3387 13.838 20.8907 13.838 20.312V20.2C13.838 19.6213 13.6607 19.178 13.306 18.87C12.9513 18.5527 12.4287 18.394 11.738 18.394H10.59V17.372H11.654ZM25.5131 21.824H25.4571C25.0185 22.72 24.3138 23.168 23.3431 23.168C22.8951 23.168 22.4891 23.0793 22.1251 22.902C21.7611 22.7247 21.4485 22.4727 21.1871 22.146C20.9351 21.8193 20.7391 21.4227 20.5991 20.956C20.4685 20.4893 20.4031 19.9667 20.4031 19.388C20.4031 18.8093 20.4685 18.2867 20.5991 17.82C20.7391 17.3533 20.9351 16.9567 21.1871 16.63C21.4485 16.3033 21.7611 16.0513 22.1251 15.874C22.4891 15.6967 22.8951 15.608 23.3431 15.608C23.8471 15.608 24.2765 15.72 24.6311 15.944C24.9951 16.1587 25.2705 16.4947 25.4571 16.952H25.5131V12.64H26.6331V23H25.5131V21.824ZM23.6511 22.16C23.9031 22.16 24.1411 22.1273 24.3651 22.062C24.5985 21.9967 24.7991 21.9033 24.9671 21.782C25.1351 21.6513 25.2658 21.4973 25.3591 21.32C25.4618 21.1333 25.5131 20.9233 25.5131 20.69V18.002C25.5131 17.806 25.4618 17.624 25.3591 17.456C25.2658 17.2787 25.1351 17.1293 24.9671 17.008C24.7991 16.8867 24.5985 16.7933 24.3651 16.728C24.1411 16.6533 23.9031 16.616 23.6511 16.616C23.0165 16.616 22.5171 16.8167 22.1531 17.218C21.7891 17.61 21.6071 18.128 21.6071 18.772V20.004C21.6071 20.648 21.7891 21.1707 22.1531 21.572C22.5171 21.964 23.0165 22.16 23.6511 22.16ZM34.2642 23C33.8442 23 33.5409 22.888 33.3542 22.664C33.1769 22.44 33.0649 22.16 33.0182 21.824H32.9482C32.7896 22.272 32.5282 22.608 32.1642 22.832C31.8002 23.056 31.3662 23.168 30.8622 23.168C30.0969 23.168 29.4996 22.972 29.0702 22.58C28.6502 22.188 28.4402 21.656 28.4402 20.984C28.4402 20.3027 28.6876 19.78 29.1822 19.416C29.6862 19.052 30.4656 18.87 31.5202 18.87H32.9482V18.156C32.9482 17.6427 32.8082 17.2507 32.5282 16.98C32.2482 16.7093 31.8189 16.574 31.2402 16.574C30.8016 16.574 30.4329 16.672 30.1342 16.868C29.8449 17.064 29.6022 17.3253 29.4062 17.652L28.7342 17.022C28.9302 16.63 29.2429 16.2987 29.6722 16.028C30.1016 15.748 30.6429 15.608 31.2962 15.608C32.1736 15.608 32.8549 15.8227 33.3402 16.252C33.8256 16.6813 34.0682 17.2787 34.0682 18.044V22.02H34.8942V23H34.2642ZM31.0442 22.216C31.3242 22.216 31.5809 22.1833 31.8142 22.118C32.0476 22.0527 32.2482 21.9593 32.4162 21.838C32.5842 21.7167 32.7149 21.5767 32.8082 21.418C32.9016 21.2593 32.9482 21.0867 32.9482 20.9V19.71H31.4642C30.8202 19.71 30.3489 19.8033 30.0502 19.99C29.7609 20.1767 29.6162 20.4473 29.6162 20.802V21.096C29.6162 21.4507 29.7422 21.726 29.9942 21.922C30.2556 22.118 30.6056 22.216 31.0442 22.216ZM40.8764 15.776H41.9824L38.7484 24.68C38.6644 24.8947 38.5804 25.072 38.4964 25.212C38.4124 25.3613 38.3097 25.478 38.1884 25.562C38.067 25.646 37.913 25.7067 37.7264 25.744C37.549 25.7813 37.3297 25.8 37.0684 25.8H36.4944V24.82H37.6284L38.1744 23.28L35.4724 15.776H36.5924L38.3284 20.69L38.6644 21.866H38.7344L39.1264 20.69L40.8764 15.776ZM45.526 23.168C44.854 23.168 44.2893 23.042 43.832 22.79C43.384 22.5287 42.9967 22.1833 42.67 21.754L43.468 21.11C43.748 21.4647 44.0607 21.74 44.406 21.936C44.7513 22.1227 45.1527 22.216 45.61 22.216C46.086 22.216 46.4547 22.1133 46.716 21.908C46.9867 21.7027 47.122 21.4133 47.122 21.04C47.122 20.76 47.0287 20.522 46.842 20.326C46.6647 20.1207 46.338 19.9807 45.862 19.906L45.288 19.822C44.952 19.7753 44.644 19.7053 44.364 19.612C44.084 19.5093 43.8367 19.3787 43.622 19.22C43.4167 19.052 43.2533 18.8467 43.132 18.604C43.02 18.3613 42.964 18.072 42.964 17.736C42.964 17.3813 43.0293 17.0733 43.16 16.812C43.2907 16.5413 43.468 16.3173 43.692 16.14C43.9253 15.9627 44.2007 15.832 44.518 15.748C44.8353 15.6547 45.176 15.608 45.54 15.608C46.128 15.608 46.618 15.7107 47.01 15.916C47.4113 16.1213 47.7613 16.406 48.06 16.77L47.318 17.442C47.1593 17.218 46.926 17.0173 46.618 16.84C46.31 16.6533 45.9227 16.56 45.456 16.56C44.9893 16.56 44.6347 16.6627 44.392 16.868C44.1587 17.064 44.042 17.3347 44.042 17.68C44.042 18.0347 44.1587 18.2913 44.392 18.45C44.6347 18.6087 44.98 18.7253 45.428 18.8L45.988 18.884C46.7907 19.0053 47.36 19.2387 47.696 19.584C48.032 19.92 48.2 20.3633 48.2 20.914C48.2 21.614 47.962 22.1647 47.486 22.566C47.01 22.9673 46.3567 23.168 45.526 23.168ZM58.7369 23C58.3169 23 58.0135 22.888 57.8269 22.664C57.6495 22.44 57.5375 22.16 57.4909 21.824H57.4209C57.2622 22.272 57.0009 22.608 56.6369 22.832C56.2729 23.056 55.8389 23.168 55.3349 23.168C54.5695 23.168 53.9722 22.972 53.5429 22.58C53.1229 22.188 52.9129 21.656 52.9129 20.984C52.9129 20.3027 53.1602 19.78 53.6549 19.416C54.1589 19.052 54.9382 18.87 55.9929 18.87H57.4209V18.156C57.4209 17.6427 57.2809 17.2507 57.0009 16.98C56.7209 16.7093 56.2915 16.574 55.7129 16.574C55.2742 16.574 54.9055 16.672 54.6069 16.868C54.3175 17.064 54.0749 17.3253 53.8789 17.652L53.2069 17.022C53.4029 16.63 53.7155 16.2987 54.1449 16.028C54.5742 15.748 55.1155 15.608 55.7689 15.608C56.6462 15.608 57.3275 15.8227 57.8129 16.252C58.2982 16.6813 58.5409 17.2787 58.5409 18.044V22.02H59.3669V23H58.7369ZM55.5169 22.216C55.7969 22.216 56.0535 22.1833 56.2869 22.118C56.5202 22.0527 56.7209 21.9593 56.8889 21.838C57.0569 21.7167 57.1875 21.5767 57.2809 21.418C57.3742 21.2593 57.4209 21.0867 57.4209 20.9V19.71H55.9369C55.2929 19.71 54.8215 19.8033 54.5229 19.99C54.2335 20.1767 54.0889 20.4473 54.0889 20.802V21.096C54.0889 21.4507 54.2149 21.726 54.4669 21.922C54.7282 22.118 55.0782 22.216 55.5169 22.216ZM67.0554 23.798C67.0554 24.5447 66.7614 25.0907 66.1734 25.436C65.5947 25.7907 64.7221 25.968 63.5554 25.968C62.4261 25.968 61.6141 25.814 61.1194 25.506C60.6247 25.198 60.3774 24.7593 60.3774 24.19C60.3774 23.798 60.4801 23.49 60.6854 23.266C60.8907 23.0513 61.1707 22.8927 61.5254 22.79V22.636C61.0961 22.4307 60.8814 22.0947 60.8814 21.628C60.8814 21.264 60.9981 20.9887 61.2314 20.802C61.4647 20.606 61.7634 20.4613 62.1274 20.368V20.312C61.6981 20.1067 61.3621 19.8127 61.1194 19.43C60.8861 19.0473 60.7694 18.604 60.7694 18.1C60.7694 17.736 60.8347 17.4 60.9654 17.092C61.0961 16.784 61.2781 16.5227 61.5114 16.308C61.7541 16.084 62.0387 15.9113 62.3654 15.79C62.7014 15.6687 63.0747 15.608 63.4854 15.608C63.9987 15.608 64.4561 15.7013 64.8574 15.888V15.762C64.8574 15.482 64.9227 15.2533 65.0534 15.076C65.1841 14.8893 65.3987 14.796 65.6974 14.796H66.7754V15.776H65.4034V16.238C65.6647 16.462 65.8654 16.7327 66.0054 17.05C66.1547 17.358 66.2294 17.708 66.2294 18.1C66.2294 18.464 66.1641 18.8 66.0334 19.108C65.9027 19.416 65.7161 19.682 65.4734 19.906C65.2401 20.1207 64.9554 20.2887 64.6194 20.41C64.2834 20.5313 63.9101 20.592 63.4994 20.592C63.2661 20.592 63.0327 20.5687 62.7994 20.522C62.5567 20.5873 62.3374 20.6853 62.1414 20.816C61.9454 20.9373 61.8474 21.11 61.8474 21.334C61.8474 21.5487 61.9501 21.6933 62.1554 21.768C62.3607 21.8427 62.6267 21.88 62.9534 21.88H64.4934C65.3894 21.88 66.0381 22.0527 66.4394 22.398C66.8501 22.734 67.0554 23.2007 67.0554 23.798ZM66.0054 23.882C66.0054 23.5927 65.8934 23.3593 65.6694 23.182C65.4547 23.014 65.0674 22.93 64.5074 22.93H62.0994C61.6514 23.1353 61.4274 23.462 61.4274 23.91C61.4274 24.2273 61.5441 24.498 61.7774 24.722C62.0201 24.946 62.4261 25.058 62.9954 25.058H64.0314C64.6567 25.058 65.1421 24.96 65.4874 24.764C65.8327 24.568 66.0054 24.274 66.0054 23.882ZM63.4994 19.696C63.9754 19.696 64.3534 19.584 64.6334 19.36C64.9134 19.1267 65.0534 18.772 65.0534 18.296V17.904C65.0534 17.428 64.9134 17.078 64.6334 16.854C64.3534 16.6207 63.9754 16.504 63.4994 16.504C63.0234 16.504 62.6454 16.6207 62.3654 16.854C62.0854 17.078 61.9454 17.428 61.9454 17.904V18.296C61.9454 18.772 62.0854 19.1267 62.3654 19.36C62.6454 19.584 63.0234 19.696 63.4994 19.696ZM71.0098 23.168C70.5245 23.168 70.0812 23.0793 69.6798 22.902C69.2785 22.7247 68.9332 22.4727 68.6438 22.146C68.3638 21.81 68.1445 21.4133 67.9858 20.956C67.8272 20.4893 67.7478 19.9667 67.7478 19.388C67.7478 18.8187 67.8272 18.3007 67.9858 17.834C68.1445 17.3673 68.3638 16.9707 68.6438 16.644C68.9332 16.308 69.2785 16.0513 69.6798 15.874C70.0812 15.6967 70.5245 15.608 71.0098 15.608C71.4952 15.608 71.9338 15.6967 72.3258 15.874C72.7272 16.0513 73.0725 16.308 73.3618 16.644C73.6512 16.9707 73.8752 17.3673 74.0338 17.834C74.1925 18.3007 74.2718 18.8187 74.2718 19.388C74.2718 19.9667 74.1925 20.4893 74.0338 20.956C73.8752 21.4133 73.6512 21.81 73.3618 22.146C73.0725 22.4727 72.7272 22.7247 72.3258 22.902C71.9338 23.0793 71.4952 23.168 71.0098 23.168ZM71.0098 22.174C71.6165 22.174 72.1112 21.9873 72.4938 21.614C72.8765 21.2407 73.0678 20.6713 73.0678 19.906V18.87C73.0678 18.1047 72.8765 17.5353 72.4938 17.162C72.1112 16.7887 71.6165 16.602 71.0098 16.602C70.4032 16.602 69.9085 16.7887 69.5258 17.162C69.1432 17.5353 68.9518 18.1047 68.9518 18.87V19.906C68.9518 20.6713 69.1432 21.2407 69.5258 21.614C69.9085 21.9873 70.4032 22.174 71.0098 22.174Z" fill="#937CC8"/>
<path d="M6.288 66.776L4.272 63.056H4.2V77H2.232V60.248H4.56L10.68 70.472L12.696 74.192H12.768V60.248H14.736V77H12.408L6.288 66.776ZM23.6648 77.288C22.8168 77.288 22.0488 77.136 21.3608 76.832C20.6888 76.528 20.1048 76.096 19.6088 75.536C19.1288 74.96 18.7528 74.28 18.4808 73.496C18.2248 72.696 18.0968 71.8 18.0968 70.808C18.0968 69.832 18.2248 68.944 18.4808 68.144C18.7528 67.344 19.1288 66.664 19.6088 66.104C20.1048 65.528 20.6888 65.088 21.3608 64.784C22.0488 64.48 22.8168 64.328 23.6648 64.328C24.4968 64.328 25.2408 64.48 25.8968 64.784C26.5528 65.088 27.1128 65.512 27.5768 66.056C28.0408 66.584 28.3928 67.216 28.6328 67.952C28.8888 68.688 29.0168 69.496 29.0168 70.376V71.288H20.1128V71.864C20.1128 72.392 20.1928 72.888 20.3528 73.352C20.5288 73.8 20.7688 74.192 21.0728 74.528C21.3928 74.864 21.7768 75.128 22.2248 75.32C22.6888 75.512 23.2088 75.608 23.7848 75.608C24.5688 75.608 25.2488 75.424 25.8248 75.056C26.4168 74.688 26.8728 74.16 27.1928 73.472L28.5608 74.456C28.1608 75.304 27.5368 75.992 26.6888 76.52C25.8408 77.032 24.8328 77.288 23.6648 77.288ZM23.6648 65.936C23.1368 65.936 22.6568 66.032 22.2248 66.224C21.7928 66.4 21.4168 66.656 21.0968 66.992C20.7928 67.328 20.5528 67.728 20.3768 68.192C20.2008 68.64 20.1128 69.136 20.1128 69.68V69.848H26.9528V69.584C26.9528 68.48 26.6488 67.6 26.0408 66.944C25.4488 66.272 24.6568 65.936 23.6648 65.936ZM30.7674 64.616H32.6394L33.9594 69.968L35.2794 75.392H35.3274L36.8394 69.968L38.3994 64.616H40.1034L41.7114 69.968L43.2474 75.392H43.2954L44.5674 69.968L45.9114 64.616H47.7114L44.4234 77H42.0474L40.3194 71.048L39.2394 67.28H39.1914L38.1354 71.048L36.4074 77H34.0794L30.7674 64.616ZM58.2452 60.248V70.616C58.2452 72.216 58.5412 73.432 59.1332 74.264C59.7252 75.08 60.7652 75.488 62.2532 75.488C63.7412 75.488 64.7812 75.08 65.3732 74.264C65.9652 73.432 66.2612 72.216 66.2612 70.616V60.248H68.2772V70.136C68.2772 71.352 68.1652 72.408 67.9412 73.304C67.7332 74.2 67.3892 74.944 66.9092 75.536C66.4292 76.128 65.7972 76.568 65.0132 76.856C64.2452 77.144 63.3012 77.288 62.1812 77.288C61.0612 77.288 60.1172 77.144 59.3492 76.856C58.5972 76.568 57.9892 76.128 57.5252 75.536C57.0612 74.944 56.7252 74.2 56.5172 73.304C56.3252 72.408 56.2292 71.352 56.2292 70.136V60.248H58.2452ZM72.4228 64.616H74.3428V66.632H74.4388C74.7588 65.848 75.2228 65.272 75.8308 64.904C76.4548 64.52 77.1988 64.328 78.0628 64.328C78.8308 64.328 79.5268 64.48 80.1508 64.784C80.7748 65.088 81.3028 65.52 81.7348 66.08C82.1828 66.64 82.5188 67.32 82.7428 68.12C82.9828 68.92 83.1028 69.816 83.1028 70.808C83.1028 71.8 82.9828 72.696 82.7428 73.496C82.5188 74.296 82.1828 74.976 81.7348 75.536C81.3028 76.096 80.7748 76.528 80.1508 76.832C79.5268 77.136 78.8308 77.288 78.0628 77.288C76.3828 77.288 75.1748 76.52 74.4388 74.984H74.3428V81.8H72.4228V64.616ZM77.5348 75.56C78.6228 75.56 79.4788 75.224 80.1028 74.552C80.7268 73.864 81.0388 72.968 81.0388 71.864V69.752C81.0388 68.648 80.7268 67.76 80.1028 67.088C79.4788 66.4 78.6228 66.056 77.5348 66.056C77.1028 66.056 76.6868 66.12 76.2868 66.248C75.9028 66.36 75.5668 66.52 75.2788 66.728C74.9908 66.936 74.7588 67.192 74.5828 67.496C74.4228 67.784 74.3428 68.096 74.3428 68.432V73.04C74.3428 73.44 74.4228 73.8 74.5828 74.12C74.7588 74.424 74.9908 74.688 75.2788 74.912C75.5668 75.12 75.9028 75.28 76.2868 75.392C76.6868 75.504 77.1028 75.56 77.5348 75.56ZM94.2647 74.984H94.1687C93.4167 76.52 92.2087 77.288 90.5447 77.288C89.7767 77.288 89.0807 77.136 88.4567 76.832C87.8327 76.528 87.2967 76.096 86.8487 75.536C86.4167 74.976 86.0807 74.296 85.8407 73.496C85.6167 72.696 85.5047 71.8 85.5047 70.808C85.5047 69.816 85.6167 68.92 85.8407 68.12C86.0807 67.32 86.4167 66.64 86.8487 66.08C87.2967 65.52 87.8327 65.088 88.4567 64.784C89.0807 64.48 89.7767 64.328 90.5447 64.328C91.4087 64.328 92.1447 64.52 92.7527 64.904C93.3767 65.272 93.8487 65.848 94.1687 66.632H94.2647V59.24H96.1847V77H94.2647V74.984ZM91.0727 75.56C91.5047 75.56 91.9127 75.504 92.2967 75.392C92.6967 75.28 93.0407 75.12 93.3287 74.912C93.6167 74.688 93.8407 74.424 94.0007 74.12C94.1767 73.8 94.2647 73.44 94.2647 73.04V68.432C94.2647 68.096 94.1767 67.784 94.0007 67.496C93.8407 67.192 93.6167 66.936 93.3287 66.728C93.0407 66.52 92.6967 66.36 92.2967 66.248C91.9127 66.12 91.5047 66.056 91.0727 66.056C89.9847 66.056 89.1287 66.4 88.5047 67.088C87.8807 67.76 87.5687 68.648 87.5687 69.752V71.864C87.5687 72.968 87.8807 73.864 88.5047 74.552C89.1287 75.224 89.9847 75.56 91.0727 75.56ZM109.267 77C108.547 77 108.027 76.808 107.707 76.424C107.403 76.04 107.211 75.56 107.131 74.984H107.011C106.739 75.752 106.291 76.328 105.667 76.712C105.043 77.096 104.299 77.288 103.435 77.288C102.123 77.288 101.099 76.952 100.363 76.28C99.6426 75.608 99.2826 74.696 99.2826 73.544C99.2826 72.376 99.7066 71.48 100.555 70.856C101.419 70.232 102.755 69.92 104.563 69.92H107.011V68.696C107.011 67.816 106.771 67.144 106.291 66.68C105.811 66.216 105.075 65.984 104.083 65.984C103.331 65.984 102.699 66.152 102.187 66.488C101.691 66.824 101.275 67.272 100.939 67.832L99.7866 66.752C100.123 66.08 100.659 65.512 101.395 65.048C102.131 64.568 103.059 64.328 104.179 64.328C105.683 64.328 106.851 64.696 107.683 65.432C108.515 66.168 108.931 67.192 108.931 68.504V75.32H110.347V77H109.267ZM103.747 75.656C104.227 75.656 104.667 75.6 105.067 75.488C105.467 75.376 105.811 75.216 106.099 75.008C106.387 74.8 106.611 74.56 106.771 74.288C106.931 74.016 107.011 73.72 107.011 73.4V71.36H104.467C103.363 71.36 102.555 71.52 102.043 71.84C101.547 72.16 101.299 72.624 101.299 73.232V73.736C101.299 74.344 101.515 74.816 101.947 75.152C102.395 75.488 102.995 75.656 103.747 75.656ZM115.823 77C115.151 77 114.639 76.816 114.287 76.448C113.951 76.064 113.783 75.568 113.783 74.96V66.296H111.743V64.616H112.895C113.311 64.616 113.591 64.536 113.735 64.376C113.895 64.2 113.975 63.904 113.975 63.488V61.184H115.703V64.616H118.415V66.296H115.703V75.32H118.223V77H115.823ZM126.063 77.288C125.215 77.288 124.447 77.136 123.759 76.832C123.087 76.528 122.503 76.096 122.007 75.536C121.527 74.96 121.151 74.28 120.879 73.496C120.623 72.696 120.495 71.8 120.495 70.808C120.495 69.832 120.623 68.944 120.879 68.144C121.151 67.344 121.527 66.664 122.007 66.104C122.503 65.528 123.087 65.088 123.759 64.784C124.447 64.48 125.215 64.328 126.063 64.328C126.895 64.328 127.639 64.48 128.295 64.784C128.951 65.088 129.511 65.512 129.975 66.056C130.439 66.584 130.791 67.216 131.031 67.952C131.287 68.688 131.415 69.496 131.415 70.376V71.288H122.511V71.864C122.511 72.392 122.591 72.888 122.751 73.352C122.927 73.8 123.167 74.192 123.471 74.528C123.791 74.864 124.175 75.128 124.623 75.32C125.087 75.512 125.607 75.608 126.183 75.608C126.967 75.608 127.647 75.424 128.223 75.056C128.815 74.688 129.271 74.16 129.591 73.472L130.959 74.456C130.559 75.304 129.935 75.992 129.087 76.52C128.239 77.032 127.231 77.288 126.063 77.288ZM126.063 65.936C125.535 65.936 125.055 66.032 124.623 66.224C124.191 66.4 123.815 66.656 123.495 66.992C123.191 67.328 122.951 67.728 122.775 68.192C122.599 68.64 122.511 69.136 122.511 69.68V69.848H129.351V69.584C129.351 68.48 129.047 67.6 128.439 66.944C127.847 66.272 127.055 65.936 126.063 65.936ZM145.411 77.288C143.411 77.288 141.947 76.528 141.019 75.008C140.107 73.488 139.651 71.36 139.651 68.624C139.651 65.888 140.107 63.76 141.019 62.24C141.947 60.72 143.411 59.96 145.411 59.96C147.411 59.96 148.867 60.72 149.779 62.24C150.707 63.76 151.171 65.888 151.171 68.624C151.171 71.36 150.707 73.488 149.779 75.008C148.867 76.528 147.411 77.288 145.411 77.288ZM145.411 75.536C146.067 75.536 146.627 75.4 147.091 75.128C147.555 74.856 147.931 74.472 148.219 73.976C148.507 73.48 148.715 72.896 148.843 72.224C148.987 71.552 149.059 70.808 149.059 69.992V67.256C149.059 66.44 148.987 65.696 148.843 65.024C148.715 64.352 148.507 63.768 148.219 63.272C147.931 62.776 147.555 62.392 147.091 62.12C146.627 61.848 146.067 61.712 145.411 61.712C144.755 61.712 144.195 61.848 143.731 62.12C143.267 62.392 142.891 62.776 142.603 63.272C142.315 63.768 142.099 64.352 141.955 65.024C141.827 65.696 141.763 66.44 141.763 67.256V69.992C141.763 70.808 141.827 71.552 141.955 72.224C142.099 72.896 142.315 73.48 142.603 73.976C142.891 74.472 143.267 74.856 143.731 75.128C144.195 75.4 144.755 75.536 145.411 75.536ZM155.866 77.288C155.354 77.288 154.978 77.16 154.738 76.904C154.514 76.648 154.402 76.312 154.402 75.896V75.584C154.402 75.168 154.514 74.832 154.738 74.576C154.978 74.32 155.354 74.192 155.866 74.192C156.378 74.192 156.746 74.32 156.97 74.576C157.21 74.832 157.33 75.168 157.33 75.584V75.896C157.33 76.312 157.21 76.648 156.97 76.904C156.746 77.16 156.378 77.288 155.866 77.288ZM166.341 77.288C165.381 77.288 164.541 77.168 163.821 76.928C163.101 76.672 162.493 76.328 161.997 75.896C161.517 75.464 161.149 74.952 160.893 74.36C160.653 73.768 160.533 73.128 160.533 72.44C160.533 71.288 160.845 70.376 161.469 69.704C162.093 69.032 162.909 68.56 163.917 68.288V68.096C163.037 67.792 162.333 67.304 161.805 66.632C161.293 65.944 161.037 65.12 161.037 64.16C161.037 62.88 161.501 61.864 162.429 61.112C163.357 60.344 164.661 59.96 166.341 59.96C168.021 59.96 169.325 60.344 170.253 61.112C171.181 61.864 171.645 62.88 171.645 64.16C171.645 65.12 171.381 65.944 170.853 66.632C170.341 67.304 169.645 67.792 168.765 68.096V68.288C169.773 68.56 170.589 69.032 171.213 69.704C171.837 70.376 172.149 71.288 172.149 72.44C172.149 73.128 172.021 73.768 171.765 74.36C171.525 74.952 171.157 75.464 170.661 75.896C170.181 76.328 169.581 76.672 168.861 76.928C168.141 77.168 167.301 77.288 166.341 77.288ZM166.341 75.536C167.509 75.536 168.413 75.28 169.053 74.768C169.693 74.24 170.013 73.496 170.013 72.536V72.032C170.013 71.072 169.693 70.336 169.053 69.824C168.413 69.296 167.509 69.032 166.341 69.032C165.173 69.032 164.269 69.296 163.629 69.824C162.989 70.336 162.669 71.072 162.669 72.032V72.536C162.669 73.496 162.989 74.24 163.629 74.768C164.269 75.28 165.173 75.536 166.341 75.536ZM166.341 67.352C167.397 67.352 168.197 67.128 168.741 66.68C169.285 66.232 169.557 65.576 169.557 64.712V64.352C169.557 63.488 169.285 62.832 168.741 62.384C168.197 61.936 167.397 61.712 166.341 61.712C165.285 61.712 164.485 61.936 163.941 62.384C163.397 62.832 163.125 63.488 163.125 64.352V64.712C163.125 65.576 163.397 66.232 163.941 66.68C164.485 67.128 165.285 67.352 166.341 67.352ZM176.795 77.288C176.283 77.288 175.907 77.16 175.667 76.904C175.443 76.648 175.331 76.312 175.331 75.896V75.584C175.331 75.168 175.443 74.832 175.667 74.576C175.907 74.32 176.283 74.192 176.795 74.192C177.307 74.192 177.675 74.32 177.899 74.576C178.139 74.832 178.259 75.168 178.259 75.584V75.896C178.259 76.312 178.139 76.648 177.899 76.904C177.675 77.16 177.307 77.288 176.795 77.288ZM192.862 77H181.87V74.936L187.342 69.896C188.126 69.176 188.782 68.416 189.31 67.616C189.838 66.8 190.102 65.984 190.102 65.168V64.88C190.102 63.952 189.846 63.2 189.334 62.624C188.822 62.048 188.046 61.76 187.006 61.76C186.494 61.76 186.046 61.832 185.662 61.976C185.278 62.12 184.942 62.32 184.654 62.576C184.382 62.832 184.15 63.136 183.958 63.488C183.782 63.824 183.638 64.192 183.526 64.592L181.726 63.896C181.886 63.4 182.102 62.92 182.374 62.456C182.662 61.976 183.014 61.552 183.43 61.184C183.862 60.816 184.374 60.52 184.966 60.296C185.574 60.072 186.286 59.96 187.102 59.96C187.918 59.96 188.646 60.08 189.286 60.32C189.926 60.56 190.462 60.896 190.894 61.328C191.326 61.76 191.654 62.272 191.878 62.864C192.118 63.456 192.238 64.112 192.238 64.832C192.238 65.488 192.142 66.096 191.95 66.656C191.774 67.216 191.526 67.752 191.206 68.264C190.886 68.76 190.494 69.248 190.03 69.728C189.582 70.208 189.094 70.688 188.566 71.168L184.054 75.224H192.862V77ZM12.792 109H1.8V106.936L7.272 101.896C8.056 101.176 8.712 100.416 9.24 99.616C9.768 98.8 10.032 97.984 10.032 97.168V96.88C10.032 95.952 9.776 95.2 9.264 94.624C8.752 94.048 7.976 93.76 6.936 93.76C6.424 93.76 5.976 93.832 5.592 93.976C5.208 94.12 4.872 94.32 4.584 94.576C4.312 94.832 4.08 95.136 3.888 95.488C3.712 95.824 3.568 96.192 3.456 96.592L1.656 95.896C1.816 95.4 2.032 94.92 2.304 94.456C2.592 93.976 2.944 93.552 3.36 93.184C3.792 92.816 4.304 92.52 4.896 92.296C5.504 92.072 6.216 91.96 7.032 91.96C7.848 91.96 8.576 92.08 9.216 92.32C9.856 92.56 10.392 92.896 10.824 93.328C11.256 93.76 11.584 94.272 11.808 94.864C12.048 95.456 12.168 96.112 12.168 96.832C12.168 97.488 12.072 98.096 11.88 98.656C11.704 99.216 11.456 99.752 11.136 100.264C10.816 100.76 10.424 101.248 9.96 101.728C9.512 102.208 9.024 102.688 8.496 103.168L3.984 107.224H12.792V109ZM22.1025 109V96.616H24.0225V98.632H24.1185C24.4225 97.928 24.8465 97.368 25.3905 96.952C25.9505 96.536 26.6945 96.328 27.6225 96.328C28.9025 96.328 29.9105 96.744 30.6465 97.576C31.3985 98.392 31.7745 99.552 31.7745 101.056V109H29.8545V101.392C29.8545 99.168 28.9185 98.056 27.0465 98.056C26.6625 98.056 26.2865 98.104 25.9185 98.2C25.5665 98.296 25.2465 98.44 24.9585 98.632C24.6705 98.824 24.4385 99.072 24.2625 99.376C24.1025 99.664 24.0225 100.008 24.0225 100.408V109H22.1025ZM40.3991 109.288C39.5511 109.288 38.7831 109.136 38.0951 108.832C37.4231 108.528 36.8391 108.096 36.3431 107.536C35.8631 106.96 35.4871 106.28 35.2151 105.496C34.9591 104.696 34.8311 103.8 34.8311 102.808C34.8311 101.832 34.9591 100.944 35.2151 100.144C35.4871 99.344 35.8631 98.664 36.3431 98.104C36.8391 97.528 37.4231 97.088 38.0951 96.784C38.7831 96.48 39.5511 96.328 40.3991 96.328C41.2311 96.328 41.9751 96.48 42.6311 96.784C43.2871 97.088 43.8471 97.512 44.3111 98.056C44.7751 98.584 45.1271 99.216 45.3671 99.952C45.6231 100.688 45.7511 101.496 45.7511 102.376V103.288H36.8471V103.864C36.8471 104.392 36.9271 104.888 37.0871 105.352C37.2631 105.8 37.5031 106.192 37.8071 106.528C38.1271 106.864 38.5111 107.128 38.9591 107.32C39.4231 107.512 39.9431 107.608 40.5191 107.608C41.3031 107.608 41.9831 107.424 42.5591 107.056C43.1511 106.688 43.6071 106.16 43.9271 105.472L45.2951 106.456C44.8951 107.304 44.2711 107.992 43.4231 108.52C42.5751 109.032 41.5671 109.288 40.3991 109.288ZM40.3991 97.936C39.8711 97.936 39.3911 98.032 38.9591 98.224C38.5271 98.4 38.1511 98.656 37.8311 98.992C37.5271 99.328 37.2871 99.728 37.1111 100.192C36.9351 100.64 36.8471 101.136 36.8471 101.68V101.848H43.6871V101.584C43.6871 100.48 43.3831 99.6 42.7751 98.944C42.1831 98.272 41.3911 97.936 40.3991 97.936ZM47.5018 96.616H49.3738L50.6938 101.968L52.0138 107.392H52.0618L53.5738 101.968L55.1338 96.616H56.8378L58.4458 101.968L59.9818 107.392H60.0298L61.3018 101.968L62.6458 96.616H64.4458L61.1578 109H58.7818L57.0538 103.048L55.9738 99.28H55.9258L54.8698 103.048L53.1418 109H50.8138L47.5018 96.616ZM72.8916 109V96.616H74.8116V98.632H74.9076C75.0516 98.312 75.2116 98.016 75.3876 97.744C75.5796 97.456 75.8036 97.208 76.0596 97C76.3316 96.792 76.6436 96.632 76.9956 96.52C77.3476 96.392 77.7636 96.328 78.2436 96.328C79.0596 96.328 79.8116 96.528 80.4996 96.928C81.1876 97.312 81.6996 97.952 82.0356 98.848H82.0836C82.3076 98.176 82.7236 97.592 83.3316 97.096C83.9556 96.584 84.7956 96.328 85.8516 96.328C87.1156 96.328 88.0996 96.744 88.8036 97.576C89.5236 98.392 89.8836 99.552 89.8836 101.056V109H87.9636V101.392C87.9636 100.288 87.7476 99.456 87.3156 98.896C86.8836 98.336 86.1956 98.056 85.2516 98.056C84.8676 98.056 84.4996 98.104 84.1476 98.2C83.8116 98.296 83.5076 98.44 83.2356 98.632C82.9636 98.824 82.7476 99.072 82.5876 99.376C82.4276 99.664 82.3476 100.008 82.3476 100.408V109H80.4276V101.392C80.4276 100.288 80.2116 99.456 79.7796 98.896C79.3476 98.336 78.6756 98.056 77.7636 98.056C77.3796 98.056 77.0116 98.104 76.6596 98.2C76.3076 98.296 75.9956 98.44 75.7236 98.632C75.4516 98.824 75.2276 99.072 75.0516 99.376C74.8916 99.664 74.8116 100.008 74.8116 100.408V109H72.8916ZM94.8047 93.712C94.3887 93.712 94.0847 93.616 93.8927 93.424C93.7167 93.216 93.6287 92.952 93.6287 92.632V92.32C93.6287 92 93.7167 91.744 93.8927 91.552C94.0847 91.344 94.3887 91.24 94.8047 91.24C95.2207 91.24 95.5167 91.344 95.6927 91.552C95.8847 91.744 95.9807 92 95.9807 92.32V92.632C95.9807 92.952 95.8847 93.216 95.6927 93.424C95.5167 93.616 95.2207 93.712 94.8047 93.712ZM93.8447 96.616H95.7647V109H93.8447V96.616ZM99.8447 109V96.616H101.765V98.632H101.861C102.165 97.928 102.589 97.368 103.133 96.952C103.693 96.536 104.437 96.328 105.365 96.328C106.645 96.328 107.653 96.744 108.389 97.576C109.141 98.392 109.517 99.552 109.517 101.056V109H107.597V101.392C107.597 99.168 106.661 98.056 104.789 98.056C104.405 98.056 104.029 98.104 103.661 98.2C103.309 98.296 102.989 98.44 102.701 98.632C102.413 98.824 102.181 99.072 102.005 99.376C101.845 99.664 101.765 100.008 101.765 100.408V109H99.8447ZM114.445 93.712C114.029 93.712 113.725 93.616 113.533 93.424C113.357 93.216 113.269 92.952 113.269 92.632V92.32C113.269 92 113.357 91.744 113.533 91.552C113.725 91.344 114.029 91.24 114.445 91.24C114.861 91.24 115.157 91.344 115.333 91.552C115.525 91.744 115.621 92 115.621 92.32V92.632C115.621 92.952 115.525 93.216 115.333 93.424C115.157 93.616 114.861 93.712 114.445 93.712ZM113.485 96.616H115.405V109H113.485V96.616ZM129.925 110.368C129.925 111.648 129.421 112.584 128.413 113.176C127.421 113.784 125.925 114.088 123.925 114.088C121.989 114.088 120.597 113.824 119.749 113.296C118.901 112.768 118.477 112.016 118.477 111.04C118.477 110.368 118.653 109.84 119.005 109.456C119.357 109.088 119.837 108.816 120.445 108.64V108.376C119.709 108.024 119.341 107.448 119.341 106.648C119.341 106.024 119.541 105.552 119.941 105.232C120.341 104.896 120.853 104.648 121.477 104.488V104.392C120.741 104.04 120.165 103.536 119.749 102.88C119.349 102.224 119.149 101.464 119.149 100.6C119.149 99.976 119.261 99.4 119.485 98.872C119.709 98.344 120.021 97.896 120.421 97.528C120.837 97.144 121.325 96.848 121.885 96.64C122.461 96.432 123.101 96.328 123.805 96.328C124.685 96.328 125.469 96.488 126.157 96.808V96.592C126.157 96.112 126.269 95.72 126.493 95.416C126.717 95.096 127.085 94.936 127.597 94.936H129.445V96.616H127.093V97.408C127.541 97.792 127.885 98.256 128.125 98.8C128.381 99.328 128.509 99.928 128.509 100.6C128.509 101.224 128.397 101.8 128.173 102.328C127.949 102.856 127.629 103.312 127.213 103.696C126.813 104.064 126.325 104.352 125.749 104.56C125.173 104.768 124.533 104.872 123.829 104.872C123.429 104.872 123.029 104.832 122.629 104.752C122.213 104.864 121.837 105.032 121.501 105.256C121.165 105.464 120.997 105.76 120.997 106.144C120.997 106.512 121.173 106.76 121.525 106.888C121.877 107.016 122.333 107.08 122.893 107.08H125.533C127.069 107.08 128.181 107.376 128.869 107.968C129.573 108.544 129.925 109.344 129.925 110.368ZM128.125 110.512C128.125 110.016 127.933 109.616 127.549 109.312C127.181 109.024 126.517 108.88 125.557 108.88H121.429C120.661 109.232 120.277 109.792 120.277 110.56C120.277 111.104 120.477 111.568 120.877 111.952C121.293 112.336 121.989 112.528 122.965 112.528H124.741C125.813 112.528 126.645 112.36 127.237 112.024C127.829 111.688 128.125 111.184 128.125 110.512ZM123.829 103.336C124.645 103.336 125.293 103.144 125.773 102.76C126.253 102.36 126.493 101.752 126.493 100.936V100.264C126.493 99.448 126.253 98.848 125.773 98.464C125.293 98.064 124.645 97.864 123.829 97.864C123.013 97.864 122.365 98.064 121.885 98.464C121.405 98.848 121.165 99.448 121.165 100.264V100.936C121.165 101.752 121.405 102.36 121.885 102.76C122.365 103.144 123.013 103.336 123.829 103.336ZM141.095 109C140.375 109 139.855 108.808 139.535 108.424C139.231 108.04 139.039 107.56 138.959 106.984H138.839C138.567 107.752 138.119 108.328 137.495 108.712C136.871 109.096 136.127 109.288 135.263 109.288C133.951 109.288 132.927 108.952 132.191 108.28C131.471 107.608 131.111 106.696 131.111 105.544C131.111 104.376 131.535 103.48 132.383 102.856C133.247 102.232 134.583 101.92 136.391 101.92H138.839V100.696C138.839 99.816 138.599 99.144 138.119 98.68C137.639 98.216 136.903 97.984 135.911 97.984C135.159 97.984 134.527 98.152 134.015 98.488C133.519 98.824 133.103 99.272 132.767 99.832L131.615 98.752C131.951 98.08 132.487 97.512 133.223 97.048C133.959 96.568 134.887 96.328 136.007 96.328C137.511 96.328 138.679 96.696 139.511 97.432C140.343 98.168 140.759 99.192 140.759 100.504V107.32H142.175V109H141.095ZM135.575 107.656C136.055 107.656 136.495 107.6 136.895 107.488C137.295 107.376 137.639 107.216 137.927 107.008C138.215 106.8 138.439 106.56 138.599 106.288C138.759 106.016 138.839 105.72 138.839 105.4V103.36H136.295C135.191 103.36 134.383 103.52 133.871 103.84C133.375 104.16 133.127 104.624 133.127 105.232V105.736C133.127 106.344 133.343 106.816 133.775 107.152C134.223 107.488 134.823 107.656 135.575 107.656ZM144.915 109V96.616H146.835V98.632H146.931C147.075 98.312 147.235 98.016 147.411 97.744C147.603 97.456 147.827 97.208 148.083 97C148.355 96.792 148.667 96.632 149.019 96.52C149.371 96.392 149.787 96.328 150.267 96.328C151.083 96.328 151.835 96.528 152.523 96.928C153.211 97.312 153.723 97.952 154.059 98.848H154.107C154.331 98.176 154.747 97.592 155.355 97.096C155.979 96.584 156.819 96.328 157.875 96.328C159.139 96.328 160.123 96.744 160.827 97.576C161.547 98.392 161.907 99.552 161.907 101.056V109H159.987V101.392C159.987 100.288 159.771 99.456 159.339 98.896C158.907 98.336 158.219 98.056 157.275 98.056C156.891 98.056 156.523 98.104 156.171 98.2C155.835 98.296 155.531 98.44 155.259 98.632C154.987 98.824 154.771 99.072 154.611 99.376C154.451 99.664 154.371 100.008 154.371 100.408V109H152.451V101.392C152.451 100.288 152.235 99.456 151.803 98.896C151.371 98.336 150.699 98.056 149.787 98.056C149.403 98.056 149.035 98.104 148.683 98.2C148.331 98.296 148.019 98.44 147.747 98.632C147.475 98.824 147.251 99.072 147.075 99.376C146.915 99.664 146.835 100.008 146.835 100.408V109H144.915ZM170.524 109.288C169.676 109.288 168.908 109.136 168.22 108.832C167.548 108.528 166.964 108.096 166.468 107.536C165.988 106.96 165.612 106.28 165.34 105.496C165.084 104.696 164.956 103.8 164.956 102.808C164.956 101.832 165.084 100.944 165.34 100.144C165.612 99.344 165.988 98.664 166.468 98.104C166.964 97.528 167.548 97.088 168.22 96.784C168.908 96.48 169.676 96.328 170.524 96.328C171.356 96.328 172.1 96.48 172.756 96.784C173.412 97.088 173.972 97.512 174.436 98.056C174.9 98.584 175.252 99.216 175.492 99.952C175.748 100.688 175.876 101.496 175.876 102.376V103.288H166.972V103.864C166.972 104.392 167.052 104.888 167.212 105.352C167.388 105.8 167.628 106.192 167.932 106.528C168.252 106.864 168.636 107.128 169.084 107.32C169.548 107.512 170.068 107.608 170.644 107.608C171.428 107.608 172.108 107.424 172.684 107.056C173.276 106.688 173.732 106.16 174.052 105.472L175.42 106.456C175.02 107.304 174.396 107.992 173.548 108.52C172.7 109.032 171.692 109.288 170.524 109.288ZM170.524 97.936C169.996 97.936 169.516 98.032 169.084 98.224C168.652 98.4 168.276 98.656 167.956 98.992C167.652 99.328 167.412 99.728 167.236 100.192C167.06 100.64 166.972 101.136 166.972 101.68V101.848H173.812V101.584C173.812 100.48 173.508 99.6 172.9 98.944C172.308 98.272 171.516 97.936 170.524 97.936ZM182.76 109.288C181.608 109.288 180.64 109.072 179.856 108.64C179.088 108.192 178.424 107.6 177.864 106.864L179.232 105.76C179.712 106.368 180.248 106.84 180.84 107.176C181.432 107.496 182.12 107.656 182.904 107.656C183.72 107.656 184.352 107.48 184.8 107.128C185.264 106.776 185.496 106.28 185.496 105.64C185.496 105.16 185.336 104.752 185.016 104.416C184.712 104.064 184.152 103.824 183.336 103.696L182.352 103.552C181.776 103.472 181.248 103.352 180.768 103.192C180.288 103.016 179.864 102.792 179.496 102.52C179.144 102.232 178.864 101.88 178.656 101.464C178.464 101.048 178.368 100.552 178.368 99.976C178.368 99.368 178.48 98.84 178.704 98.392C178.928 97.928 179.232 97.544 179.616 97.24C180.016 96.936 180.488 96.712 181.032 96.568C181.576 96.408 182.16 96.328 182.784 96.328C183.792 96.328 184.632 96.504 185.304 96.856C185.992 97.208 186.592 97.696 187.104 98.32L185.832 99.472C185.56 99.088 185.16 98.744 184.632 98.44C184.104 98.12 183.44 97.96 182.64 97.96C181.84 97.96 181.232 98.136 180.816 98.488C180.416 98.824 180.216 99.288 180.216 99.88C180.216 100.488 180.416 100.928 180.816 101.2C181.232 101.472 181.824 101.672 182.592 101.8L183.552 101.944C184.928 102.152 185.904 102.552 186.48 103.144C187.056 103.72 187.344 104.48 187.344 105.424C187.344 106.624 186.936 107.568 186.12 108.256C185.304 108.944 184.184 109.288 182.76 109.288ZM191.842 106.192C192.354 106.192 192.722 106.328 192.946 106.6C193.186 106.856 193.306 107.192 193.306 107.608V107.944C193.306 108.6 193.114 109.32 192.73 110.104C192.346 110.904 191.81 111.6 191.122 112.192H189.514C189.994 111.68 190.378 111.192 190.666 110.728C190.97 110.28 191.186 109.776 191.314 109.216C190.994 109.136 190.754 108.984 190.594 108.76C190.45 108.536 190.378 108.264 190.378 107.944V107.608C190.378 107.192 190.49 106.856 190.714 106.6C190.954 106.328 191.33 106.192 191.842 106.192ZM205.565 109C204.893 109 204.381 108.816 204.029 108.448C203.693 108.064 203.525 107.568 203.525 106.96V98.296H201.485V96.616H202.637C203.053 96.616 203.333 96.536 203.477 96.376C203.637 96.2 203.717 95.904 203.717 95.488V93.184H205.445V96.616H208.157V98.296H205.445V107.32H207.965V109H205.565ZM220.243 109C219.523 109 219.003 108.808 218.683 108.424C218.379 108.04 218.187 107.56 218.107 106.984H217.987C217.715 107.752 217.267 108.328 216.643 108.712C216.019 109.096 215.275 109.288 214.411 109.288C213.099 109.288 212.075 108.952 211.339 108.28C210.619 107.608 210.259 106.696 210.259 105.544C210.259 104.376 210.683 103.48 211.531 102.856C212.395 102.232 213.731 101.92 215.539 101.92H217.987V100.696C217.987 99.816 217.747 99.144 217.267 98.68C216.787 98.216 216.051 97.984 215.059 97.984C214.307 97.984 213.675 98.152 213.163 98.488C212.667 98.824 212.251 99.272 211.915 99.832L210.763 98.752C211.099 98.08 211.635 97.512 212.371 97.048C213.107 96.568 214.035 96.328 215.155 96.328C216.659 96.328 217.827 96.696 218.659 97.432C219.491 98.168 219.907 99.192 219.907 100.504V107.32H221.323V109H220.243ZM214.723 107.656C215.203 107.656 215.643 107.6 216.043 107.488C216.443 107.376 216.787 107.216 217.075 107.008C217.363 106.8 217.587 106.56 217.747 106.288C217.907 106.016 217.987 105.72 217.987 105.4V103.36H215.443C214.339 103.36 213.531 103.52 213.019 103.84C212.523 104.16 212.275 104.624 212.275 105.232V105.736C212.275 106.344 212.491 106.816 212.923 107.152C213.371 107.488 213.971 107.656 214.723 107.656ZM227.783 109.288C226.631 109.288 225.663 109.072 224.879 108.64C224.111 108.192 223.447 107.6 222.887 106.864L224.255 105.76C224.735 106.368 225.271 106.84 225.863 107.176C226.455 107.496 227.143 107.656 227.927 107.656C228.743 107.656 229.375 107.48 229.823 107.128C230.287 106.776 230.519 106.28 230.519 105.64C230.519 105.16 230.359 104.752 230.039 104.416C229.735 104.064 229.175 103.824 228.359 103.696L227.375 103.552C226.799 103.472 226.271 103.352 225.791 103.192C225.311 103.016 224.887 102.792 224.519 102.52C224.167 102.232 223.887 101.88 223.679 101.464C223.487 101.048 223.391 100.552 223.391 99.976C223.391 99.368 223.503 98.84 223.727 98.392C223.951 97.928 224.255 97.544 224.639 97.24C225.039 96.936 225.511 96.712 226.055 96.568C226.599 96.408 227.183 96.328 227.807 96.328C228.815 96.328 229.655 96.504 230.327 96.856C231.015 97.208 231.615 97.696 232.127 98.32L230.855 99.472C230.583 99.088 230.183 98.744 229.655 98.44C229.127 98.12 228.463 97.96 227.663 97.96C226.863 97.96 226.255 98.136 225.839 98.488C225.439 98.824 225.239 99.288 225.239 99.88C225.239 100.488 225.439 100.928 225.839 101.2C226.255 101.472 226.847 101.672 227.615 101.8L228.575 101.944C229.951 102.152 230.927 102.552 231.503 103.144C232.079 103.72 232.367 104.48 232.367 105.424C232.367 106.624 231.959 107.568 231.143 108.256C230.327 108.944 229.207 109.288 227.783 109.288ZM235.759 91.24H237.679V102.496H237.775L239.671 100.384L243.175 96.616H245.503L240.919 101.512L245.959 109H243.631L239.527 102.688L237.679 104.584V109H235.759V91.24ZM2.04 128.616H3.96V130.632H4.056C4.376 129.848 4.84 129.272 5.448 128.904C6.072 128.52 6.816 128.328 7.68 128.328C8.448 128.328 9.144 128.48 9.768 128.784C10.392 129.088 10.92 129.52 11.352 130.08C11.8 130.64 12.136 131.32 12.36 132.12C12.6 132.92 12.72 133.816 12.72 134.808C12.72 135.8 12.6 136.696 12.36 137.496C12.136 138.296 11.8 138.976 11.352 139.536C10.92 140.096 10.392 140.528 9.768 140.832C9.144 141.136 8.448 141.288 7.68 141.288C6 141.288 4.792 140.52 4.056 138.984H3.96V145.8H2.04V128.616ZM7.152 139.56C8.24 139.56 9.096 139.224 9.72 138.552C10.344 137.864 10.656 136.968 10.656 135.864V133.752C10.656 132.648 10.344 131.76 9.72 131.088C9.096 130.4 8.24 130.056 7.152 130.056C6.72 130.056 6.304 130.12 5.904 130.248C5.52 130.36 5.184 130.52 4.896 130.728C4.608 130.936 4.376 131.192 4.2 131.496C4.04 131.784 3.96 132.096 3.96 132.432V137.04C3.96 137.44 4.04 137.8 4.2 138.12C4.376 138.424 4.608 138.688 4.896 138.912C5.184 139.12 5.52 139.28 5.904 139.392C6.304 139.504 6.72 139.56 7.152 139.56ZM15.9619 141V128.616H17.8819V130.896H18.0019C18.2259 130.304 18.6259 129.776 19.2019 129.312C19.7779 128.848 20.5699 128.616 21.5779 128.616H22.3219V130.536H21.1939C20.1539 130.536 19.3379 130.736 18.7459 131.136C18.1699 131.52 17.8819 132.008 17.8819 132.6V141H15.9619ZM25.7344 125.712C25.3184 125.712 25.0144 125.616 24.8224 125.424C24.6464 125.216 24.5584 124.952 24.5584 124.632V124.32C24.5584 124 24.6464 123.744 24.8224 123.552C25.0144 123.344 25.3184 123.24 25.7344 123.24C26.1504 123.24 26.4464 123.344 26.6224 123.552C26.8144 123.744 26.9104 124 26.9104 124.32V124.632C26.9104 124.952 26.8144 125.216 26.6224 125.424C26.4464 125.616 26.1504 125.712 25.7344 125.712ZM24.7744 128.616H26.6944V141H24.7744V128.616ZM35.4544 141.288C34.6224 141.288 33.8624 141.136 33.1744 140.832C32.4864 140.528 31.8944 140.096 31.3984 139.536C30.9184 138.96 30.5424 138.28 30.2704 137.496C29.9984 136.696 29.8624 135.8 29.8624 134.808C29.8624 133.832 29.9984 132.944 30.2704 132.144C30.5424 131.344 30.9184 130.664 31.3984 130.104C31.8944 129.528 32.4864 129.088 33.1744 128.784C33.8624 128.48 34.6224 128.328 35.4544 128.328C36.2864 128.328 37.0384 128.48 37.7104 128.784C38.3984 129.088 38.9904 129.528 39.4864 130.104C39.9824 130.664 40.3664 131.344 40.6384 132.144C40.9104 132.944 41.0464 133.832 41.0464 134.808C41.0464 135.8 40.9104 136.696 40.6384 137.496C40.3664 138.28 39.9824 138.96 39.4864 139.536C38.9904 140.096 38.3984 140.528 37.7104 140.832C37.0384 141.136 36.2864 141.288 35.4544 141.288ZM35.4544 139.584C36.4944 139.584 37.3424 139.264 37.9984 138.624C38.6544 137.984 38.9824 137.008 38.9824 135.696V133.92C38.9824 132.608 38.6544 131.632 37.9984 130.992C37.3424 130.352 36.4944 130.032 35.4544 130.032C34.4144 130.032 33.5664 130.352 32.9104 130.992C32.2544 131.632 31.9264 132.608 31.9264 133.92V135.696C31.9264 137.008 32.2544 137.984 32.9104 138.624C33.5664 139.264 34.4144 139.584 35.4544 139.584ZM44.2041 141V128.616H46.1241V130.896H46.2441C46.4681 130.304 46.8681 129.776 47.4441 129.312C48.0201 128.848 48.8121 128.616 49.8201 128.616H50.5641V130.536H49.4361C48.3961 130.536 47.5801 130.736 46.9881 131.136C46.4121 131.52 46.1241 132.008 46.1241 132.6V141H44.2041ZM53.9766 125.712C53.5606 125.712 53.2566 125.616 53.0646 125.424C52.8886 125.216 52.8006 124.952 52.8006 124.632V124.32C52.8006 124 52.8886 123.744 53.0646 123.552C53.2566 123.344 53.5606 123.24 53.9766 123.24C54.3926 123.24 54.6886 123.344 54.8646 123.552C55.0566 123.744 55.1526 124 55.1526 124.32V124.632C55.1526 124.952 55.0566 125.216 54.8646 125.424C54.6886 125.616 54.3926 125.712 53.9766 125.712ZM53.0166 128.616H54.9366V141H53.0166V128.616ZM61.7526 141C61.0806 141 60.5686 140.816 60.2166 140.448C59.8806 140.064 59.7126 139.568 59.7126 138.96V130.296H57.6726V128.616H58.8246C59.2406 128.616 59.5206 128.536 59.6646 128.376C59.8246 128.2 59.9046 127.904 59.9046 127.488V125.184H61.6326V128.616H64.3446V130.296H61.6326V139.32H64.1526V141H61.7526ZM75.0626 128.616H76.9586L71.4146 143.88C71.2706 144.248 71.1266 144.552 70.9826 144.792C70.8386 145.048 70.6626 145.248 70.4546 145.392C70.2466 145.536 69.9826 145.64 69.6626 145.704C69.3586 145.768 68.9826 145.8 68.5346 145.8H67.5506V144.12H69.4946L70.4306 141.48L65.7986 128.616H67.7186L70.6946 137.04L71.2706 139.056H71.3906L72.0626 137.04L75.0626 128.616ZM94.0791 141C93.3591 141 92.8391 140.808 92.5191 140.424C92.2151 140.04 92.0231 139.56 91.9431 138.984H91.8231C91.5511 139.752 91.1031 140.328 90.4791 140.712C89.8551 141.096 89.1111 141.288 88.2471 141.288C86.9351 141.288 85.9111 140.952 85.1751 140.28C84.4551 139.608 84.0951 138.696 84.0951 137.544C84.0951 136.376 84.5191 135.48 85.3671 134.856C86.2311 134.232 87.5671 133.92 89.3751 133.92H91.8231V132.696C91.8231 131.816 91.5831 131.144 91.1031 130.68C90.6231 130.216 89.8871 129.984 88.8951 129.984C88.1431 129.984 87.5111 130.152 86.9991 130.488C86.5031 130.824 86.0871 131.272 85.7511 131.832L84.5991 130.752C84.9351 130.08 85.4711 129.512 86.2071 129.048C86.9431 128.568 87.8711 128.328 88.9911 128.328C90.4951 128.328 91.6631 128.696 92.4951 129.432C93.3271 130.168 93.7431 131.192 93.7431 132.504V139.32H95.1591V141H94.0791ZM88.5591 139.656C89.0391 139.656 89.4791 139.6 89.8791 139.488C90.2791 139.376 90.6231 139.216 90.9111 139.008C91.1991 138.8 91.4231 138.56 91.5831 138.288C91.7431 138.016 91.8231 137.72 91.8231 137.4V135.36H89.2791C88.1751 135.36 87.3671 135.52 86.8551 135.84C86.3591 136.16 86.1111 136.624 86.1111 137.232V137.736C86.1111 138.344 86.3271 138.816 86.7591 139.152C87.2071 139.488 87.8071 139.656 88.5591 139.656ZM99.9394 141C99.2674 141 98.7554 140.816 98.4034 140.448C98.0674 140.064 97.8994 139.584 97.8994 139.008V123.24H99.8194V139.32H101.643V141H99.9394ZM114.878 142.368C114.878 143.648 114.374 144.584 113.366 145.176C112.374 145.784 110.878 146.088 108.878 146.088C106.942 146.088 105.55 145.824 104.702 145.296C103.854 144.768 103.43 144.016 103.43 143.04C103.43 142.368 103.606 141.84 103.958 141.456C104.31 141.088 104.79 140.816 105.398 140.64V140.376C104.662 140.024 104.294 139.448 104.294 138.648C104.294 138.024 104.494 137.552 104.894 137.232C105.294 136.896 105.806 136.648 106.43 136.488V136.392C105.694 136.04 105.118 135.536 104.702 134.88C104.302 134.224 104.102 133.464 104.102 132.6C104.102 131.976 104.214 131.4 104.438 130.872C104.662 130.344 104.974 129.896 105.374 129.528C105.79 129.144 106.278 128.848 106.838 128.64C107.414 128.432 108.054 128.328 108.758 128.328C109.638 128.328 110.422 128.488 111.11 128.808V128.592C111.11 128.112 111.222 127.72 111.446 127.416C111.67 127.096 112.038 126.936 112.55 126.936H114.398V128.616H112.046V129.408C112.494 129.792 112.838 130.256 113.078 130.8C113.334 131.328 113.462 131.928 113.462 132.6C113.462 133.224 113.35 133.8 113.126 134.328C112.902 134.856 112.582 135.312 112.166 135.696C111.766 136.064 111.278 136.352 110.702 136.56C110.126 136.768 109.486 136.872 108.782 136.872C108.382 136.872 107.982 136.832 107.582 136.752C107.166 136.864 106.79 137.032 106.454 137.256C106.118 137.464 105.95 137.76 105.95 138.144C105.95 138.512 106.126 138.76 106.478 138.888C106.83 139.016 107.286 139.08 107.846 139.08H110.486C112.022 139.08 113.134 139.376 113.822 139.968C114.526 140.544 114.878 141.344 114.878 142.368ZM113.078 142.512C113.078 142.016 112.886 141.616 112.502 141.312C112.134 141.024 111.47 140.88 110.51 140.88H106.382C105.614 141.232 105.23 141.792 105.23 142.56C105.23 143.104 105.43 143.568 105.83 143.952C106.246 144.336 106.942 144.528 107.918 144.528H109.694C110.766 144.528 111.598 144.36 112.19 144.024C112.782 143.688 113.078 143.184 113.078 142.512ZM108.782 135.336C109.598 135.336 110.246 135.144 110.726 134.76C111.206 134.36 111.446 133.752 111.446 132.936V132.264C111.446 131.448 111.206 130.848 110.726 130.464C110.246 130.064 109.598 129.864 108.782 129.864C107.966 129.864 107.318 130.064 106.838 130.464C106.358 130.848 106.118 131.448 106.118 132.264V132.936C106.118 133.752 106.358 134.36 106.838 134.76C107.318 135.144 107.966 135.336 108.782 135.336ZM121.658 141.288C120.826 141.288 120.066 141.136 119.378 140.832C118.69 140.528 118.098 140.096 117.602 139.536C117.122 138.96 116.746 138.28 116.474 137.496C116.202 136.696 116.066 135.8 116.066 134.808C116.066 133.832 116.202 132.944 116.474 132.144C116.746 131.344 117.122 130.664 117.602 130.104C118.098 129.528 118.69 129.088 119.378 128.784C120.066 128.48 120.826 128.328 121.658 128.328C122.49 128.328 123.242 128.48 123.914 128.784C124.602 129.088 125.194 129.528 125.69 130.104C126.186 130.664 126.57 131.344 126.842 132.144C127.114 132.944 127.25 133.832 127.25 134.808C127.25 135.8 127.114 136.696 126.842 137.496C126.57 138.28 126.186 138.96 125.69 139.536C125.194 140.096 124.602 140.528 123.914 140.832C123.242 141.136 122.49 141.288 121.658 141.288ZM121.658 139.584C122.698 139.584 123.546 139.264 124.202 138.624C124.858 137.984 125.186 137.008 125.186 135.696V133.92C125.186 132.608 124.858 131.632 124.202 130.992C123.546 130.352 122.698 130.032 121.658 130.032C120.618 130.032 119.77 130.352 119.114 130.992C118.458 131.632 118.13 132.608 118.13 133.92V135.696C118.13 137.008 118.458 137.984 119.114 138.624C119.77 139.264 120.618 139.584 121.658 139.584ZM130.407 141V128.616H132.327V130.896H132.447C132.671 130.304 133.071 129.776 133.647 129.312C134.223 128.848 135.015 128.616 136.023 128.616H136.767V130.536H135.639C134.599 130.536 133.783 130.736 133.191 131.136C132.615 131.52 132.327 132.008 132.327 132.6V141H130.407ZM140.18 125.712C139.764 125.712 139.46 125.616 139.268 125.424C139.092 125.216 139.004 124.952 139.004 124.632V124.32C139.004 124 139.092 123.744 139.268 123.552C139.46 123.344 139.764 123.24 140.18 123.24C140.596 123.24 140.892 123.344 141.068 123.552C141.26 123.744 141.356 124 141.356 124.32V124.632C141.356 124.952 141.26 125.216 141.068 125.424C140.892 125.616 140.596 125.712 140.18 125.712ZM139.22 128.616H141.14V141H139.22V128.616ZM147.956 141C147.284 141 146.772 140.816 146.42 140.448C146.084 140.064 145.916 139.568 145.916 138.96V130.296H143.876V128.616H145.028C145.444 128.616 145.724 128.536 145.868 128.376C146.028 128.2 146.108 127.904 146.108 127.488V125.184H147.836V128.616H150.548V130.296H147.836V139.32H150.356V141H147.956ZM153.634 123.24H155.554V130.632H155.65C155.954 129.928 156.378 129.368 156.922 128.952C157.482 128.536 158.226 128.328 159.154 128.328C160.434 128.328 161.442 128.744 162.178 129.576C162.93 130.392 163.306 131.552 163.306 133.056V141H161.386V133.392C161.386 131.168 160.45 130.056 158.578 130.056C158.194 130.056 157.818 130.104 157.45 130.2C157.098 130.296 156.778 130.44 156.49 130.632C156.202 130.824 155.97 131.072 155.794 131.376C155.634 131.664 155.554 132.008 155.554 132.408V141H153.634V123.24ZM167.274 141V128.616H169.194V130.632H169.29C169.434 130.312 169.594 130.016 169.77 129.744C169.962 129.456 170.186 129.208 170.442 129C170.714 128.792 171.026 128.632 171.378 128.52C171.73 128.392 172.146 128.328 172.626 128.328C173.442 128.328 174.194 128.528 174.882 128.928C175.57 129.312 176.082 129.952 176.418 130.848H176.466C176.69 130.176 177.106 129.592 177.714 129.096C178.338 128.584 179.178 128.328 180.234 128.328C181.498 128.328 182.482 128.744 183.186 129.576C183.906 130.392 184.266 131.552 184.266 133.056V141H182.346V133.392C182.346 132.288 182.13 131.456 181.698 130.896C181.266 130.336 180.578 130.056 179.634 130.056C179.25 130.056 178.882 130.104 178.53 130.2C178.194 130.296 177.89 130.44 177.618 130.632C177.346 130.824 177.13 131.072 176.97 131.376C176.81 131.664 176.73 132.008 176.73 132.408V141H174.81V133.392C174.81 132.288 174.594 131.456 174.162 130.896C173.73 130.336 173.058 130.056 172.146 130.056C171.762 130.056 171.394 130.104 171.042 130.2C170.69 130.296 170.378 130.44 170.106 130.632C169.834 130.824 169.61 131.072 169.434 131.376C169.274 131.664 169.194 132.008 169.194 132.408V141H167.274ZM189.452 141.288C188.94 141.288 188.564 141.16 188.324 140.904C188.1 140.648 187.988 140.312 187.988 139.896V139.584C187.988 139.168 188.1 138.832 188.324 138.576C188.564 138.32 188.94 138.192 189.452 138.192C189.964 138.192 190.332 138.32 190.556 138.576C190.796 138.832 190.916 139.168 190.916 139.584V139.896C190.916 140.312 190.796 140.648 190.556 140.904C190.332 141.16 189.964 141.288 189.452 141.288ZM195.812 141.288C195.3 141.288 194.924 141.16 194.684 140.904C194.46 140.648 194.348 140.312 194.348 139.896V139.584C194.348 139.168 194.46 138.832 194.684 138.576C194.924 138.32 195.3 138.192 195.812 138.192C196.324 138.192 196.692 138.32 196.916 138.576C197.156 138.832 197.276 139.168 197.276 139.584V139.896C197.276 140.312 197.156 140.648 196.916 140.904C196.692 141.16 196.324 141.288 195.812 141.288ZM202.196 141.288C201.684 141.288 201.308 141.16 201.068 140.904C200.844 140.648 200.732 140.312 200.732 139.896V139.584C200.732 139.168 200.844 138.832 201.068 138.576C201.308 138.32 201.684 138.192 202.196 138.192C202.708 138.192 203.076 138.32 203.3 138.576C203.54 138.832 203.66 139.168 203.66 139.584V139.896C203.66 140.312 203.54 140.648 203.3 140.904C203.076 141.16 202.708 141.288 202.196 141.288Z" fill="#1E1E1E"/>
</g>
<defs>
<clipPath id="clip0_1_983">
<rect width="304" height="170" fill="white"/>
</clipPath>
</defs>
</svg>
