<svg width="304" height="170" viewBox="0 0 304 170" fill="none" xmlns="http://www.w3.org/2000/svg">
<g clip-path="url(#clip0_1_970)">
<rect width="83" height="36" rx="4" fill="#EEE5FF"/>
<path d="M11.654 17.372C12.3167 17.372 12.8113 17.2227 13.138 16.924C13.474 16.616 13.642 16.224 13.642 15.748V15.65C13.642 15.1367 13.4787 14.754 13.152 14.502C12.8347 14.2407 12.4147 14.11 11.892 14.11C11.388 14.11 10.9773 14.222 10.66 14.446C10.3427 14.6607 10.0813 14.9547 9.876 15.328L9.008 14.656C9.12933 14.46 9.274 14.2687 9.442 14.082C9.61933 13.886 9.82467 13.7133 10.058 13.564C10.2913 13.4147 10.562 13.2933 10.87 13.2C11.178 13.1067 11.528 13.06 11.92 13.06C12.3307 13.06 12.718 13.116 13.082 13.228C13.446 13.3307 13.7587 13.4893 14.02 13.704C14.2907 13.9093 14.5007 14.166 14.65 14.474C14.8087 14.782 14.888 15.132 14.888 15.524C14.888 15.8413 14.8367 16.126 14.734 16.378C14.6407 16.63 14.51 16.8493 14.342 17.036C14.174 17.2227 13.9733 17.3813 13.74 17.512C13.516 17.6427 13.2733 17.7407 13.012 17.806V17.862C13.2733 17.918 13.5253 18.0113 13.768 18.142C14.02 18.2633 14.2393 18.4267 14.426 18.632C14.622 18.828 14.776 19.0707 14.888 19.36C15.0093 19.64 15.07 19.962 15.07 20.326C15.07 20.746 14.9907 21.1333 14.832 21.488C14.6733 21.8333 14.4493 22.132 14.16 22.384C13.8707 22.6267 13.5207 22.818 13.11 22.958C12.6993 23.098 12.2467 23.168 11.752 23.168C11.332 23.168 10.9587 23.1213 10.632 23.028C10.3053 22.9347 10.016 22.8087 9.764 22.65C9.512 22.4913 9.288 22.314 9.092 22.118C8.90533 21.922 8.73733 21.7167 8.588 21.502L9.47 20.83C9.59133 21.026 9.722 21.2033 9.862 21.362C10.0113 21.5207 10.1747 21.656 10.352 21.768C10.5293 21.88 10.73 21.9687 10.954 22.034C11.178 22.09 11.4393 22.118 11.738 22.118C12.4287 22.118 12.9513 21.964 13.306 21.656C13.6607 21.3387 13.838 20.8907 13.838 20.312V20.2C13.838 19.6213 13.6607 19.178 13.306 18.87C12.9513 18.5527 12.4287 18.394 11.738 18.394H10.59V17.372H11.654ZM25.5131 21.824H25.4571C25.0185 22.72 24.3138 23.168 23.3431 23.168C22.8951 23.168 22.4891 23.0793 22.1251 22.902C21.7611 22.7247 21.4485 22.4727 21.1871 22.146C20.9351 21.8193 20.7391 21.4227 20.5991 20.956C20.4685 20.4893 20.4031 19.9667 20.4031 19.388C20.4031 18.8093 20.4685 18.2867 20.5991 17.82C20.7391 17.3533 20.9351 16.9567 21.1871 16.63C21.4485 16.3033 21.7611 16.0513 22.1251 15.874C22.4891 15.6967 22.8951 15.608 23.3431 15.608C23.8471 15.608 24.2765 15.72 24.6311 15.944C24.9951 16.1587 25.2705 16.4947 25.4571 16.952H25.5131V12.64H26.6331V23H25.5131V21.824ZM23.6511 22.16C23.9031 22.16 24.1411 22.1273 24.3651 22.062C24.5985 21.9967 24.7991 21.9033 24.9671 21.782C25.1351 21.6513 25.2658 21.4973 25.3591 21.32C25.4618 21.1333 25.5131 20.9233 25.5131 20.69V18.002C25.5131 17.806 25.4618 17.624 25.3591 17.456C25.2658 17.2787 25.1351 17.1293 24.9671 17.008C24.7991 16.8867 24.5985 16.7933 24.3651 16.728C24.1411 16.6533 23.9031 16.616 23.6511 16.616C23.0165 16.616 22.5171 16.8167 22.1531 17.218C21.7891 17.61 21.6071 18.128 21.6071 18.772V20.004C21.6071 20.648 21.7891 21.1707 22.1531 21.572C22.5171 21.964 23.0165 22.16 23.6511 22.16ZM34.2642 23C33.8442 23 33.5409 22.888 33.3542 22.664C33.1769 22.44 33.0649 22.16 33.0182 21.824H32.9482C32.7896 22.272 32.5282 22.608 32.1642 22.832C31.8002 23.056 31.3662 23.168 30.8622 23.168C30.0969 23.168 29.4996 22.972 29.0702 22.58C28.6502 22.188 28.4402 21.656 28.4402 20.984C28.4402 20.3027 28.6876 19.78 29.1822 19.416C29.6862 19.052 30.4656 18.87 31.5202 18.87H32.9482V18.156C32.9482 17.6427 32.8082 17.2507 32.5282 16.98C32.2482 16.7093 31.8189 16.574 31.2402 16.574C30.8016 16.574 30.4329 16.672 30.1342 16.868C29.8449 17.064 29.6022 17.3253 29.4062 17.652L28.7342 17.022C28.9302 16.63 29.2429 16.2987 29.6722 16.028C30.1016 15.748 30.6429 15.608 31.2962 15.608C32.1736 15.608 32.8549 15.8227 33.3402 16.252C33.8256 16.6813 34.0682 17.2787 34.0682 18.044V22.02H34.8942V23H34.2642ZM31.0442 22.216C31.3242 22.216 31.5809 22.1833 31.8142 22.118C32.0476 22.0527 32.2482 21.9593 32.4162 21.838C32.5842 21.7167 32.7149 21.5767 32.8082 21.418C32.9016 21.2593 32.9482 21.0867 32.9482 20.9V19.71H31.4642C30.8202 19.71 30.3489 19.8033 30.0502 19.99C29.7609 20.1767 29.6162 20.4473 29.6162 20.802V21.096C29.6162 21.4507 29.7422 21.726 29.9942 21.922C30.2556 22.118 30.6056 22.216 31.0442 22.216ZM40.8764 15.776H41.9824L38.7484 24.68C38.6644 24.8947 38.5804 25.072 38.4964 25.212C38.4124 25.3613 38.3097 25.478 38.1884 25.562C38.067 25.646 37.913 25.7067 37.7264 25.744C37.549 25.7813 37.3297 25.8 37.0684 25.8H36.4944V24.82H37.6284L38.1744 23.28L35.4724 15.776H36.5924L38.3284 20.69L38.6644 21.866H38.7344L39.1264 20.69L40.8764 15.776ZM45.526 23.168C44.854 23.168 44.2893 23.042 43.832 22.79C43.384 22.5287 42.9967 22.1833 42.67 21.754L43.468 21.11C43.748 21.4647 44.0607 21.74 44.406 21.936C44.7513 22.1227 45.1527 22.216 45.61 22.216C46.086 22.216 46.4547 22.1133 46.716 21.908C46.9867 21.7027 47.122 21.4133 47.122 21.04C47.122 20.76 47.0287 20.522 46.842 20.326C46.6647 20.1207 46.338 19.9807 45.862 19.906L45.288 19.822C44.952 19.7753 44.644 19.7053 44.364 19.612C44.084 19.5093 43.8367 19.3787 43.622 19.22C43.4167 19.052 43.2533 18.8467 43.132 18.604C43.02 18.3613 42.964 18.072 42.964 17.736C42.964 17.3813 43.0293 17.0733 43.16 16.812C43.2907 16.5413 43.468 16.3173 43.692 16.14C43.9253 15.9627 44.2007 15.832 44.518 15.748C44.8353 15.6547 45.176 15.608 45.54 15.608C46.128 15.608 46.618 15.7107 47.01 15.916C47.4113 16.1213 47.7613 16.406 48.06 16.77L47.318 17.442C47.1593 17.218 46.926 17.0173 46.618 16.84C46.31 16.6533 45.9227 16.56 45.456 16.56C44.9893 16.56 44.6347 16.6627 44.392 16.868C44.1587 17.064 44.042 17.3347 44.042 17.68C44.042 18.0347 44.1587 18.2913 44.392 18.45C44.6347 18.6087 44.98 18.7253 45.428 18.8L45.988 18.884C46.7907 19.0053 47.36 19.2387 47.696 19.584C48.032 19.92 48.2 20.3633 48.2 20.914C48.2 21.614 47.962 22.1647 47.486 22.566C47.01 22.9673 46.3567 23.168 45.526 23.168ZM58.7369 23C58.3169 23 58.0135 22.888 57.8269 22.664C57.6495 22.44 57.5375 22.16 57.4909 21.824H57.4209C57.2622 22.272 57.0009 22.608 56.6369 22.832C56.2729 23.056 55.8389 23.168 55.3349 23.168C54.5695 23.168 53.9722 22.972 53.5429 22.58C53.1229 22.188 52.9129 21.656 52.9129 20.984C52.9129 20.3027 53.1602 19.78 53.6549 19.416C54.1589 19.052 54.9382 18.87 55.9929 18.87H57.4209V18.156C57.4209 17.6427 57.2809 17.2507 57.0009 16.98C56.7209 16.7093 56.2915 16.574 55.7129 16.574C55.2742 16.574 54.9055 16.672 54.6069 16.868C54.3175 17.064 54.0749 17.3253 53.8789 17.652L53.2069 17.022C53.4029 16.63 53.7155 16.2987 54.1449 16.028C54.5742 15.748 55.1155 15.608 55.7689 15.608C56.6462 15.608 57.3275 15.8227 57.8129 16.252C58.2982 16.6813 58.5409 17.2787 58.5409 18.044V22.02H59.3669V23H58.7369ZM55.5169 22.216C55.7969 22.216 56.0535 22.1833 56.2869 22.118C56.5202 22.0527 56.7209 21.9593 56.8889 21.838C57.0569 21.7167 57.1875 21.5767 57.2809 21.418C57.3742 21.2593 57.4209 21.0867 57.4209 20.9V19.71H55.9369C55.2929 19.71 54.8215 19.8033 54.5229 19.99C54.2335 20.1767 54.0889 20.4473 54.0889 20.802V21.096C54.0889 21.4507 54.2149 21.726 54.4669 21.922C54.7282 22.118 55.0782 22.216 55.5169 22.216ZM67.0554 23.798C67.0554 24.5447 66.7614 25.0907 66.1734 25.436C65.5947 25.7907 64.7221 25.968 63.5554 25.968C62.4261 25.968 61.6141 25.814 61.1194 25.506C60.6247 25.198 60.3774 24.7593 60.3774 24.19C60.3774 23.798 60.4801 23.49 60.6854 23.266C60.8907 23.0513 61.1707 22.8927 61.5254 22.79V22.636C61.0961 22.4307 60.8814 22.0947 60.8814 21.628C60.8814 21.264 60.9981 20.9887 61.2314 20.802C61.4647 20.606 61.7634 20.4613 62.1274 20.368V20.312C61.6981 20.1067 61.3621 19.8127 61.1194 19.43C60.8861 19.0473 60.7694 18.604 60.7694 18.1C60.7694 17.736 60.8347 17.4 60.9654 17.092C61.0961 16.784 61.2781 16.5227 61.5114 16.308C61.7541 16.084 62.0387 15.9113 62.3654 15.79C62.7014 15.6687 63.0747 15.608 63.4854 15.608C63.9987 15.608 64.4561 15.7013 64.8574 15.888V15.762C64.8574 15.482 64.9227 15.2533 65.0534 15.076C65.1841 14.8893 65.3987 14.796 65.6974 14.796H66.7754V15.776H65.4034V16.238C65.6647 16.462 65.8654 16.7327 66.0054 17.05C66.1547 17.358 66.2294 17.708 66.2294 18.1C66.2294 18.464 66.1641 18.8 66.0334 19.108C65.9027 19.416 65.7161 19.682 65.4734 19.906C65.2401 20.1207 64.9554 20.2887 64.6194 20.41C64.2834 20.5313 63.9101 20.592 63.4994 20.592C63.2661 20.592 63.0327 20.5687 62.7994 20.522C62.5567 20.5873 62.3374 20.6853 62.1414 20.816C61.9454 20.9373 61.8474 21.11 61.8474 21.334C61.8474 21.5487 61.9501 21.6933 62.1554 21.768C62.3607 21.8427 62.6267 21.88 62.9534 21.88H64.4934C65.3894 21.88 66.0381 22.0527 66.4394 22.398C66.8501 22.734 67.0554 23.2007 67.0554 23.798ZM66.0054 23.882C66.0054 23.5927 65.8934 23.3593 65.6694 23.182C65.4547 23.014 65.0674 22.93 64.5074 22.93H62.0994C61.6514 23.1353 61.4274 23.462 61.4274 23.91C61.4274 24.2273 61.5441 24.498 61.7774 24.722C62.0201 24.946 62.4261 25.058 62.9954 25.058H64.0314C64.6567 25.058 65.1421 24.96 65.4874 24.764C65.8327 24.568 66.0054 24.274 66.0054 23.882ZM63.4994 19.696C63.9754 19.696 64.3534 19.584 64.6334 19.36C64.9134 19.1267 65.0534 18.772 65.0534 18.296V17.904C65.0534 17.428 64.9134 17.078 64.6334 16.854C64.3534 16.6207 63.9754 16.504 63.4994 16.504C63.0234 16.504 62.6454 16.6207 62.3654 16.854C62.0854 17.078 61.9454 17.428 61.9454 17.904V18.296C61.9454 18.772 62.0854 19.1267 62.3654 19.36C62.6454 19.584 63.0234 19.696 63.4994 19.696ZM71.0098 23.168C70.5245 23.168 70.0812 23.0793 69.6798 22.902C69.2785 22.7247 68.9332 22.4727 68.6438 22.146C68.3638 21.81 68.1445 21.4133 67.9858 20.956C67.8272 20.4893 67.7478 19.9667 67.7478 19.388C67.7478 18.8187 67.8272 18.3007 67.9858 17.834C68.1445 17.3673 68.3638 16.9707 68.6438 16.644C68.9332 16.308 69.2785 16.0513 69.6798 15.874C70.0812 15.6967 70.5245 15.608 71.0098 15.608C71.4952 15.608 71.9338 15.6967 72.3258 15.874C72.7272 16.0513 73.0725 16.308 73.3618 16.644C73.6512 16.9707 73.8752 17.3673 74.0338 17.834C74.1925 18.3007 74.2718 18.8187 74.2718 19.388C74.2718 19.9667 74.1925 20.4893 74.0338 20.956C73.8752 21.4133 73.6512 21.81 73.3618 22.146C73.0725 22.4727 72.7272 22.7247 72.3258 22.902C71.9338 23.0793 71.4952 23.168 71.0098 23.168ZM71.0098 22.174C71.6165 22.174 72.1112 21.9873 72.4938 21.614C72.8765 21.2407 73.0678 20.6713 73.0678 19.906V18.87C73.0678 18.1047 72.8765 17.5353 72.4938 17.162C72.1112 16.7887 71.6165 16.602 71.0098 16.602C70.4032 16.602 69.9085 16.7887 69.5258 17.162C69.1432 17.5353 68.9518 18.1047 68.9518 18.87V19.906C68.9518 20.6713 69.1432 21.2407 69.5258 21.614C69.9085 21.9873 70.4032 22.174 71.0098 22.174Z" fill="#937CC8"/>
<path d="M7.872 62.024V77H5.856V62.024H0.528V60.248H13.2V62.024H7.872ZM18.8841 77.288C18.0521 77.288 17.2921 77.136 16.6041 76.832C15.9161 76.528 15.3241 76.096 14.8281 75.536C14.3481 74.96 13.9721 74.28 13.7001 73.496C13.4281 72.696 13.2921 71.8 13.2921 70.808C13.2921 69.832 13.4281 68.944 13.7001 68.144C13.9721 67.344 14.3481 66.664 14.8281 66.104C15.3241 65.528 15.9161 65.088 16.6041 64.784C17.2921 64.48 18.0521 64.328 18.8841 64.328C19.7161 64.328 20.4681 64.48 21.1401 64.784C21.8281 65.088 22.4201 65.528 22.9161 66.104C23.4121 66.664 23.7961 67.344 24.0681 68.144C24.3401 68.944 24.4761 69.832 24.4761 70.808C24.4761 71.8 24.3401 72.696 24.0681 73.496C23.7961 74.28 23.4121 74.96 22.9161 75.536C22.4201 76.096 21.8281 76.528 21.1401 76.832C20.4681 77.136 19.7161 77.288 18.8841 77.288ZM18.8841 75.584C19.9241 75.584 20.7721 75.264 21.4281 74.624C22.0841 73.984 22.4121 73.008 22.4121 71.696V69.92C22.4121 68.608 22.0841 67.632 21.4281 66.992C20.7721 66.352 19.9241 66.032 18.8841 66.032C17.8441 66.032 16.9961 66.352 16.3401 66.992C15.6841 67.632 15.3561 68.608 15.3561 69.92V71.696C15.3561 73.008 15.6841 73.984 16.3401 74.624C16.9961 75.264 17.8441 75.584 18.8841 75.584ZM27.6338 64.616H29.5538V66.632H29.6498C29.9698 65.848 30.4338 65.272 31.0418 64.904C31.6658 64.52 32.4098 64.328 33.2738 64.328C34.0418 64.328 34.7378 64.48 35.3618 64.784C35.9858 65.088 36.5138 65.52 36.9458 66.08C37.3938 66.64 37.7298 67.32 37.9538 68.12C38.1938 68.92 38.3138 69.816 38.3138 70.808C38.3138 71.8 38.1938 72.696 37.9538 73.496C37.7298 74.296 37.3938 74.976 36.9458 75.536C36.5138 76.096 35.9858 76.528 35.3618 76.832C34.7378 77.136 34.0418 77.288 33.2738 77.288C31.5938 77.288 30.3858 76.52 29.6498 74.984H29.5538V81.8H27.6338V64.616ZM32.7458 75.56C33.8338 75.56 34.6898 75.224 35.3138 74.552C35.9378 73.864 36.2498 72.968 36.2498 71.864V69.752C36.2498 68.648 35.9378 67.76 35.3138 67.088C34.6898 66.4 33.8338 66.056 32.7458 66.056C32.3138 66.056 31.8978 66.12 31.4978 66.248C31.1138 66.36 30.7778 66.52 30.4898 66.728C30.2018 66.936 29.9698 67.192 29.7938 67.496C29.6338 67.784 29.5538 68.096 29.5538 68.432V73.04C29.5538 73.44 29.6338 73.8 29.7938 74.12C29.9698 74.424 30.2018 74.688 30.4898 74.912C30.7778 75.12 31.1138 75.28 31.4978 75.392C31.8978 75.504 32.3138 75.56 32.7458 75.56ZM47.2995 77V75.224H51.9795V61.736H51.8115L47.5875 65.672L46.4115 64.4L50.8515 60.248H53.9955V75.224H58.3155V77H47.2995ZM66.7781 77.288C64.7781 77.288 63.3141 76.528 62.3861 75.008C61.4741 73.488 61.0181 71.36 61.0181 68.624C61.0181 65.888 61.4741 63.76 62.3861 62.24C63.3141 60.72 64.7781 59.96 66.7781 59.96C68.7781 59.96 70.2341 60.72 71.1461 62.24C72.0741 63.76 72.5381 65.888 72.5381 68.624C72.5381 71.36 72.0741 73.488 71.1461 75.008C70.2341 76.528 68.7781 77.288 66.7781 77.288ZM66.7781 75.536C67.4341 75.536 67.9941 75.4 68.4581 75.128C68.9221 74.856 69.2981 74.472 69.5861 73.976C69.8741 73.48 70.0821 72.896 70.2101 72.224C70.3541 71.552 70.4261 70.808 70.4261 69.992V67.256C70.4261 66.44 70.3541 65.696 70.2101 65.024C70.0821 64.352 69.8741 63.768 69.5861 63.272C69.2981 62.776 68.9221 62.392 68.4581 62.12C67.9941 61.848 67.4341 61.712 66.7781 61.712C66.1221 61.712 65.5621 61.848 65.0981 62.12C64.6341 62.392 64.2581 62.776 63.9701 63.272C63.6821 63.768 63.4661 64.352 63.3221 65.024C63.1941 65.696 63.1301 66.44 63.1301 67.256V69.992C63.1301 70.808 63.1941 71.552 63.3221 72.224C63.4661 72.896 63.6821 73.48 63.9701 73.976C64.2581 74.472 64.6341 74.856 65.0981 75.128C65.5621 75.4 66.1221 75.536 66.7781 75.536ZM89.3126 74.984H89.2166C89.0886 75.272 88.9286 75.56 88.7366 75.848C88.5606 76.12 88.3366 76.368 88.0646 76.592C87.7926 76.8 87.4646 76.968 87.0806 77.096C86.6966 77.224 86.2486 77.288 85.7366 77.288C84.4566 77.288 83.4406 76.88 82.6886 76.064C81.9366 75.232 81.5606 74.064 81.5606 72.56V64.616H83.4806V72.224C83.4806 74.448 84.4246 75.56 86.3126 75.56C86.6966 75.56 87.0646 75.512 87.4166 75.416C87.7846 75.32 88.1046 75.176 88.3766 74.984C88.6646 74.792 88.8886 74.552 89.0486 74.264C89.2246 73.96 89.3126 73.6 89.3126 73.184V64.616H91.2326V77H89.3126V74.984ZM99.0413 77.288C97.8893 77.288 96.9213 77.072 96.1373 76.64C95.3693 76.192 94.7053 75.6 94.1453 74.864L95.5133 73.76C95.9933 74.368 96.5293 74.84 97.1213 75.176C97.7133 75.496 98.4013 75.656 99.1853 75.656C100.001 75.656 100.633 75.48 101.081 75.128C101.545 74.776 101.777 74.28 101.777 73.64C101.777 73.16 101.617 72.752 101.297 72.416C100.993 72.064 100.433 71.824 99.6172 71.696L98.6333 71.552C98.0573 71.472 97.5293 71.352 97.0493 71.192C96.5693 71.016 96.1453 70.792 95.7773 70.52C95.4253 70.232 95.1453 69.88 94.9373 69.464C94.7453 69.048 94.6493 68.552 94.6493 67.976C94.6493 67.368 94.7613 66.84 94.9853 66.392C95.2093 65.928 95.5133 65.544 95.8973 65.24C96.2973 64.936 96.7693 64.712 97.3133 64.568C97.8573 64.408 98.4413 64.328 99.0653 64.328C100.073 64.328 100.913 64.504 101.585 64.856C102.273 65.208 102.873 65.696 103.385 66.32L102.113 67.472C101.841 67.088 101.441 66.744 100.913 66.44C100.385 66.12 99.7213 65.96 98.9213 65.96C98.1213 65.96 97.5133 66.136 97.0973 66.488C96.6973 66.824 96.4973 67.288 96.4973 67.88C96.4973 68.488 96.6973 68.928 97.0973 69.2C97.5133 69.472 98.1053 69.672 98.8733 69.8L99.8333 69.944C101.209 70.152 102.185 70.552 102.761 71.144C103.337 71.72 103.625 72.48 103.625 73.424C103.625 74.624 103.217 75.568 102.401 76.256C101.585 76.944 100.465 77.288 99.0413 77.288ZM111.673 77.288C110.825 77.288 110.057 77.136 109.369 76.832C108.697 76.528 108.113 76.096 107.617 75.536C107.137 74.96 106.761 74.28 106.489 73.496C106.233 72.696 106.105 71.8 106.105 70.808C106.105 69.832 106.233 68.944 106.489 68.144C106.761 67.344 107.137 66.664 107.617 66.104C108.113 65.528 108.697 65.088 109.369 64.784C110.057 64.48 110.825 64.328 111.673 64.328C112.505 64.328 113.249 64.48 113.905 64.784C114.561 65.088 115.121 65.512 115.585 66.056C116.049 66.584 116.401 67.216 116.641 67.952C116.897 68.688 117.025 69.496 117.025 70.376V71.288H108.121V71.864C108.121 72.392 108.201 72.888 108.361 73.352C108.537 73.8 108.777 74.192 109.081 74.528C109.401 74.864 109.785 75.128 110.233 75.32C110.697 75.512 111.217 75.608 111.793 75.608C112.577 75.608 113.257 75.424 113.833 75.056C114.425 74.688 114.881 74.16 115.201 73.472L116.569 74.456C116.169 75.304 115.545 75.992 114.697 76.52C113.849 77.032 112.841 77.288 111.673 77.288ZM111.673 65.936C111.145 65.936 110.665 66.032 110.233 66.224C109.801 66.4 109.425 66.656 109.105 66.992C108.801 67.328 108.561 67.728 108.385 68.192C108.209 68.64 108.121 69.136 108.121 69.68V69.848H114.961V69.584C114.961 68.48 114.657 67.6 114.049 66.944C113.457 66.272 112.665 65.936 111.673 65.936ZM120.86 66.296H118.844V64.616H120.86V62.12C120.86 61.256 121.084 60.56 121.532 60.032C121.98 59.504 122.66 59.24 123.572 59.24H125.444V60.92H122.78V64.616H125.444V66.296H122.78V77H120.86V66.296ZM135.602 74.984H135.506C135.378 75.272 135.218 75.56 135.026 75.848C134.85 76.12 134.626 76.368 134.354 76.592C134.082 76.8 133.754 76.968 133.37 77.096C132.986 77.224 132.538 77.288 132.026 77.288C130.746 77.288 129.73 76.88 128.978 76.064C128.226 75.232 127.85 74.064 127.85 72.56V64.616H129.77V72.224C129.77 74.448 130.714 75.56 132.602 75.56C132.986 75.56 133.354 75.512 133.706 75.416C134.074 75.32 134.394 75.176 134.666 74.984C134.954 74.792 135.178 74.552 135.338 74.264C135.514 73.96 135.602 73.6 135.602 73.184V64.616H137.522V77H135.602V74.984ZM143.65 77C142.978 77 142.466 76.816 142.114 76.448C141.778 76.064 141.61 75.584 141.61 75.008V59.24H143.53V75.32H145.354V77H143.65ZM156.557 77C155.885 77 155.373 76.816 155.021 76.448C154.685 76.064 154.517 75.568 154.517 74.96V66.296H152.477V64.616H153.629C154.045 64.616 154.325 64.536 154.469 64.376C154.629 64.2 154.709 63.904 154.709 63.488V61.184H156.437V64.616H159.149V66.296H156.437V75.32H158.957V77H156.557ZM163.195 61.712C162.779 61.712 162.475 61.616 162.283 61.424C162.107 61.216 162.019 60.952 162.019 60.632V60.32C162.019 60 162.107 59.744 162.283 59.552C162.475 59.344 162.779 59.24 163.195 59.24C163.611 59.24 163.907 59.344 164.083 59.552C164.275 59.744 164.371 60 164.371 60.32V60.632C164.371 60.952 164.275 61.216 164.083 61.424C163.907 61.616 163.611 61.712 163.195 61.712ZM162.235 64.616H164.155V77H162.235V64.616ZM168.235 64.616H170.155V66.632H170.251C170.571 65.848 171.035 65.272 171.643 64.904C172.267 64.52 173.011 64.328 173.875 64.328C174.643 64.328 175.339 64.48 175.963 64.784C176.587 65.088 177.115 65.52 177.547 66.08C177.995 66.64 178.331 67.32 178.555 68.12C178.795 68.92 178.915 69.816 178.915 70.808C178.915 71.8 178.795 72.696 178.555 73.496C178.331 74.296 177.995 74.976 177.547 75.536C177.115 76.096 176.587 76.528 175.963 76.832C175.339 77.136 174.643 77.288 173.875 77.288C172.195 77.288 170.987 76.52 170.251 74.984H170.155V81.8H168.235V64.616ZM173.347 75.56C174.435 75.56 175.291 75.224 175.915 74.552C176.539 73.864 176.851 72.968 176.851 71.864V69.752C176.851 68.648 176.539 67.76 175.915 67.088C175.291 66.4 174.435 66.056 173.347 66.056C172.915 66.056 172.499 66.12 172.099 66.248C171.715 66.36 171.379 66.52 171.091 66.728C170.803 66.936 170.571 67.192 170.395 67.496C170.235 67.784 170.155 68.096 170.155 68.432V73.04C170.155 73.44 170.235 73.8 170.395 74.12C170.571 74.424 170.803 74.688 171.091 74.912C171.379 75.12 171.715 75.28 172.099 75.392C172.499 75.504 172.915 75.56 173.347 75.56ZM185.877 77.288C184.725 77.288 183.757 77.072 182.973 76.64C182.205 76.192 181.541 75.6 180.981 74.864L182.349 73.76C182.829 74.368 183.365 74.84 183.957 75.176C184.549 75.496 185.237 75.656 186.021 75.656C186.837 75.656 187.469 75.48 187.917 75.128C188.381 74.776 188.613 74.28 188.613 73.64C188.613 73.16 188.453 72.752 188.133 72.416C187.829 72.064 187.269 71.824 186.453 71.696L185.469 71.552C184.893 71.472 184.365 71.352 183.885 71.192C183.405 71.016 182.981 70.792 182.613 70.52C182.261 70.232 181.981 69.88 181.773 69.464C181.581 69.048 181.485 68.552 181.485 67.976C181.485 67.368 181.597 66.84 181.821 66.392C182.045 65.928 182.349 65.544 182.733 65.24C183.133 64.936 183.605 64.712 184.149 64.568C184.693 64.408 185.277 64.328 185.901 64.328C186.909 64.328 187.749 64.504 188.421 64.856C189.109 65.208 189.709 65.696 190.221 66.32L188.949 67.472C188.677 67.088 188.277 66.744 187.749 66.44C187.221 66.12 186.557 65.96 185.757 65.96C184.957 65.96 184.349 66.136 183.933 66.488C183.533 66.824 183.333 67.288 183.333 67.88C183.333 68.488 183.533 68.928 183.933 69.2C184.349 69.472 184.941 69.672 185.709 69.8L186.669 69.944C188.045 70.152 189.021 70.552 189.597 71.144C190.173 71.72 190.461 72.48 190.461 73.424C190.461 74.624 190.053 75.568 189.237 76.256C188.421 76.944 187.301 77.288 185.877 77.288ZM202.26 77C201.588 77 201.076 76.816 200.724 76.448C200.388 76.064 200.22 75.568 200.22 74.96V66.296H198.18V64.616H199.332C199.748 64.616 200.028 64.536 200.172 64.376C200.332 64.2 200.412 63.904 200.412 63.488V61.184H202.14V64.616H204.852V66.296H202.14V75.32H204.66V77H202.26ZM212.525 77.288C211.693 77.288 210.933 77.136 210.245 76.832C209.557 76.528 208.965 76.096 208.469 75.536C207.989 74.96 207.613 74.28 207.341 73.496C207.069 72.696 206.933 71.8 206.933 70.808C206.933 69.832 207.069 68.944 207.341 68.144C207.613 67.344 207.989 66.664 208.469 66.104C208.965 65.528 209.557 65.088 210.245 64.784C210.933 64.48 211.693 64.328 212.525 64.328C213.357 64.328 214.109 64.48 214.781 64.784C215.469 65.088 216.061 65.528 216.557 66.104C217.053 66.664 217.437 67.344 217.709 68.144C217.981 68.944 218.117 69.832 218.117 70.808C218.117 71.8 217.981 72.696 217.709 73.496C217.437 74.28 217.053 74.96 216.557 75.536C216.061 76.096 215.469 76.528 214.781 76.832C214.109 77.136 213.357 77.288 212.525 77.288ZM212.525 75.584C213.565 75.584 214.413 75.264 215.069 74.624C215.725 73.984 216.053 73.008 216.053 71.696V69.92C216.053 68.608 215.725 67.632 215.069 66.992C214.413 66.352 213.565 66.032 212.525 66.032C211.485 66.032 210.637 66.352 209.981 66.992C209.325 67.632 208.997 68.608 208.997 69.92V71.696C208.997 73.008 209.325 73.984 209.981 74.624C210.637 75.264 211.485 75.584 212.525 75.584ZM229.682 77C229.01 77 228.498 76.816 228.146 76.448C227.81 76.064 227.642 75.568 227.642 74.96V66.296H225.602V64.616H226.754C227.17 64.616 227.45 64.536 227.594 64.376C227.754 64.2 227.834 63.904 227.834 63.488V61.184H229.562V64.616H232.274V66.296H229.562V75.32H232.082V77H229.682ZM235.36 77V64.616H237.28V66.896H237.4C237.624 66.304 238.024 65.776 238.6 65.312C239.176 64.848 239.968 64.616 240.976 64.616H241.72V66.536H240.592C239.552 66.536 238.736 66.736 238.144 67.136C237.568 67.52 237.28 68.008 237.28 68.6V77H235.36ZM245.133 61.712C244.717 61.712 244.413 61.616 244.221 61.424C244.045 61.216 243.957 60.952 243.957 60.632V60.32C243.957 60 244.045 59.744 244.221 59.552C244.413 59.344 244.717 59.24 245.133 59.24C245.549 59.24 245.845 59.344 246.021 59.552C246.213 59.744 246.309 60 246.309 60.32V60.632C246.309 60.952 246.213 61.216 246.021 61.424C245.845 61.616 245.549 61.712 245.133 61.712ZM244.173 64.616H246.093V77H244.173V64.616ZM254.781 77.288C253.917 77.288 253.141 77.136 252.453 76.832C251.765 76.528 251.181 76.096 250.701 75.536C250.237 74.976 249.877 74.296 249.621 73.496C249.381 72.696 249.261 71.8 249.261 70.808C249.261 69.816 249.381 68.92 249.621 68.12C249.877 67.32 250.237 66.64 250.701 66.08C251.181 65.52 251.765 65.088 252.453 64.784C253.141 64.48 253.917 64.328 254.781 64.328C256.013 64.328 256.997 64.6 257.733 65.144C258.485 65.672 259.045 66.368 259.413 67.232L257.805 68.048C257.581 67.408 257.213 66.912 256.701 66.56C256.189 66.208 255.549 66.032 254.781 66.032C254.205 66.032 253.701 66.128 253.269 66.32C252.837 66.496 252.477 66.752 252.189 67.088C251.901 67.408 251.685 67.8 251.541 68.264C251.397 68.712 251.325 69.208 251.325 69.752V71.864C251.325 72.952 251.613 73.848 252.189 74.552C252.781 75.24 253.645 75.584 254.781 75.584C256.333 75.584 257.453 74.864 258.141 73.424L259.533 74.36C259.133 75.256 258.533 75.968 257.733 76.496C256.949 77.024 255.965 77.288 254.781 77.288ZM262.243 59.24H264.163V70.496H264.259L266.155 68.384L269.659 64.616H271.987L267.403 69.512L272.443 77H270.115L266.011 70.688L264.163 72.584V77H262.243V59.24ZM9.672 96.616H11.568L6.024 111.88C5.88 112.248 5.736 112.552 5.592 112.792C5.448 113.048 5.272 113.248 5.064 113.392C4.856 113.536 4.592 113.64 4.272 113.704C3.968 113.768 3.592 113.8 3.144 113.8H2.16V112.12H4.104L5.04 109.48L0.408 96.616H2.328L5.304 105.04L5.88 107.056H6L6.672 105.04L9.672 96.616ZM18.5794 109.288C17.7474 109.288 16.9874 109.136 16.2994 108.832C15.6114 108.528 15.0194 108.096 14.5234 107.536C14.0434 106.96 13.6674 106.28 13.3954 105.496C13.1234 104.696 12.9874 103.8 12.9874 102.808C12.9874 101.832 13.1234 100.944 13.3954 100.144C13.6674 99.344 14.0434 98.664 14.5234 98.104C15.0194 97.528 15.6114 97.088 16.2994 96.784C16.9874 96.48 17.7474 96.328 18.5794 96.328C19.4114 96.328 20.1634 96.48 20.8354 96.784C21.5234 97.088 22.1154 97.528 22.6114 98.104C23.1074 98.664 23.4914 99.344 23.7634 100.144C24.0354 100.944 24.1714 101.832 24.1714 102.808C24.1714 103.8 24.0354 104.696 23.7634 105.496C23.4914 106.28 23.1074 106.96 22.6114 107.536C22.1154 108.096 21.5234 108.528 20.8354 108.832C20.1634 109.136 19.4114 109.288 18.5794 109.288ZM18.5794 107.584C19.6194 107.584 20.4674 107.264 21.1234 106.624C21.7794 105.984 22.1074 105.008 22.1074 103.696V101.92C22.1074 100.608 21.7794 99.632 21.1234 98.992C20.4674 98.352 19.6194 98.032 18.5794 98.032C17.5394 98.032 16.6914 98.352 16.0354 98.992C15.3794 99.632 15.0514 100.608 15.0514 101.92V103.696C15.0514 105.008 15.3794 105.984 16.0354 106.624C16.6914 107.264 17.5394 107.584 18.5794 107.584ZM34.9611 106.984H34.8651C34.7371 107.272 34.5771 107.56 34.3851 107.848C34.2091 108.12 33.9851 108.368 33.7131 108.592C33.4411 108.8 33.1131 108.968 32.7291 109.096C32.3451 109.224 31.8971 109.288 31.3851 109.288C30.1051 109.288 29.0891 108.88 28.3371 108.064C27.5851 107.232 27.2091 106.064 27.2091 104.56V96.616H29.1291V104.224C29.1291 106.448 30.0731 107.56 31.9611 107.56C32.3451 107.56 32.7131 107.512 33.0651 107.416C33.4331 107.32 33.7531 107.176 34.0251 106.984C34.3131 106.792 34.5371 106.552 34.6971 106.264C34.8731 105.96 34.9611 105.6 34.9611 105.184V96.616H36.8811V109H34.9611V106.984ZM40.9697 109V96.616H42.8897V98.896H43.0097C43.2337 98.304 43.6337 97.776 44.2097 97.312C44.7857 96.848 45.5777 96.616 46.5857 96.616H47.3297V98.536H46.2017C45.1617 98.536 44.3457 98.736 43.7537 99.136C43.1777 99.52 42.8897 100.008 42.8897 100.6V109H40.9697ZM55.4541 91.24H57.3741V98.632H57.4701C57.7901 97.848 58.2541 97.272 58.8621 96.904C59.4861 96.52 60.2301 96.328 61.0941 96.328C61.8621 96.328 62.5581 96.48 63.1821 96.784C63.8061 97.088 64.3341 97.52 64.7661 98.08C65.2141 98.64 65.5501 99.32 65.7741 100.12C66.0141 100.92 66.1341 101.816 66.1341 102.808C66.1341 103.8 66.0141 104.696 65.7741 105.496C65.5501 106.296 65.2141 106.976 64.7661 107.536C64.3341 108.096 63.8061 108.528 63.1821 108.832C62.5581 109.136 61.8621 109.288 61.0941 109.288C59.4141 109.288 58.2061 108.52 57.4701 106.984H57.3741V109H55.4541V91.24ZM60.5661 107.56C61.6541 107.56 62.5101 107.224 63.1341 106.552C63.7581 105.864 64.0701 104.968 64.0701 103.864V101.752C64.0701 100.648 63.7581 99.76 63.1341 99.088C62.5101 98.4 61.6541 98.056 60.5661 98.056C60.1341 98.056 59.7181 98.12 59.3181 98.248C58.9341 98.36 58.5981 98.52 58.3101 98.728C58.0221 98.936 57.7901 99.192 57.6141 99.496C57.4541 99.784 57.3741 100.096 57.3741 100.432V105.04C57.3741 105.44 57.4541 105.8 57.6141 106.12C57.7901 106.424 58.0221 106.688 58.3101 106.912C58.5981 107.12 58.9341 107.28 59.3181 107.392C59.7181 107.504 60.1341 107.56 60.5661 107.56ZM69.3759 109V96.616H71.2959V98.896H71.4159C71.6399 98.304 72.0399 97.776 72.6159 97.312C73.1919 96.848 73.9839 96.616 74.9919 96.616H75.7359V98.536H74.6079C73.5679 98.536 72.7519 98.736 72.1599 99.136C71.5839 99.52 71.2959 100.008 71.2959 100.6V109H69.3759ZM87.0947 109C86.3747 109 85.8547 108.808 85.5347 108.424C85.2307 108.04 85.0387 107.56 84.9587 106.984H84.8387C84.5667 107.752 84.1187 108.328 83.4947 108.712C82.8707 109.096 82.1267 109.288 81.2627 109.288C79.9507 109.288 78.9267 108.952 78.1907 108.28C77.4707 107.608 77.1107 106.696 77.1107 105.544C77.1107 104.376 77.5347 103.48 78.3827 102.856C79.2467 102.232 80.5827 101.92 82.3907 101.92H84.8387V100.696C84.8387 99.816 84.5987 99.144 84.1187 98.68C83.6387 98.216 82.9027 97.984 81.9107 97.984C81.1587 97.984 80.5267 98.152 80.0147 98.488C79.5187 98.824 79.1027 99.272 78.7667 99.832L77.6147 98.752C77.9507 98.08 78.4867 97.512 79.2227 97.048C79.9587 96.568 80.8867 96.328 82.0067 96.328C83.5107 96.328 84.6787 96.696 85.5107 97.432C86.3427 98.168 86.7587 99.192 86.7587 100.504V107.32H88.1747V109H87.0947ZM81.5747 107.656C82.0547 107.656 82.4947 107.6 82.8947 107.488C83.2947 107.376 83.6387 107.216 83.9267 107.008C84.2147 106.8 84.4387 106.56 84.5987 106.288C84.7587 106.016 84.8387 105.72 84.8387 105.4V103.36H82.2947C81.1907 103.36 80.3827 103.52 79.8707 103.84C79.3747 104.16 79.1267 104.624 79.1267 105.232V105.736C79.1267 106.344 79.3427 106.816 79.7747 107.152C80.2227 107.488 80.8227 107.656 81.5747 107.656ZM91.875 93.712C91.459 93.712 91.155 93.616 90.963 93.424C90.787 93.216 90.699 92.952 90.699 92.632V92.32C90.699 92 90.787 91.744 90.963 91.552C91.155 91.344 91.459 91.24 91.875 91.24C92.291 91.24 92.587 91.344 92.763 91.552C92.955 91.744 93.051 92 93.051 92.32V92.632C93.051 92.952 92.955 93.216 92.763 93.424C92.587 93.616 92.291 93.712 91.875 93.712ZM90.915 96.616H92.835V109H90.915V96.616ZM96.915 109V96.616H98.835V98.632H98.931C99.235 97.928 99.659 97.368 100.203 96.952C100.763 96.536 101.507 96.328 102.435 96.328C103.715 96.328 104.723 96.744 105.459 97.576C106.211 98.392 106.587 99.552 106.587 101.056V109H104.667V101.392C104.667 99.168 103.731 98.056 101.859 98.056C101.475 98.056 101.099 98.104 100.731 98.2C100.379 98.296 100.059 98.44 99.771 98.632C99.483 98.824 99.251 99.072 99.075 99.376C98.915 99.664 98.835 100.008 98.835 100.408V109H96.915ZM117.188 93.712C116.772 93.712 116.468 93.616 116.276 93.424C116.1 93.216 116.012 92.952 116.012 92.632V92.32C116.012 92 116.1 91.744 116.276 91.552C116.468 91.344 116.772 91.24 117.188 91.24C117.604 91.24 117.9 91.344 118.076 91.552C118.268 91.744 118.364 92 118.364 92.32V92.632C118.364 92.952 118.268 93.216 118.076 93.424C117.9 93.616 117.604 93.712 117.188 93.712ZM116.228 96.616H118.148V109H116.228V96.616ZM122.228 109V96.616H124.148V98.632H124.244C124.548 97.928 124.972 97.368 125.516 96.952C126.076 96.536 126.82 96.328 127.748 96.328C129.028 96.328 130.036 96.744 130.772 97.576C131.524 98.392 131.9 99.552 131.9 101.056V109H129.98V101.392C129.98 99.168 129.044 98.056 127.172 98.056C126.788 98.056 126.412 98.104 126.044 98.2C125.692 98.296 125.372 98.44 125.084 98.632C124.796 98.824 124.564 99.072 124.388 99.376C124.228 99.664 124.148 100.008 124.148 100.408V109H122.228ZM138.604 109C137.932 109 137.42 108.816 137.068 108.448C136.732 108.064 136.564 107.568 136.564 106.96V98.296H134.524V96.616H135.676C136.092 96.616 136.372 96.536 136.516 96.376C136.676 96.2 136.756 95.904 136.756 95.488V93.184H138.484V96.616H141.196V98.296H138.484V107.32H141.004V109H138.604ZM148.868 109.288C148.036 109.288 147.276 109.136 146.588 108.832C145.9 108.528 145.308 108.096 144.812 107.536C144.332 106.96 143.956 106.28 143.684 105.496C143.412 104.696 143.276 103.8 143.276 102.808C143.276 101.832 143.412 100.944 143.684 100.144C143.956 99.344 144.332 98.664 144.812 98.104C145.308 97.528 145.9 97.088 146.588 96.784C147.276 96.48 148.036 96.328 148.868 96.328C149.7 96.328 150.452 96.48 151.124 96.784C151.812 97.088 152.404 97.528 152.9 98.104C153.396 98.664 153.78 99.344 154.052 100.144C154.324 100.944 154.46 101.832 154.46 102.808C154.46 103.8 154.324 104.696 154.052 105.496C153.78 106.28 153.396 106.96 152.9 107.536C152.404 108.096 151.812 108.528 151.124 108.832C150.452 109.136 149.7 109.288 148.868 109.288ZM148.868 107.584C149.908 107.584 150.756 107.264 151.412 106.624C152.068 105.984 152.396 105.008 152.396 103.696V101.92C152.396 100.608 152.068 99.632 151.412 98.992C150.756 98.352 149.908 98.032 148.868 98.032C147.828 98.032 146.98 98.352 146.324 98.992C145.668 99.632 145.34 100.608 145.34 101.92V103.696C145.34 105.008 145.668 105.984 146.324 106.624C146.98 107.264 147.828 107.584 148.868 107.584ZM161.994 96.616H163.866L165.186 101.968L166.506 107.392H166.554L168.066 101.968L169.626 96.616H171.33L172.938 101.968L174.474 107.392H174.522L175.794 101.968L177.138 96.616H178.938L175.65 109H173.274L171.546 103.048L170.466 99.28H170.418L169.362 103.048L167.634 109H165.306L161.994 96.616ZM186.275 109.288C185.443 109.288 184.683 109.136 183.995 108.832C183.307 108.528 182.715 108.096 182.219 107.536C181.739 106.96 181.363 106.28 181.091 105.496C180.819 104.696 180.683 103.8 180.683 102.808C180.683 101.832 180.819 100.944 181.091 100.144C181.363 99.344 181.739 98.664 182.219 98.104C182.715 97.528 183.307 97.088 183.995 96.784C184.683 96.48 185.443 96.328 186.275 96.328C187.107 96.328 187.859 96.48 188.531 96.784C189.219 97.088 189.811 97.528 190.307 98.104C190.803 98.664 191.187 99.344 191.459 100.144C191.731 100.944 191.867 101.832 191.867 102.808C191.867 103.8 191.731 104.696 191.459 105.496C191.187 106.28 190.803 106.96 190.307 107.536C189.811 108.096 189.219 108.528 188.531 108.832C187.859 109.136 187.107 109.288 186.275 109.288ZM186.275 107.584C187.315 107.584 188.163 107.264 188.819 106.624C189.475 105.984 189.803 105.008 189.803 103.696V101.92C189.803 100.608 189.475 99.632 188.819 98.992C188.163 98.352 187.315 98.032 186.275 98.032C185.235 98.032 184.387 98.352 183.731 98.992C183.075 99.632 182.747 100.608 182.747 101.92V103.696C182.747 105.008 183.075 105.984 183.731 106.624C184.387 107.264 185.235 107.584 186.275 107.584ZM195.024 109V96.616H196.944V98.896H197.064C197.288 98.304 197.688 97.776 198.264 97.312C198.84 96.848 199.632 96.616 200.64 96.616H201.384V98.536H200.256C199.216 98.536 198.4 98.736 197.808 99.136C197.232 99.52 196.944 100.008 196.944 100.6V109H195.024ZM203.837 91.24H205.757V102.496H205.853L207.749 100.384L211.253 96.616H213.581L208.997 101.512L214.037 109H211.709L207.605 102.688L205.757 104.584V109H203.837V91.24ZM217.453 93.712C217.037 93.712 216.733 93.616 216.541 93.424C216.365 93.216 216.277 92.952 216.277 92.632V92.32C216.277 92 216.365 91.744 216.541 91.552C216.733 91.344 217.037 91.24 217.453 91.24C217.869 91.24 218.165 91.344 218.341 91.552C218.533 91.744 218.629 92 218.629 92.32V92.632C218.629 92.952 218.533 93.216 218.341 93.424C218.165 93.616 217.869 93.712 217.453 93.712ZM216.493 96.616H218.413V109H216.493V96.616ZM222.493 109V96.616H224.413V98.632H224.509C224.813 97.928 225.237 97.368 225.781 96.952C226.341 96.536 227.085 96.328 228.013 96.328C229.293 96.328 230.301 96.744 231.037 97.576C231.789 98.392 232.165 99.552 232.165 101.056V109H230.245V101.392C230.245 99.168 229.309 98.056 227.437 98.056C227.053 98.056 226.677 98.104 226.309 98.2C225.957 98.296 225.637 98.44 225.349 98.632C225.061 98.824 224.829 99.072 224.653 99.376C224.493 99.664 224.413 100.008 224.413 100.408V109H222.493ZM246.574 110.368C246.574 111.648 246.07 112.584 245.062 113.176C244.07 113.784 242.574 114.088 240.574 114.088C238.638 114.088 237.246 113.824 236.398 113.296C235.55 112.768 235.126 112.016 235.126 111.04C235.126 110.368 235.302 109.84 235.654 109.456C236.006 109.088 236.486 108.816 237.094 108.64V108.376C236.358 108.024 235.99 107.448 235.99 106.648C235.99 106.024 236.19 105.552 236.59 105.232C236.99 104.896 237.502 104.648 238.126 104.488V104.392C237.39 104.04 236.814 103.536 236.398 102.88C235.998 102.224 235.798 101.464 235.798 100.6C235.798 99.976 235.91 99.4 236.134 98.872C236.358 98.344 236.67 97.896 237.07 97.528C237.486 97.144 237.974 96.848 238.534 96.64C239.11 96.432 239.75 96.328 240.454 96.328C241.334 96.328 242.118 96.488 242.806 96.808V96.592C242.806 96.112 242.918 95.72 243.142 95.416C243.366 95.096 243.734 94.936 244.246 94.936H246.094V96.616H243.742V97.408C244.19 97.792 244.534 98.256 244.774 98.8C245.03 99.328 245.158 99.928 245.158 100.6C245.158 101.224 245.046 101.8 244.822 102.328C244.598 102.856 244.278 103.312 243.862 103.696C243.462 104.064 242.974 104.352 242.398 104.56C241.822 104.768 241.182 104.872 240.478 104.872C240.078 104.872 239.678 104.832 239.278 104.752C238.862 104.864 238.486 105.032 238.15 105.256C237.814 105.464 237.646 105.76 237.646 106.144C237.646 106.512 237.822 106.76 238.174 106.888C238.526 107.016 238.982 107.08 239.542 107.08H242.182C243.718 107.08 244.83 107.376 245.518 107.968C246.222 108.544 246.574 109.344 246.574 110.368ZM244.774 110.512C244.774 110.016 244.582 109.616 244.198 109.312C243.83 109.024 243.166 108.88 242.206 108.88H238.078C237.31 109.232 236.926 109.792 236.926 110.56C236.926 111.104 237.126 111.568 237.526 111.952C237.942 112.336 238.638 112.528 239.614 112.528H241.39C242.462 112.528 243.294 112.36 243.886 112.024C244.478 111.688 244.774 111.184 244.774 110.512ZM240.478 103.336C241.294 103.336 241.942 103.144 242.422 102.76C242.902 102.36 243.142 101.752 243.142 100.936V100.264C243.142 99.448 242.902 98.848 242.422 98.464C241.942 98.064 241.294 97.864 240.478 97.864C239.662 97.864 239.014 98.064 238.534 98.464C238.054 98.848 237.814 99.448 237.814 100.264V100.936C237.814 101.752 238.054 102.36 238.534 102.76C239.014 103.144 239.662 103.336 240.478 103.336ZM263.485 109C262.765 109 262.245 108.808 261.925 108.424C261.621 108.04 261.429 107.56 261.349 106.984H261.229C260.957 107.752 260.509 108.328 259.885 108.712C259.261 109.096 258.517 109.288 257.653 109.288C256.341 109.288 255.317 108.952 254.581 108.28C253.861 107.608 253.501 106.696 253.501 105.544C253.501 104.376 253.925 103.48 254.773 102.856C255.637 102.232 256.973 101.92 258.781 101.92H261.229V100.696C261.229 99.816 260.989 99.144 260.509 98.68C260.029 98.216 259.293 97.984 258.301 97.984C257.549 97.984 256.917 98.152 256.405 98.488C255.909 98.824 255.493 99.272 255.157 99.832L254.005 98.752C254.341 98.08 254.877 97.512 255.613 97.048C256.349 96.568 257.277 96.328 258.397 96.328C259.901 96.328 261.069 96.696 261.901 97.432C262.733 98.168 263.149 99.192 263.149 100.504V107.32H264.565V109H263.485ZM257.965 107.656C258.445 107.656 258.885 107.6 259.285 107.488C259.685 107.376 260.029 107.216 260.317 107.008C260.605 106.8 260.829 106.56 260.989 106.288C261.149 106.016 261.229 105.72 261.229 105.4V103.36H258.685C257.581 103.36 256.773 103.52 256.261 103.84C255.765 104.16 255.517 104.624 255.517 105.232V105.736C255.517 106.344 255.733 106.816 256.165 107.152C256.613 107.488 257.213 107.656 257.965 107.656ZM271.026 109.288C269.874 109.288 268.906 109.072 268.122 108.64C267.354 108.192 266.69 107.6 266.13 106.864L267.498 105.76C267.978 106.368 268.514 106.84 269.106 107.176C269.698 107.496 270.386 107.656 271.17 107.656C271.986 107.656 272.618 107.48 273.066 107.128C273.53 106.776 273.762 106.28 273.762 105.64C273.762 105.16 273.602 104.752 273.282 104.416C272.978 104.064 272.418 103.824 271.602 103.696L270.618 103.552C270.042 103.472 269.514 103.352 269.034 103.192C268.554 103.016 268.13 102.792 267.762 102.52C267.41 102.232 267.13 101.88 266.922 101.464C266.73 101.048 266.634 100.552 266.634 99.976C266.634 99.368 266.746 98.84 266.97 98.392C267.194 97.928 267.498 97.544 267.882 97.24C268.282 96.936 268.754 96.712 269.298 96.568C269.842 96.408 270.426 96.328 271.05 96.328C272.058 96.328 272.898 96.504 273.57 96.856C274.258 97.208 274.858 97.696 275.37 98.32L274.098 99.472C273.826 99.088 273.426 98.744 272.898 98.44C272.37 98.12 271.706 97.96 270.906 97.96C270.106 97.96 269.498 98.136 269.082 98.488C268.682 98.824 268.482 99.288 268.482 99.88C268.482 100.488 268.682 100.928 269.082 101.2C269.498 101.472 270.09 101.672 270.858 101.8L271.818 101.944C273.194 102.152 274.17 102.552 274.746 103.144C275.322 103.72 275.61 104.48 275.61 105.424C275.61 106.624 275.202 107.568 274.386 108.256C273.57 108.944 272.45 109.288 271.026 109.288ZM285.633 93.712C285.217 93.712 284.913 93.616 284.721 93.424C284.545 93.216 284.457 92.952 284.457 92.632V92.32C284.457 92 284.545 91.744 284.721 91.552C284.913 91.344 285.217 91.24 285.633 91.24C286.049 91.24 286.345 91.344 286.521 91.552C286.713 91.744 286.809 92 286.809 92.32V92.632C286.809 92.952 286.713 93.216 286.521 93.424C286.345 93.616 286.049 93.712 285.633 93.712ZM284.673 96.616H286.593V109H284.673V96.616ZM293.409 109C292.737 109 292.225 108.816 291.873 108.448C291.537 108.064 291.369 107.568 291.369 106.96V98.296H289.329V96.616H290.481C290.897 96.616 291.177 96.536 291.321 96.376C291.481 96.2 291.561 95.904 291.561 95.488V93.184H293.289V96.616H296.001V98.296H293.289V107.32H295.809V109H293.409ZM5.76 141.288C4.608 141.288 3.64 141.072 2.856 140.64C2.088 140.192 1.424 139.6 0.864 138.864L2.232 137.76C2.712 138.368 3.248 138.84 3.84 139.176C4.432 139.496 5.12 139.656 5.904 139.656C6.72 139.656 7.352 139.48 7.8 139.128C8.264 138.776 8.496 138.28 8.496 137.64C8.496 137.16 8.336 136.752 8.016 136.416C7.712 136.064 7.152 135.824 6.336 135.696L5.352 135.552C4.776 135.472 4.248 135.352 3.768 135.192C3.288 135.016 2.864 134.792 2.496 134.52C2.144 134.232 1.864 133.88 1.656 133.464C1.464 133.048 1.368 132.552 1.368 131.976C1.368 131.368 1.48 130.84 1.704 130.392C1.928 129.928 2.232 129.544 2.616 129.24C3.016 128.936 3.488 128.712 4.032 128.568C4.576 128.408 5.16 128.328 5.784 128.328C6.792 128.328 7.632 128.504 8.304 128.856C8.992 129.208 9.592 129.696 10.104 130.32L8.832 131.472C8.56 131.088 8.16 130.744 7.632 130.44C7.104 130.12 6.44 129.96 5.64 129.96C4.84 129.96 4.232 130.136 3.816 130.488C3.416 130.824 3.216 131.288 3.216 131.88C3.216 132.488 3.416 132.928 3.816 133.2C4.232 133.472 4.824 133.672 5.592 133.8L6.552 133.944C7.928 134.152 8.904 134.552 9.48 135.144C10.056 135.72 10.344 136.48 10.344 137.424C10.344 138.624 9.936 139.568 9.12 140.256C8.304 140.944 7.184 141.288 5.76 141.288ZM13.7353 123.24H15.6553V130.632H15.7513C16.0553 129.928 16.4793 129.368 17.0233 128.952C17.5833 128.536 18.3273 128.328 19.2553 128.328C20.5353 128.328 21.5433 128.744 22.2793 129.576C23.0313 130.392 23.4073 131.552 23.4073 133.056V141H21.4873V133.392C21.4873 131.168 20.5513 130.056 18.6793 130.056C18.2953 130.056 17.9193 130.104 17.5513 130.2C17.1993 130.296 16.8793 130.44 16.5913 130.632C16.3033 130.824 16.0713 131.072 15.8953 131.376C15.7353 131.664 15.6553 132.008 15.6553 132.408V141H13.7353V123.24ZM32.0559 141.288C31.2239 141.288 30.4639 141.136 29.7759 140.832C29.0879 140.528 28.4959 140.096 27.9999 139.536C27.5199 138.96 27.1439 138.28 26.8719 137.496C26.5999 136.696 26.4639 135.8 26.4639 134.808C26.4639 133.832 26.5999 132.944 26.8719 132.144C27.1439 131.344 27.5199 130.664 27.9999 130.104C28.4959 129.528 29.0879 129.088 29.7759 128.784C30.4639 128.48 31.2239 128.328 32.0559 128.328C32.8879 128.328 33.6399 128.48 34.3119 128.784C34.9999 129.088 35.5919 129.528 36.0879 130.104C36.5839 130.664 36.9679 131.344 37.2399 132.144C37.5119 132.944 37.6479 133.832 37.6479 134.808C37.6479 135.8 37.5119 136.696 37.2399 137.496C36.9679 138.28 36.5839 138.96 36.0879 139.536C35.5919 140.096 34.9999 140.528 34.3119 140.832C33.6399 141.136 32.8879 141.288 32.0559 141.288ZM32.0559 139.584C33.0959 139.584 33.9439 139.264 34.5999 138.624C35.2559 137.984 35.5839 137.008 35.5839 135.696V133.92C35.5839 132.608 35.2559 131.632 34.5999 130.992C33.9439 130.352 33.0959 130.032 32.0559 130.032C31.0159 130.032 30.1679 130.352 29.5119 130.992C28.8559 131.632 28.5279 132.608 28.5279 133.92V135.696C28.5279 137.008 28.8559 137.984 29.5119 138.624C30.1679 139.264 31.0159 139.584 32.0559 139.584ZM48.4376 138.984H48.3416C48.2136 139.272 48.0536 139.56 47.8616 139.848C47.6856 140.12 47.4616 140.368 47.1896 140.592C46.9176 140.8 46.5896 140.968 46.2056 141.096C45.8216 141.224 45.3736 141.288 44.8616 141.288C43.5816 141.288 42.5656 140.88 41.8136 140.064C41.0616 139.232 40.6856 138.064 40.6856 136.56V128.616H42.6056V136.224C42.6056 138.448 43.5496 139.56 45.4376 139.56C45.8216 139.56 46.1896 139.512 46.5416 139.416C46.9096 139.32 47.2296 139.176 47.5016 138.984C47.7896 138.792 48.0136 138.552 48.1736 138.264C48.3496 137.96 48.4376 137.6 48.4376 137.184V128.616H50.3576V141H48.4376V138.984ZM56.4863 141C55.8143 141 55.3023 140.816 54.9503 140.448C54.6143 140.064 54.4463 139.584 54.4463 139.008V123.24H56.3663V139.32H58.1903V141H56.4863ZM68.9053 138.984H68.8093C68.0573 140.52 66.8493 141.288 65.1853 141.288C64.4173 141.288 63.7213 141.136 63.0973 140.832C62.4733 140.528 61.9373 140.096 61.4893 139.536C61.0573 138.976 60.7213 138.296 60.4813 137.496C60.2573 136.696 60.1453 135.8 60.1453 134.808C60.1453 133.816 60.2573 132.92 60.4813 132.12C60.7213 131.32 61.0573 130.64 61.4893 130.08C61.9373 129.52 62.4733 129.088 63.0973 128.784C63.7213 128.48 64.4173 128.328 65.1853 128.328C66.0493 128.328 66.7853 128.52 67.3933 128.904C68.0173 129.272 68.4893 129.848 68.8093 130.632H68.9053V123.24H70.8253V141H68.9053V138.984ZM65.7133 139.56C66.1453 139.56 66.5533 139.504 66.9373 139.392C67.3373 139.28 67.6813 139.12 67.9693 138.912C68.2573 138.688 68.4813 138.424 68.6413 138.12C68.8173 137.8 68.9053 137.44 68.9053 137.04V132.432C68.9053 132.096 68.8173 131.784 68.6413 131.496C68.4813 131.192 68.2573 130.936 67.9693 130.728C67.6813 130.52 67.3373 130.36 66.9373 130.248C66.5533 130.12 66.1453 130.056 65.7133 130.056C64.6253 130.056 63.7693 130.4 63.1453 131.088C62.5213 131.76 62.2093 132.648 62.2093 133.752V135.864C62.2093 136.968 62.5213 137.864 63.1453 138.552C63.7693 139.224 64.6253 139.56 65.7133 139.56Z" fill="#1E1E1E"/>
</g>
<path d="M304 169H0V171H304V169Z" fill="#EEE5FF" mask="url(#path-1-inside-1_1_970)"/>
<defs>
<clipPath id="clip0_1_970">
<path d="M0 0H304V170H0V0Z" fill="white"/>
</clipPath>
</defs>
</svg>
