<svg width="160" height="160" viewBox="0 0 160 160" fill="none" xmlns="http://www.w3.org/2000/svg">
<rect width="160" height="160" rx="80" fill="#1E1E1E"/>
<path opacity="0.5" d="M29.0926 50V39.68H30.6926V41.36H30.7726C30.8926 41.0933 31.0259 40.8467 31.1726 40.62C31.3326 40.38 31.5192 40.1733 31.7326 40C31.9592 39.8267 32.2192 39.6933 32.5126 39.6C32.8059 39.4933 33.1526 39.44 33.5526 39.44C34.2326 39.44 34.8592 39.6067 35.4326 39.94C36.0059 40.26 36.4326 40.7933 36.7126 41.54H36.7526C36.9392 40.98 37.2859 40.4933 37.7926 40.08C38.3126 39.6533 39.0126 39.44 39.8926 39.44C40.9459 39.44 41.7659 39.7867 42.3526 40.48C42.9526 41.16 43.2526 42.1267 43.2526 43.38V50H41.6526V43.66C41.6526 42.74 41.4726 42.0467 41.1126 41.58C40.7526 41.1133 40.1792 40.88 39.3926 40.88C39.0726 40.88 38.7659 40.92 38.4726 41C38.1926 41.08 37.9392 41.2 37.7126 41.36C37.4859 41.52 37.3059 41.7267 37.1726 41.98C37.0392 42.22 36.9726 42.5067 36.9726 42.84V50H35.3726V43.66C35.3726 42.74 35.1926 42.0467 34.8326 41.58C34.4726 41.1133 33.9126 40.88 33.1526 40.88C32.8326 40.88 32.5259 40.92 32.2326 41C31.9392 41.08 31.6792 41.2 31.4526 41.36C31.2259 41.52 31.0392 41.7267 30.8926 41.98C30.7592 42.22 30.6926 42.5067 30.6926 42.84V50H29.0926ZM50.4335 50.24C49.7268 50.24 49.0868 50.1133 48.5135 49.86C47.9535 49.6067 47.4668 49.2467 47.0535 48.78C46.6535 48.3 46.3402 47.7333 46.1135 47.08C45.9002 46.4133 45.7935 45.6667 45.7935 44.84C45.7935 44.0267 45.9002 43.2867 46.1135 42.62C46.3402 41.9533 46.6535 41.3867 47.0535 40.92C47.4668 40.44 47.9535 40.0733 48.5135 39.82C49.0868 39.5667 49.7268 39.44 50.4335 39.44C51.1268 39.44 51.7468 39.5667 52.2935 39.82C52.8402 40.0733 53.3068 40.4267 53.6935 40.88C54.0802 41.32 54.3735 41.8467 54.5735 42.46C54.7868 43.0733 54.8935 43.7467 54.8935 44.48V45.24H47.4735V45.72C47.4735 46.16 47.5402 46.5733 47.6735 46.96C47.8202 47.3333 48.0202 47.66 48.2735 47.94C48.5402 48.22 48.8602 48.44 49.2335 48.6C49.6202 48.76 50.0535 48.84 50.5335 48.84C51.1868 48.84 51.7535 48.6867 52.2335 48.38C52.7268 48.0733 53.1068 47.6333 53.3735 47.06L54.5135 47.88C54.1802 48.5867 53.6602 49.16 52.9535 49.6C52.2468 50.0267 51.4068 50.24 50.4335 50.24ZM50.4335 40.78C49.9935 40.78 49.5935 40.86 49.2335 41.02C48.8735 41.1667 48.5602 41.38 48.2935 41.66C48.0402 41.94 47.8402 42.2733 47.6935 42.66C47.5468 43.0333 47.4735 43.4467 47.4735 43.9V44.04H53.1735V43.82C53.1735 42.9 52.9202 42.1667 52.4135 41.62C51.9202 41.06 51.2602 40.78 50.4335 40.78ZM57.5301 50V39.68H59.1301V41.36H59.2101C59.4634 40.7733 59.8167 40.3067 60.2701 39.96C60.7367 39.6133 61.3567 39.44 62.1301 39.44C63.1967 39.44 64.0367 39.7867 64.6501 40.48C65.2767 41.16 65.5901 42.1267 65.5901 43.38V50H63.9901V43.66C63.9901 41.8067 63.2101 40.88 61.6501 40.88C61.3301 40.88 61.0167 40.92 60.7101 41C60.4167 41.08 60.1501 41.2 59.9101 41.36C59.6701 41.52 59.4767 41.7267 59.3301 41.98C59.1967 42.22 59.1301 42.5067 59.1301 42.84V50H57.5301ZM71.1773 50C70.6173 50 70.1906 49.8467 69.8973 49.54C69.6173 49.22 69.4773 48.8067 69.4773 48.3V41.08H67.7773V39.68H68.7373C69.0839 39.68 69.3173 39.6133 69.4373 39.48C69.5706 39.3333 69.6373 39.0867 69.6373 38.74V36.82H71.0773V39.68H73.3373V41.08H71.0773V48.6H73.1773V50H71.1773ZM76.709 37.26C76.3623 37.26 76.109 37.18 75.949 37.02C75.8023 36.8467 75.729 36.6267 75.729 36.36V36.1C75.729 35.8333 75.8023 35.62 75.949 35.46C76.109 35.2867 76.3623 35.2 76.709 35.2C77.0557 35.2 77.3023 35.2867 77.449 35.46C77.609 35.62 77.689 35.8333 77.689 36.1V36.36C77.689 36.6267 77.609 36.8467 77.449 37.02C77.3023 37.18 77.0557 37.26 76.709 37.26ZM75.909 39.68H77.509V50H75.909V39.68ZM84.809 50.24C84.1157 50.24 83.4823 50.1133 82.909 49.86C82.3357 49.6067 81.8423 49.2467 81.429 48.78C81.029 48.3 80.7157 47.7333 80.489 47.08C80.2623 46.4133 80.149 45.6667 80.149 44.84C80.149 44.0267 80.2623 43.2867 80.489 42.62C80.7157 41.9533 81.029 41.3867 81.429 40.92C81.8423 40.44 82.3357 40.0733 82.909 39.82C83.4823 39.5667 84.1157 39.44 84.809 39.44C85.5023 39.44 86.129 39.5667 86.689 39.82C87.2623 40.0733 87.7557 40.44 88.169 40.92C88.5823 41.3867 88.9023 41.9533 89.129 42.62C89.3557 43.2867 89.469 44.0267 89.469 44.84C89.469 45.6667 89.3557 46.4133 89.129 47.08C88.9023 47.7333 88.5823 48.3 88.169 48.78C87.7557 49.2467 87.2623 49.6067 86.689 49.86C86.129 50.1133 85.5023 50.24 84.809 50.24ZM84.809 48.82C85.6757 48.82 86.3823 48.5533 86.929 48.02C87.4757 47.4867 87.749 46.6733 87.749 45.58V44.1C87.749 43.0067 87.4757 42.1933 86.929 41.66C86.3823 41.1267 85.6757 40.86 84.809 40.86C83.9423 40.86 83.2357 41.1267 82.689 41.66C82.1423 42.1933 81.869 43.0067 81.869 44.1V45.58C81.869 46.6733 82.1423 47.4867 82.689 48.02C83.2357 48.5533 83.9423 48.82 84.809 48.82ZM92.1004 50V39.68H93.7004V41.36H93.7804C94.0337 40.7733 94.3871 40.3067 94.8404 39.96C95.3071 39.6133 95.9271 39.44 96.7004 39.44C97.7671 39.44 98.6071 39.7867 99.2204 40.48C99.8471 41.16 100.16 42.1267 100.16 43.38V50H98.5604V43.66C98.5604 41.8067 97.7804 40.88 96.2204 40.88C95.9004 40.88 95.5871 40.92 95.2804 41C94.9871 41.08 94.7204 41.2 94.4804 41.36C94.2404 41.52 94.0471 41.7267 93.9004 41.98C93.7671 42.22 93.7004 42.5067 93.7004 42.84V50H92.1004ZM106.568 50.24C105.608 50.24 104.801 50.06 104.148 49.7C103.508 49.3267 102.954 48.8333 102.488 48.22L103.628 47.3C104.028 47.8067 104.474 48.2 104.968 48.48C105.461 48.7467 106.034 48.88 106.688 48.88C107.368 48.88 107.894 48.7333 108.268 48.44C108.654 48.1467 108.848 47.7333 108.848 47.2C108.848 46.8 108.714 46.46 108.448 46.18C108.194 45.8867 107.728 45.6867 107.048 45.58L106.228 45.46C105.748 45.3933 105.308 45.2933 104.908 45.16C104.508 45.0133 104.154 44.8267 103.848 44.6C103.554 44.36 103.321 44.0667 103.148 43.72C102.988 43.3733 102.908 42.96 102.908 42.48C102.908 41.9733 103.001 41.5333 103.188 41.16C103.374 40.7733 103.628 40.4533 103.948 40.2C104.281 39.9467 104.674 39.76 105.128 39.64C105.581 39.5067 106.068 39.44 106.588 39.44C107.428 39.44 108.128 39.5867 108.688 39.88C109.261 40.1733 109.761 40.58 110.188 41.1L109.128 42.06C108.901 41.74 108.568 41.4533 108.128 41.2C107.688 40.9333 107.134 40.8 106.468 40.8C105.801 40.8 105.294 40.9467 104.948 41.24C104.614 41.52 104.448 41.9067 104.448 42.4C104.448 42.9067 104.614 43.2733 104.948 43.5C105.294 43.7267 105.788 43.8933 106.428 44L107.228 44.12C108.374 44.2933 109.188 44.6267 109.668 45.12C110.148 45.6 110.388 46.2333 110.388 47.02C110.388 48.02 110.048 48.8067 109.368 49.38C108.688 49.9533 107.754 50.24 106.568 50.24ZM118.74 37.26C118.394 37.26 118.14 37.18 117.98 37.02C117.834 36.8467 117.76 36.6267 117.76 36.36V36.1C117.76 35.8333 117.834 35.62 117.98 35.46C118.14 35.2867 118.394 35.2 118.74 35.2C119.087 35.2 119.334 35.2867 119.48 35.46C119.64 35.62 119.72 35.8333 119.72 36.1V36.36C119.72 36.6267 119.64 36.8467 119.48 37.02C119.334 37.18 119.087 37.26 118.74 37.26ZM117.94 39.68H119.54V50H117.94V39.68ZM122.94 50V39.68H124.54V41.36H124.62C124.874 40.7733 125.227 40.3067 125.68 39.96C126.147 39.6133 126.767 39.44 127.54 39.44C128.607 39.44 129.447 39.7867 130.06 40.48C130.687 41.16 131 42.1267 131 43.38V50H129.4V43.66C129.4 41.8067 128.62 40.88 127.06 40.88C126.74 40.88 126.427 40.92 126.12 41C125.827 41.08 125.56 41.2 125.32 41.36C125.08 41.52 124.887 41.7267 124.74 41.98C124.607 42.22 124.54 42.5067 124.54 42.84V50H122.94ZM53.8387 78V67.68H55.4387V69.36H55.5187C55.6387 69.0933 55.772 68.8467 55.9187 68.62C56.0787 68.38 56.2653 68.1733 56.4787 68C56.7053 67.8267 56.9653 67.6933 57.2587 67.6C57.552 67.4933 57.8987 67.44 58.2987 67.44C58.9787 67.44 59.6053 67.6067 60.1787 67.94C60.752 68.26 61.1787 68.7933 61.4587 69.54H61.4987C61.6853 68.98 62.032 68.4933 62.5387 68.08C63.0587 67.6533 63.7587 67.44 64.6387 67.44C65.692 67.44 66.512 67.7867 67.0987 68.48C67.6987 69.16 67.9987 70.1267 67.9987 71.38V78H66.3987V71.66C66.3987 70.74 66.2187 70.0467 65.8587 69.58C65.4987 69.1133 64.9253 68.88 64.1387 68.88C63.8187 68.88 63.512 68.92 63.2187 69C62.9387 69.08 62.6853 69.2 62.4587 69.36C62.232 69.52 62.052 69.7267 61.9187 69.98C61.7853 70.22 61.7187 70.5067 61.7187 70.84V78H60.1187V71.66C60.1187 70.74 59.9387 70.0467 59.5787 69.58C59.2187 69.1133 58.6587 68.88 57.8987 68.88C57.5787 68.88 57.272 68.92 56.9787 69C56.6853 69.08 56.4253 69.2 56.1987 69.36C55.972 69.52 55.7853 69.7267 55.6387 69.98C55.5053 70.22 55.4387 70.5067 55.4387 70.84V78H53.8387ZM75.1796 78.24C74.4729 78.24 73.8329 78.1133 73.2596 77.86C72.6996 77.6067 72.2129 77.2467 71.7996 76.78C71.3996 76.3 71.0863 75.7333 70.8596 75.08C70.6463 74.4133 70.5396 73.6667 70.5396 72.84C70.5396 72.0267 70.6463 71.2867 70.8596 70.62C71.0863 69.9533 71.3996 69.3867 71.7996 68.92C72.2129 68.44 72.6996 68.0733 73.2596 67.82C73.8329 67.5667 74.4729 67.44 75.1796 67.44C75.8729 67.44 76.4929 67.5667 77.0396 67.82C77.5863 68.0733 78.0529 68.4267 78.4396 68.88C78.8263 69.32 79.1196 69.8467 79.3196 70.46C79.5329 71.0733 79.6396 71.7467 79.6396 72.48V73.24H72.2196V73.72C72.2196 74.16 72.2863 74.5733 72.4196 74.96C72.5663 75.3333 72.7663 75.66 73.0196 75.94C73.2863 76.22 73.6063 76.44 73.9796 76.6C74.3663 76.76 74.7996 76.84 75.2796 76.84C75.9329 76.84 76.4996 76.6867 76.9796 76.38C77.4729 76.0733 77.8529 75.6333 78.1196 75.06L79.2596 75.88C78.9263 76.5867 78.4063 77.16 77.6996 77.6C76.9929 78.0267 76.1529 78.24 75.1796 78.24ZM75.1796 68.78C74.7396 68.78 74.3396 68.86 73.9796 69.02C73.6196 69.1667 73.3063 69.38 73.0396 69.66C72.7863 69.94 72.5863 70.2733 72.4396 70.66C72.2929 71.0333 72.2196 71.4467 72.2196 71.9V72.04H77.9196V71.82C77.9196 70.9 77.6663 70.1667 77.1596 69.62C76.6663 69.06 76.0063 68.78 75.1796 68.78ZM88.8762 76.32H88.7962C88.1695 77.6 87.1628 78.24 85.7762 78.24C85.1362 78.24 84.5562 78.1133 84.0362 77.86C83.5162 77.6067 83.0695 77.2467 82.6962 76.78C82.3362 76.3133 82.0562 75.7467 81.8562 75.08C81.6695 74.4133 81.5762 73.6667 81.5762 72.84C81.5762 72.0133 81.6695 71.2667 81.8562 70.6C82.0562 69.9333 82.3362 69.3667 82.6962 68.9C83.0695 68.4333 83.5162 68.0733 84.0362 67.82C84.5562 67.5667 85.1362 67.44 85.7762 67.44C86.4962 67.44 87.1095 67.6 87.6162 67.92C88.1362 68.2267 88.5295 68.7067 88.7962 69.36H88.8762V63.2H90.4762V78H88.8762V76.32ZM86.2162 76.8C86.5762 76.8 86.9162 76.7533 87.2362 76.66C87.5695 76.5667 87.8562 76.4333 88.0962 76.26C88.3362 76.0733 88.5228 75.8533 88.6562 75.6C88.8028 75.3333 88.8762 75.0333 88.8762 74.7V70.86C88.8762 70.58 88.8028 70.32 88.6562 70.08C88.5228 69.8267 88.3362 69.6133 88.0962 69.44C87.8562 69.2667 87.5695 69.1333 87.2362 69.04C86.9162 68.9333 86.5762 68.88 86.2162 68.88C85.3095 68.88 84.5962 69.1667 84.0762 69.74C83.5562 70.3 83.2962 71.04 83.2962 71.96V73.72C83.2962 74.64 83.5562 75.3867 84.0762 75.96C84.5962 76.52 85.3095 76.8 86.2162 76.8ZM94.6777 65.26C94.3311 65.26 94.0777 65.18 93.9177 65.02C93.7711 64.8467 93.6977 64.6267 93.6977 64.36V64.1C93.6977 63.8333 93.7711 63.62 93.9177 63.46C94.0777 63.2867 94.3311 63.2 94.6777 63.2C95.0244 63.2 95.2711 63.2867 95.4177 63.46C95.5777 63.62 95.6577 63.8333 95.6577 64.1V64.36C95.6577 64.6267 95.5777 64.8467 95.4177 65.02C95.2711 65.18 95.0244 65.26 94.6777 65.26ZM93.8777 67.68H95.4777V78H93.8777V67.68ZM106.378 78C105.778 78 105.344 77.84 105.078 77.52C104.824 77.2 104.664 76.8 104.598 76.32H104.498C104.271 76.96 103.898 77.44 103.378 77.76C102.858 78.08 102.238 78.24 101.518 78.24C100.424 78.24 99.5711 77.96 98.9577 77.4C98.3577 76.84 98.0577 76.08 98.0577 75.12C98.0577 74.1467 98.4111 73.4 99.1177 72.88C99.8377 72.36 100.951 72.1 102.458 72.1H104.498V71.08C104.498 70.3467 104.298 69.7867 103.898 69.4C103.498 69.0133 102.884 68.82 102.058 68.82C101.431 68.82 100.904 68.96 100.478 69.24C100.064 69.52 99.7177 69.8933 99.4377 70.36L98.4777 69.46C98.7577 68.9 99.2044 68.4267 99.8177 68.04C100.431 67.64 101.204 67.44 102.138 67.44C103.391 67.44 104.364 67.7467 105.058 68.36C105.751 68.9733 106.098 69.8267 106.098 70.92V76.6H107.278V78H106.378ZM101.778 76.88C102.178 76.88 102.544 76.8333 102.878 76.74C103.211 76.6467 103.498 76.5133 103.738 76.34C103.978 76.1667 104.164 75.9667 104.298 75.74C104.431 75.5133 104.498 75.2667 104.498 75V73.3H102.378C101.458 73.3 100.784 73.4333 100.358 73.7C99.9444 73.9667 99.7377 74.3533 99.7377 74.86V75.28C99.7377 75.7867 99.9177 76.18 100.278 76.46C100.651 76.74 101.151 76.88 101.778 76.88Z" fill="#F6F6F6"/>
<path d="M57.2804 111V108.368H62.7684V93.752H62.5444L58.0084 98.596L56.0764 96.86L61.0604 91.456H65.8764V108.368H70.6364V111H57.2804ZM86.7535 111H73.4815V107.976L79.7255 102.404C80.7148 101.508 81.4708 100.659 81.9935 99.856C82.5348 99.0347 82.8055 98.176 82.8055 97.28V96.916C82.8055 95.964 82.5161 95.2173 81.9375 94.676C81.3775 94.1347 80.6121 93.864 79.6415 93.864C79.1001 93.864 78.6241 93.948 78.2135 94.116C77.8215 94.2653 77.4761 94.48 77.1775 94.76C76.8788 95.04 76.6268 95.3667 76.4215 95.74C76.2348 96.1133 76.0855 96.5147 75.9735 96.944L73.2015 95.88C73.4068 95.264 73.6868 94.676 74.0415 94.116C74.3961 93.5373 74.8441 93.024 75.3855 92.576C75.9268 92.128 76.5615 91.7733 77.2895 91.512C78.0361 91.2507 78.9041 91.12 79.8935 91.12C80.8828 91.12 81.7695 91.2693 82.5535 91.568C83.3375 91.848 83.9908 92.2493 84.5135 92.772C85.0548 93.276 85.4655 93.8827 85.7455 94.592C86.0255 95.3013 86.1655 96.076 86.1655 96.916C86.1655 97.7 86.0441 98.428 85.8015 99.1C85.5588 99.772 85.2228 100.407 84.7935 101.004C84.3641 101.601 83.8601 102.171 83.2815 102.712C82.7215 103.253 82.1241 103.804 81.4895 104.364L76.8975 108.312H86.7535V111ZM90.8585 111V108.368H96.3465V93.752H96.1225L91.5865 98.596L89.6545 96.86L94.6385 91.456H99.4545V108.368H104.215V111H90.8585Z" fill="#F6F6F6"/>
<path d="M67.2949 129C66.8389 129 66.4949 128.884 66.2629 128.652C66.0309 128.412 65.9149 128.076 65.9149 127.644V123.828H64.9429V122.76H65.4709C65.6869 122.76 65.8349 122.712 65.9149 122.616C66.0029 122.52 66.0469 122.364 66.0469 122.148V121.056H67.2229V122.76H68.5309V123.828H67.2229V127.932H68.4349V129H67.2949ZM70.6097 121.644C70.3377 121.644 70.1377 121.58 70.0097 121.452C69.8897 121.324 69.8297 121.16 69.8297 120.96V120.756C69.8297 120.556 69.8897 120.392 70.0097 120.264C70.1377 120.136 70.3377 120.072 70.6097 120.072C70.8817 120.072 71.0777 120.136 71.1977 120.264C71.3177 120.392 71.3777 120.556 71.3777 120.756V120.96C71.3777 121.16 71.3177 121.324 71.1977 121.452C71.0777 121.58 70.8817 121.644 70.6097 121.644ZM69.9497 122.76H71.2577V129H69.9497V122.76ZM73.1255 129V122.76H74.4335V123.792H74.4935C74.5575 123.632 74.6335 123.48 74.7215 123.336C74.8175 123.192 74.9295 123.068 75.0575 122.964C75.1935 122.852 75.3495 122.768 75.5255 122.712C75.7095 122.648 75.9215 122.616 76.1615 122.616C76.5855 122.616 76.9615 122.72 77.2895 122.928C77.6175 123.136 77.8575 123.456 78.0095 123.888H78.0455C78.1575 123.536 78.3735 123.236 78.6935 122.988C79.0135 122.74 79.4255 122.616 79.9295 122.616C80.5535 122.616 81.0375 122.828 81.3815 123.252C81.7255 123.668 81.8975 124.264 81.8975 125.04V129H80.5895V125.196C80.5895 124.716 80.4975 124.356 80.3135 124.116C80.1295 123.868 79.8375 123.744 79.4375 123.744C79.2695 123.744 79.1095 123.768 78.9575 123.816C78.8055 123.856 78.6695 123.92 78.5495 124.008C78.4375 124.096 78.3455 124.208 78.2735 124.344C78.2015 124.48 78.1655 124.636 78.1655 124.812V129H76.8575V125.196C76.8575 124.228 76.4775 123.744 75.7175 123.744C75.5575 123.744 75.3975 123.768 75.2375 123.816C75.0855 123.856 74.9495 123.92 74.8295 124.008C74.7095 124.096 74.6135 124.208 74.5415 124.344C74.4695 124.48 74.4335 124.636 74.4335 124.812V129H73.1255ZM86.1555 129.144C85.7075 129.144 85.3075 129.068 84.9555 128.916C84.6035 128.764 84.3035 128.548 84.0555 128.268C83.8075 127.98 83.6155 127.636 83.4795 127.236C83.3515 126.828 83.2875 126.376 83.2875 125.88C83.2875 125.384 83.3515 124.936 83.4795 124.536C83.6155 124.128 83.8075 123.784 84.0555 123.504C84.3035 123.216 84.6035 122.996 84.9555 122.844C85.3075 122.692 85.7075 122.616 86.1555 122.616C86.6115 122.616 87.0115 122.696 87.3555 122.856C87.7075 123.016 87.9995 123.24 88.2315 123.528C88.4635 123.808 88.6355 124.136 88.7475 124.512C88.8675 124.888 88.9275 125.292 88.9275 125.724V126.216H84.6435V126.42C84.6435 126.9 84.7835 127.296 85.0635 127.608C85.3515 127.912 85.7595 128.064 86.2875 128.064C86.6715 128.064 86.9955 127.98 87.2595 127.812C87.5235 127.644 87.7475 127.416 87.9315 127.128L88.6995 127.884C88.4675 128.268 88.1315 128.576 87.6915 128.808C87.2515 129.032 86.7395 129.144 86.1555 129.144ZM86.1555 123.636C85.9315 123.636 85.7235 123.676 85.5315 123.756C85.3475 123.836 85.1875 123.948 85.0515 124.092C84.9235 124.236 84.8235 124.408 84.7515 124.608C84.6795 124.808 84.6435 125.028 84.6435 125.268V125.352H87.5475V125.232C87.5475 124.752 87.4235 124.368 87.1755 124.08C86.9275 123.784 86.5875 123.636 86.1555 123.636ZM92.3555 129.144C91.7635 129.144 91.2675 129.04 90.8675 128.832C90.4675 128.624 90.1195 128.336 89.8235 127.968L90.6635 127.2C90.8955 127.48 91.1515 127.7 91.4315 127.86C91.7195 128.012 92.0515 128.088 92.4275 128.088C92.8115 128.088 93.0955 128.016 93.2795 127.872C93.4715 127.72 93.5675 127.512 93.5675 127.248C93.5675 127.048 93.4995 126.88 93.3635 126.744C93.2355 126.6 93.0075 126.508 92.6795 126.468L92.1035 126.396C91.4635 126.316 90.9595 126.132 90.5915 125.844C90.2315 125.548 90.0515 125.112 90.0515 124.536C90.0515 124.232 90.1075 123.964 90.2195 123.732C90.3315 123.492 90.4875 123.292 90.6875 123.132C90.8955 122.964 91.1395 122.836 91.4195 122.748C91.7075 122.66 92.0235 122.616 92.3675 122.616C92.9275 122.616 93.3835 122.704 93.7355 122.88C94.0955 123.056 94.4155 123.3 94.6955 123.612L93.8915 124.38C93.7315 124.188 93.5195 124.024 93.2555 123.888C92.9995 123.744 92.7035 123.672 92.3675 123.672C92.0075 123.672 91.7395 123.744 91.5635 123.888C91.3955 124.032 91.3115 124.22 91.3115 124.452C91.3115 124.692 91.3875 124.872 91.5395 124.992C91.6915 125.112 91.9355 125.2 92.2715 125.256L92.8475 125.328C93.5355 125.432 94.0355 125.636 94.3475 125.94C94.6675 126.236 94.8275 126.636 94.8275 127.14C94.8275 127.444 94.7675 127.72 94.6475 127.968C94.5355 128.208 94.3715 128.416 94.1555 128.592C93.9395 128.768 93.6795 128.904 93.3755 129C93.0715 129.096 92.7315 129.144 92.3555 129.144Z" fill="#F6F6F6"/>
</svg>
