<svg width="216" height="216" viewBox="0 0 216 216" fill="none" xmlns="http://www.w3.org/2000/svg">
<path opacity="0.5" d="M65.74 63.48L64.06 60.38H64V72H62.36V58.04H64.3L69.4 66.56L71.08 69.66H71.14V58.04H72.78V72H70.84L65.74 63.48ZM80.2206 72.24C79.514 72.24 78.874 72.1133 78.3006 71.86C77.7406 71.6067 77.254 71.2467 76.8406 70.78C76.4406 70.3 76.1273 69.7333 75.9006 69.08C75.6873 68.4133 75.5806 67.6667 75.5806 66.84C75.5806 66.0267 75.6873 65.2867 75.9006 64.62C76.1273 63.9533 76.4406 63.3867 76.8406 62.92C77.254 62.44 77.7406 62.0733 78.3006 61.82C78.874 61.5667 79.514 61.44 80.2206 61.44C80.914 61.44 81.534 61.5667 82.0806 61.82C82.6273 62.0733 83.094 62.4267 83.4806 62.88C83.8673 63.32 84.1606 63.8467 84.3606 64.46C84.574 65.0733 84.6806 65.7467 84.6806 66.48V67.24H77.2606V67.72C77.2606 68.16 77.3273 68.5733 77.4606 68.96C77.6073 69.3333 77.8073 69.66 78.0606 69.94C78.3273 70.22 78.6473 70.44 79.0206 70.6C79.4073 70.76 79.8406 70.84 80.3206 70.84C80.974 70.84 81.5406 70.6867 82.0206 70.38C82.514 70.0733 82.894 69.6333 83.1606 69.06L84.3006 69.88C83.9673 70.5867 83.4473 71.16 82.7406 71.6C82.034 72.0267 81.194 72.24 80.2206 72.24ZM80.2206 62.78C79.7806 62.78 79.3806 62.86 79.0206 63.02C78.6606 63.1667 78.3473 63.38 78.0806 63.66C77.8273 63.94 77.6273 64.2733 77.4806 64.66C77.334 65.0333 77.2606 65.4467 77.2606 65.9V66.04H82.9606V65.82C82.9606 64.9 82.7073 64.1667 82.2006 63.62C81.7073 63.06 81.0473 62.78 80.2206 62.78ZM86.1395 61.68H87.6995L88.7995 66.14L89.8995 70.66H89.9395L91.1995 66.14L92.4995 61.68H93.9195L95.2595 66.14L96.5395 70.66H96.5795L97.6395 66.14L98.7595 61.68H100.26L97.5195 72H95.5395L94.0995 67.04L93.1995 63.9H93.1595L92.2795 67.04L90.8395 72H88.8995L86.1395 61.68ZM113.658 70.32H113.578C113.471 70.56 113.338 70.8 113.178 71.04C113.031 71.2667 112.844 71.4733 112.618 71.66C112.391 71.8333 112.118 71.9733 111.798 72.08C111.478 72.1867 111.104 72.24 110.678 72.24C109.611 72.24 108.764 71.9 108.138 71.22C107.511 70.5267 107.198 69.5533 107.198 68.3V61.68H108.798V68.02C108.798 69.8733 109.584 70.8 111.158 70.8C111.478 70.8 111.784 70.76 112.078 70.68C112.384 70.6 112.651 70.48 112.878 70.32C113.118 70.16 113.304 69.96 113.438 69.72C113.584 69.4667 113.658 69.1667 113.658 68.82V61.68H115.258V72H113.658V70.32ZM121.765 72.24C120.805 72.24 119.998 72.06 119.345 71.7C118.705 71.3267 118.152 70.8333 117.685 70.22L118.825 69.3C119.225 69.8067 119.672 70.2 120.165 70.48C120.658 70.7467 121.232 70.88 121.885 70.88C122.565 70.88 123.092 70.7333 123.465 70.44C123.852 70.1467 124.045 69.7333 124.045 69.2C124.045 68.8 123.912 68.46 123.645 68.18C123.392 67.8867 122.925 67.6867 122.245 67.58L121.425 67.46C120.945 67.3933 120.505 67.2933 120.105 67.16C119.705 67.0133 119.352 66.8267 119.045 66.6C118.752 66.36 118.518 66.0667 118.345 65.72C118.185 65.3733 118.105 64.96 118.105 64.48C118.105 63.9733 118.198 63.5333 118.385 63.16C118.572 62.7733 118.825 62.4533 119.145 62.2C119.478 61.9467 119.872 61.76 120.325 61.64C120.778 61.5067 121.265 61.44 121.785 61.44C122.625 61.44 123.325 61.5867 123.885 61.88C124.458 62.1733 124.958 62.58 125.385 63.1L124.325 64.06C124.098 63.74 123.765 63.4533 123.325 63.2C122.885 62.9333 122.332 62.8 121.665 62.8C120.998 62.8 120.492 62.9467 120.145 63.24C119.812 63.52 119.645 63.9067 119.645 64.4C119.645 64.9067 119.812 65.2733 120.145 65.5C120.492 65.7267 120.985 65.8933 121.625 66L122.425 66.12C123.572 66.2933 124.385 66.6267 124.865 67.12C125.345 67.6 125.585 68.2333 125.585 69.02C125.585 70.02 125.245 70.8067 124.565 71.38C123.885 71.9533 122.952 72.24 121.765 72.24ZM132.291 72.24C131.584 72.24 130.944 72.1133 130.371 71.86C129.811 71.6067 129.324 71.2467 128.911 70.78C128.511 70.3 128.198 69.7333 127.971 69.08C127.758 68.4133 127.651 67.6667 127.651 66.84C127.651 66.0267 127.758 65.2867 127.971 64.62C128.198 63.9533 128.511 63.3867 128.911 62.92C129.324 62.44 129.811 62.0733 130.371 61.82C130.944 61.5667 131.584 61.44 132.291 61.44C132.984 61.44 133.604 61.5667 134.151 61.82C134.698 62.0733 135.164 62.4267 135.551 62.88C135.938 63.32 136.231 63.8467 136.431 64.46C136.644 65.0733 136.751 65.7467 136.751 66.48V67.24H129.331V67.72C129.331 68.16 129.398 68.5733 129.531 68.96C129.678 69.3333 129.878 69.66 130.131 69.94C130.398 70.22 130.718 70.44 131.091 70.6C131.478 70.76 131.911 70.84 132.391 70.84C133.044 70.84 133.611 70.6867 134.091 70.38C134.584 70.0733 134.964 69.6333 135.231 69.06L136.371 69.88C136.038 70.5867 135.518 71.16 134.811 71.6C134.104 72.0267 133.264 72.24 132.291 72.24ZM132.291 62.78C131.851 62.78 131.451 62.86 131.091 63.02C130.731 63.1667 130.418 63.38 130.151 63.66C129.898 63.94 129.698 64.2733 129.551 64.66C129.404 65.0333 129.331 65.4467 129.331 65.9V66.04H135.031V65.82C135.031 64.9 134.778 64.1667 134.271 63.62C133.778 63.06 133.118 62.78 132.291 62.78ZM139.388 72V61.68H140.988V63.58H141.088C141.274 63.0867 141.608 62.6467 142.088 62.26C142.568 61.8733 143.228 61.68 144.068 61.68H144.688V63.28H143.748C142.881 63.28 142.201 63.4467 141.708 63.78C141.228 64.1 140.988 64.5067 140.988 65V72H139.388ZM149.831 72.24C148.871 72.24 148.065 72.06 147.411 71.7C146.771 71.3267 146.218 70.8333 145.751 70.22L146.891 69.3C147.291 69.8067 147.738 70.2 148.231 70.48C148.725 70.7467 149.298 70.88 149.951 70.88C150.631 70.88 151.158 70.7333 151.531 70.44C151.918 70.1467 152.111 69.7333 152.111 69.2C152.111 68.8 151.978 68.46 151.711 68.18C151.458 67.8867 150.991 67.6867 150.311 67.58L149.491 67.46C149.011 67.3933 148.571 67.2933 148.171 67.16C147.771 67.0133 147.418 66.8267 147.111 66.6C146.818 66.36 146.585 66.0667 146.411 65.72C146.251 65.3733 146.171 64.96 146.171 64.48C146.171 63.9733 146.265 63.5333 146.451 63.16C146.638 62.7733 146.891 62.4533 147.211 62.2C147.545 61.9467 147.938 61.76 148.391 61.64C148.845 61.5067 149.331 61.44 149.851 61.44C150.691 61.44 151.391 61.5867 151.951 61.88C152.525 62.1733 153.025 62.58 153.451 63.1L152.391 64.06C152.165 63.74 151.831 63.4533 151.391 63.2C150.951 62.9333 150.398 62.8 149.731 62.8C149.065 62.8 148.558 62.9467 148.211 63.24C147.878 63.52 147.711 63.9067 147.711 64.4C147.711 64.9067 147.878 65.2733 148.211 65.5C148.558 65.7267 149.051 65.8933 149.691 66L150.491 66.12C151.638 66.2933 152.451 66.6267 152.931 67.12C153.411 67.6 153.651 68.2333 153.651 69.02C153.651 70.02 153.311 70.8067 152.631 71.38C151.951 71.9533 151.018 72.24 149.831 72.24Z" fill="#937CC8"/>
<path d="M69.2573 126H52.1933V122.112L60.2213 114.948C61.4933 113.796 62.4653 112.704 63.1373 111.672C63.8333 110.616 64.1813 109.512 64.1813 108.36V107.892C64.1813 106.668 63.8093 105.708 63.0653 105.012C62.3453 104.316 61.3613 103.968 60.1133 103.968C59.4173 103.968 58.8053 104.076 58.2773 104.292C57.7733 104.484 57.3293 104.76 56.9453 105.12C56.5613 105.48 56.2373 105.9 55.9733 106.38C55.7333 106.86 55.5413 107.376 55.3973 107.928L51.8333 106.56C52.0973 105.768 52.4573 105.012 52.9133 104.292C53.3693 103.548 53.9453 102.888 54.6413 102.312C55.3373 101.736 56.1533 101.28 57.0893 100.944C58.0493 100.608 59.1653 100.44 60.4373 100.44C61.7093 100.44 62.8493 100.632 63.8573 101.016C64.8653 101.376 65.7053 101.892 66.3773 102.564C67.0733 103.212 67.6013 103.992 67.9612 104.904C68.3213 105.816 68.5013 106.812 68.5013 107.892C68.5013 108.9 68.3453 109.836 68.0333 110.7C67.7213 111.564 67.2893 112.38 66.7373 113.148C66.1853 113.916 65.5373 114.648 64.7933 115.344C64.0733 116.04 63.3053 116.748 62.4893 117.468L56.5853 122.544H69.2573V126ZM80.7992 111.204C82.3592 111.204 83.5112 110.88 84.2552 110.232C84.9992 109.56 85.3712 108.708 85.3712 107.676V107.424C85.3712 106.272 85.0112 105.396 84.2912 104.796C83.5712 104.172 82.5992 103.86 81.3752 103.86C80.1752 103.86 79.1552 104.136 78.3152 104.688C77.4752 105.216 76.7672 105.96 76.1912 106.92L73.4912 104.58C73.8752 104.028 74.3072 103.5 74.7872 102.996C75.2672 102.492 75.8312 102.06 76.4792 101.7C77.1272 101.316 77.8592 101.016 78.6752 100.8C79.4912 100.56 80.4272 100.44 81.4832 100.44C82.6592 100.44 83.7512 100.584 84.7592 100.872C85.7672 101.16 86.6312 101.592 87.3512 102.168C88.0712 102.72 88.6352 103.404 89.0432 104.22C89.4512 105.012 89.6552 105.912 89.6552 106.92C89.6552 107.712 89.5232 108.432 89.2592 109.08C89.0192 109.728 88.6712 110.304 88.2152 110.808C87.7832 111.288 87.2672 111.684 86.6672 111.996C86.0912 112.308 85.4792 112.536 84.8312 112.68V112.86C85.5512 113.004 86.2232 113.244 86.8472 113.58C87.4952 113.892 88.0592 114.312 88.5392 114.84C89.0192 115.344 89.3912 115.956 89.6552 116.676C89.9432 117.372 90.0872 118.176 90.0872 119.088C90.0872 120.192 89.8712 121.2 89.4392 122.112C89.0072 123 88.3952 123.768 87.6032 124.416C86.8352 125.064 85.8992 125.568 84.7952 125.928C83.6912 126.264 82.4672 126.432 81.1232 126.432C79.9472 126.432 78.9152 126.3 78.0272 126.036C77.1392 125.796 76.3472 125.472 75.6512 125.064C74.9792 124.632 74.3792 124.152 73.8512 123.624C73.3472 123.072 72.9032 122.508 72.5192 121.932L75.5072 119.592C75.8192 120.096 76.1432 120.564 76.4792 120.996C76.8392 121.404 77.2352 121.764 77.6672 122.076C78.1232 122.364 78.6272 122.592 79.1792 122.76C79.7552 122.928 80.4032 123.012 81.1232 123.012C82.6592 123.012 83.8352 122.652 84.6512 121.932C85.4672 121.188 85.8752 120.168 85.8752 118.872V118.62C85.8752 117.324 85.4432 116.34 84.5792 115.668C83.7152 114.996 82.4912 114.66 80.9072 114.66H78.2432V111.204H80.7992ZM112.333 126.432C110.941 126.432 109.693 126.204 108.589 125.748C107.509 125.292 106.585 124.644 105.817 123.804C105.073 122.94 104.497 121.908 104.089 120.708C103.681 119.508 103.477 118.152 103.477 116.64C103.477 114.816 103.753 113.1 104.305 111.492C104.857 109.884 105.565 108.408 106.429 107.064C107.293 105.72 108.253 104.532 109.309 103.5C110.389 102.444 111.445 101.568 112.477 100.872H117.877C116.461 101.904 115.189 102.9 114.061 103.86C112.933 104.82 111.949 105.804 111.109 106.812C110.269 107.82 109.561 108.888 108.985 110.016C108.433 111.144 108.001 112.38 107.689 113.724L107.941 113.796C108.205 113.292 108.505 112.824 108.841 112.392C109.201 111.936 109.609 111.54 110.065 111.204C110.545 110.868 111.085 110.604 111.685 110.412C112.285 110.22 112.981 110.124 113.773 110.124C114.829 110.124 115.801 110.304 116.689 110.664C117.601 111.024 118.381 111.552 119.029 112.248C119.701 112.92 120.217 113.736 120.577 114.696C120.961 115.656 121.153 116.724 121.153 117.9C121.153 119.172 120.937 120.336 120.505 121.392C120.097 122.424 119.509 123.312 118.741 124.056C117.973 124.8 117.037 125.388 115.933 125.82C114.853 126.228 113.653 126.432 112.333 126.432ZM112.333 123.12C113.797 123.12 114.937 122.736 115.753 121.968C116.569 121.176 116.977 120.024 116.977 118.512V118.008C116.977 116.496 116.569 115.356 115.753 114.588C114.937 113.796 113.797 113.4 112.333 113.4C110.869 113.4 109.729 113.796 108.913 114.588C108.097 115.356 107.689 116.496 107.689 118.008V118.512C107.689 120.024 108.097 121.176 108.913 121.968C109.729 122.736 110.869 123.12 112.333 123.12ZM135.971 126V121.104H124.307V117.612L134.495 100.872H139.823V117.9H143.243V121.104H139.823V126H135.971ZM127.763 117.9H135.971V104.58H135.719L127.763 117.9ZM154.065 111.204C155.625 111.204 156.777 110.88 157.521 110.232C158.265 109.56 158.637 108.708 158.637 107.676V107.424C158.637 106.272 158.277 105.396 157.557 104.796C156.837 104.172 155.865 103.86 154.641 103.86C153.441 103.86 152.421 104.136 151.581 104.688C150.741 105.216 150.033 105.96 149.457 106.92L146.757 104.58C147.141 104.028 147.573 103.5 148.053 102.996C148.533 102.492 149.097 102.06 149.745 101.7C150.393 101.316 151.125 101.016 151.941 100.8C152.757 100.56 153.693 100.44 154.749 100.44C155.925 100.44 157.017 100.584 158.025 100.872C159.033 101.16 159.897 101.592 160.617 102.168C161.337 102.72 161.901 103.404 162.309 104.22C162.717 105.012 162.921 105.912 162.921 106.92C162.921 107.712 162.789 108.432 162.525 109.08C162.285 109.728 161.937 110.304 161.481 110.808C161.049 111.288 160.533 111.684 159.933 111.996C159.357 112.308 158.745 112.536 158.097 112.68V112.86C158.817 113.004 159.489 113.244 160.113 113.58C160.761 113.892 161.325 114.312 161.805 114.84C162.285 115.344 162.657 115.956 162.921 116.676C163.209 117.372 163.353 118.176 163.353 119.088C163.353 120.192 163.137 121.2 162.705 122.112C162.273 123 161.661 123.768 160.869 124.416C160.101 125.064 159.165 125.568 158.061 125.928C156.957 126.264 155.733 126.432 154.389 126.432C153.213 126.432 152.181 126.3 151.293 126.036C150.405 125.796 149.613 125.472 148.917 125.064C148.245 124.632 147.645 124.152 147.117 123.624C146.613 123.072 146.169 122.508 145.785 121.932L148.773 119.592C149.085 120.096 149.409 120.564 149.745 120.996C150.105 121.404 150.501 121.764 150.933 122.076C151.389 122.364 151.893 122.592 152.445 122.76C153.021 122.928 153.669 123.012 154.389 123.012C155.925 123.012 157.101 122.652 157.917 121.932C158.733 121.188 159.141 120.168 159.141 118.872V118.62C159.141 117.324 158.709 116.34 157.845 115.668C156.981 114.996 155.757 114.66 154.173 114.66H151.509V111.204H154.065Z" fill="#937CC8"/>
<path d="M71.3708 161.168C70.6801 161.168 70.1014 161.047 69.6348 160.804C69.1681 160.561 68.7621 160.225 68.4168 159.796L69.3968 158.9C69.6674 159.227 69.9661 159.483 70.2928 159.67C70.6288 159.847 71.0161 159.936 71.4548 159.936C71.9028 159.936 72.2341 159.852 72.4488 159.684C72.6728 159.507 72.7848 159.264 72.7848 158.956C72.7848 158.723 72.7054 158.527 72.5468 158.368C72.3974 158.2 72.1314 158.093 71.7488 158.046L71.0768 157.962C70.3301 157.869 69.7421 157.654 69.3128 157.318C68.8928 156.973 68.6828 156.464 68.6828 155.792C68.6828 155.437 68.7481 155.125 68.8788 154.854C69.0094 154.574 69.1914 154.341 69.4248 154.154C69.6674 153.958 69.9521 153.809 70.2788 153.706C70.6148 153.603 70.9834 153.552 71.3848 153.552C72.0381 153.552 72.5701 153.655 72.9808 153.86C73.4008 154.065 73.7741 154.35 74.1008 154.714L73.1628 155.61C72.9761 155.386 72.7288 155.195 72.4208 155.036C72.1221 154.868 71.7768 154.784 71.3848 154.784C70.9648 154.784 70.6521 154.868 70.4468 155.036C70.2508 155.204 70.1528 155.423 70.1528 155.694C70.1528 155.974 70.2414 156.184 70.4188 156.324C70.5961 156.464 70.8808 156.567 71.2728 156.632L71.9448 156.716C72.7474 156.837 73.3308 157.075 73.6948 157.43C74.0681 157.775 74.2548 158.242 74.2548 158.83C74.2548 159.185 74.1848 159.507 74.0448 159.796C73.9141 160.076 73.7228 160.319 73.4708 160.524C73.2188 160.729 72.9154 160.888 72.5608 161C72.2061 161.112 71.8094 161.168 71.3708 161.168ZM76.7487 152.418C76.4314 152.418 76.1981 152.343 76.0487 152.194C75.9087 152.045 75.8387 151.853 75.8387 151.62V151.382C75.8387 151.149 75.9087 150.957 76.0487 150.808C76.1981 150.659 76.4314 150.584 76.7487 150.584C77.0661 150.584 77.2947 150.659 77.4347 150.808C77.5747 150.957 77.6447 151.149 77.6447 151.382V151.62C77.6447 151.853 77.5747 152.045 77.4347 152.194C77.2947 152.343 77.0661 152.418 76.7487 152.418ZM75.9787 153.72H77.5047V161H75.9787V153.72ZM79.6838 161V153.72H81.2098V154.924H81.2798C81.4385 154.532 81.6765 154.205 81.9938 153.944C82.3205 153.683 82.7638 153.552 83.3238 153.552C84.0705 153.552 84.6491 153.799 85.0598 154.294C85.4798 154.779 85.6898 155.475 85.6898 156.38V161H84.1638V156.576C84.1638 155.437 83.7065 154.868 82.7918 154.868C82.5958 154.868 82.3998 154.896 82.2038 154.952C82.0171 154.999 81.8491 155.073 81.6998 155.176C81.5505 155.279 81.4291 155.409 81.3358 155.568C81.2518 155.727 81.2098 155.913 81.2098 156.128V161H79.6838ZM90.6189 161.168C90.0962 161.168 89.6296 161.079 89.2189 160.902C88.8082 160.725 88.4629 160.473 88.1829 160.146C87.9029 159.81 87.6882 159.409 87.5389 158.942C87.3896 158.466 87.3149 157.939 87.3149 157.36C87.3149 156.781 87.3896 156.259 87.5389 155.792C87.6882 155.316 87.9029 154.915 88.1829 154.588C88.4629 154.252 88.8082 153.995 89.2189 153.818C89.6296 153.641 90.0962 153.552 90.6189 153.552C91.3469 153.552 91.9442 153.715 92.4109 154.042C92.8776 154.369 93.2182 154.803 93.4329 155.344L92.1729 155.932C92.0702 155.596 91.8882 155.33 91.6269 155.134C91.3749 154.929 91.0389 154.826 90.6189 154.826C90.0589 154.826 89.6342 155.003 89.3449 155.358C89.0649 155.703 88.9249 156.156 88.9249 156.716V158.018C88.9249 158.578 89.0649 159.035 89.3449 159.39C89.6342 159.735 90.0589 159.908 90.6189 159.908C91.0669 159.908 91.4216 159.801 91.6829 159.586C91.9536 159.362 92.1682 159.068 92.3269 158.704L93.4889 159.32C93.2462 159.917 92.8822 160.375 92.3969 160.692C91.9116 161.009 91.3189 161.168 90.6189 161.168ZM97.7156 161.168C97.1929 161.168 96.7262 161.079 96.3156 160.902C95.9049 160.725 95.5549 160.473 95.2656 160.146C94.9762 159.81 94.7522 159.409 94.5936 158.942C94.4442 158.466 94.3696 157.939 94.3696 157.36C94.3696 156.781 94.4442 156.259 94.5936 155.792C94.7522 155.316 94.9762 154.915 95.2656 154.588C95.5549 154.252 95.9049 153.995 96.3156 153.818C96.7262 153.641 97.1929 153.552 97.7156 153.552C98.2476 153.552 98.7142 153.645 99.1156 153.832C99.5262 154.019 99.8669 154.28 100.138 154.616C100.408 154.943 100.609 155.325 100.74 155.764C100.88 156.203 100.95 156.674 100.95 157.178V157.752H95.9516V157.99C95.9516 158.55 96.1149 159.012 96.4416 159.376C96.7776 159.731 97.2536 159.908 97.8696 159.908C98.3176 159.908 98.6956 159.81 99.0036 159.614C99.3116 159.418 99.5729 159.152 99.7876 158.816L100.684 159.698C100.413 160.146 100.021 160.505 99.5076 160.776C98.9942 161.037 98.3969 161.168 97.7156 161.168ZM97.7156 154.742C97.4542 154.742 97.2116 154.789 96.9876 154.882C96.7729 154.975 96.5862 155.106 96.4276 155.274C96.2782 155.442 96.1616 155.643 96.0776 155.876C95.9936 156.109 95.9516 156.366 95.9516 156.646V156.744H99.3396V156.604C99.3396 156.044 99.1949 155.596 98.9056 155.26C98.6162 154.915 98.2196 154.742 97.7156 154.742ZM107.501 161C106.979 161 106.587 160.869 106.325 160.608C106.073 160.337 105.947 159.964 105.947 159.488V150.64H107.473V159.754H108.481V161H107.501ZM115.274 161C114.872 161 114.564 160.888 114.35 160.664C114.135 160.431 114.004 160.137 113.958 159.782H113.888C113.748 160.239 113.491 160.585 113.118 160.818C112.744 161.051 112.292 161.168 111.76 161.168C111.004 161.168 110.42 160.972 110.01 160.58C109.608 160.188 109.408 159.661 109.408 158.998C109.408 158.27 109.669 157.724 110.192 157.36C110.724 156.996 111.498 156.814 112.516 156.814H113.832V156.198C113.832 155.75 113.71 155.405 113.468 155.162C113.225 154.919 112.847 154.798 112.334 154.798C111.904 154.798 111.554 154.891 111.284 155.078C111.013 155.265 110.784 155.503 110.598 155.792L109.688 154.966C109.93 154.555 110.271 154.219 110.71 153.958C111.148 153.687 111.722 153.552 112.432 153.552C113.374 153.552 114.098 153.771 114.602 154.21C115.106 154.649 115.358 155.279 115.358 156.1V159.754H116.128V161H115.274ZM112.194 160.006C112.67 160.006 113.062 159.903 113.37 159.698C113.678 159.483 113.832 159.199 113.832 158.844V157.794H112.544C111.489 157.794 110.962 158.121 110.962 158.774V159.026C110.962 159.353 111.069 159.6 111.284 159.768C111.508 159.927 111.811 160.006 112.194 160.006ZM122.033 159.796H121.977C121.912 159.973 121.823 160.146 121.711 160.314C121.609 160.482 121.473 160.631 121.305 160.762C121.147 160.883 120.951 160.981 120.717 161.056C120.493 161.131 120.232 161.168 119.933 161.168C119.177 161.168 118.589 160.925 118.169 160.44C117.759 159.955 117.553 159.259 117.553 158.354V153.72H119.079V158.158C119.079 159.287 119.546 159.852 120.479 159.852C120.675 159.852 120.867 159.829 121.053 159.782C121.24 159.726 121.403 159.647 121.543 159.544C121.693 159.441 121.809 159.311 121.893 159.152C121.987 158.993 122.033 158.807 122.033 158.592V153.72H123.559V161H122.033V159.796ZM125.744 161V153.72H127.27V154.924H127.34C127.499 154.532 127.737 154.205 128.054 153.944C128.381 153.683 128.824 153.552 129.384 153.552C130.131 153.552 130.71 153.799 131.12 154.294C131.54 154.779 131.75 155.475 131.75 156.38V161H130.224V156.576C130.224 155.437 129.767 154.868 128.852 154.868C128.656 154.868 128.46 154.896 128.264 154.952C128.078 154.999 127.91 155.073 127.76 155.176C127.611 155.279 127.49 155.409 127.396 155.568C127.312 155.727 127.27 155.913 127.27 156.128V161H125.744ZM136.679 161.168C136.157 161.168 135.69 161.079 135.279 160.902C134.869 160.725 134.523 160.473 134.243 160.146C133.963 159.81 133.749 159.409 133.599 158.942C133.45 158.466 133.375 157.939 133.375 157.36C133.375 156.781 133.45 156.259 133.599 155.792C133.749 155.316 133.963 154.915 134.243 154.588C134.523 154.252 134.869 153.995 135.279 153.818C135.69 153.641 136.157 153.552 136.679 153.552C137.407 153.552 138.005 153.715 138.471 154.042C138.938 154.369 139.279 154.803 139.493 155.344L138.233 155.932C138.131 155.596 137.949 155.33 137.687 155.134C137.435 154.929 137.099 154.826 136.679 154.826C136.119 154.826 135.695 155.003 135.405 155.358C135.125 155.703 134.985 156.156 134.985 156.716V158.018C134.985 158.578 135.125 159.035 135.405 159.39C135.695 159.735 136.119 159.908 136.679 159.908C137.127 159.908 137.482 159.801 137.743 159.586C138.014 159.362 138.229 159.068 138.387 158.704L139.549 159.32C139.307 159.917 138.943 160.375 138.457 160.692C137.972 161.009 137.379 161.168 136.679 161.168ZM141.002 150.64H142.528V154.924H142.598C142.757 154.532 142.995 154.205 143.312 153.944C143.639 153.683 144.082 153.552 144.642 153.552C145.389 153.552 145.967 153.799 146.378 154.294C146.798 154.779 147.008 155.475 147.008 156.38V161H145.482V156.562C145.482 155.433 145.025 154.868 144.11 154.868C143.914 154.868 143.718 154.896 143.522 154.952C143.335 154.999 143.167 155.073 143.018 155.176C142.869 155.279 142.747 155.409 142.654 155.568C142.57 155.727 142.528 155.909 142.528 156.114V161H141.002V150.64Z" fill="#937CC8"/>
<rect x="1" y="1" width="214" height="214" rx="107" stroke="#71648E" stroke-width="2"/>
</svg>
