<svg width="200" height="200" viewBox="0 0 200 200" fill="none" xmlns="http://www.w3.org/2000/svg">
<rect width="200" height="200" rx="100" fill="#937CC8"/>
<path opacity="0.5" d="M71.04 64L66.4 50.04H68.2L70.5 57.08L72.04 62.32H72.14L73.72 57.08L76.04 50.04H77.78L73.08 64H71.04ZM80.6875 51.26C80.3408 51.26 80.0875 51.18 79.9275 51.02C79.7808 50.8467 79.7075 50.6267 79.7075 50.36V50.1C79.7075 49.8333 79.7808 49.62 79.9275 49.46C80.0875 49.2867 80.3408 49.2 80.6875 49.2C81.0342 49.2 81.2808 49.2867 81.4275 49.46C81.5875 49.62 81.6675 49.8333 81.6675 50.1V50.36C81.6675 50.6267 81.5875 50.8467 81.4275 51.02C81.2808 51.18 81.0342 51.26 80.6875 51.26ZM79.8875 53.68H81.4875V64H79.8875V53.68ZM87.9875 64.24C87.0275 64.24 86.2208 64.06 85.5675 63.7C84.9275 63.3267 84.3742 62.8333 83.9075 62.22L85.0475 61.3C85.4475 61.8067 85.8942 62.2 86.3875 62.48C86.8808 62.7467 87.4542 62.88 88.1075 62.88C88.7875 62.88 89.3142 62.7333 89.6875 62.44C90.0742 62.1467 90.2675 61.7333 90.2675 61.2C90.2675 60.8 90.1342 60.46 89.8675 60.18C89.6142 59.8867 89.1475 59.6867 88.4675 59.58L87.6475 59.46C87.1675 59.3933 86.7275 59.2933 86.3275 59.16C85.9275 59.0133 85.5742 58.8267 85.2675 58.6C84.9742 58.36 84.7408 58.0667 84.5675 57.72C84.4075 57.3733 84.3275 56.96 84.3275 56.48C84.3275 55.9733 84.4208 55.5333 84.6075 55.16C84.7942 54.7733 85.0475 54.4533 85.3675 54.2C85.7008 53.9467 86.0942 53.76 86.5475 53.64C87.0008 53.5067 87.4875 53.44 88.0075 53.44C88.8475 53.44 89.5475 53.5867 90.1075 53.88C90.6808 54.1733 91.1808 54.58 91.6075 55.1L90.5475 56.06C90.3208 55.74 89.9875 55.4533 89.5475 55.2C89.1075 54.9333 88.5542 54.8 87.8875 54.8C87.2208 54.8 86.7142 54.9467 86.3675 55.24C86.0342 55.52 85.8675 55.9067 85.8675 56.4C85.8675 56.9067 86.0342 57.2733 86.3675 57.5C86.7142 57.7267 87.2075 57.8933 87.8475 58L88.6475 58.12C89.7942 58.2933 90.6075 58.6267 91.0875 59.12C91.5675 59.6 91.8075 60.2333 91.8075 61.02C91.8075 62.02 91.4675 62.8067 90.7875 63.38C90.1075 63.9533 89.1742 64.24 87.9875 64.24ZM95.4336 51.26C95.0869 51.26 94.8336 51.18 94.6736 51.02C94.5269 50.8467 94.4536 50.6267 94.4536 50.36V50.1C94.4536 49.8333 94.5269 49.62 94.6736 49.46C94.8336 49.2867 95.0869 49.2 95.4336 49.2C95.7803 49.2 96.0269 49.2867 96.1736 49.46C96.3336 49.62 96.4136 49.8333 96.4136 50.1V50.36C96.4136 50.6267 96.3336 50.8467 96.1736 51.02C96.0269 51.18 95.7803 51.26 95.4336 51.26ZM94.6336 53.68H96.2336V64H94.6336V53.68ZM101.914 64C101.354 64 100.927 63.8467 100.634 63.54C100.354 63.22 100.214 62.8067 100.214 62.3V55.08H98.5136V53.68H99.4736C99.8203 53.68 100.054 53.6133 100.174 53.48C100.307 53.3333 100.374 53.0867 100.374 52.74V50.82H101.814V53.68H104.074V55.08H101.814V62.6H103.914V64H101.914ZM110.467 64.24C109.774 64.24 109.141 64.1133 108.567 63.86C107.994 63.6067 107.501 63.2467 107.087 62.78C106.687 62.3 106.374 61.7333 106.147 61.08C105.921 60.4133 105.807 59.6667 105.807 58.84C105.807 58.0267 105.921 57.2867 106.147 56.62C106.374 55.9533 106.687 55.3867 107.087 54.92C107.501 54.44 107.994 54.0733 108.567 53.82C109.141 53.5667 109.774 53.44 110.467 53.44C111.161 53.44 111.787 53.5667 112.347 53.82C112.921 54.0733 113.414 54.44 113.827 54.92C114.241 55.3867 114.561 55.9533 114.787 56.62C115.014 57.2867 115.127 58.0267 115.127 58.84C115.127 59.6667 115.014 60.4133 114.787 61.08C114.561 61.7333 114.241 62.3 113.827 62.78C113.414 63.2467 112.921 63.6067 112.347 63.86C111.787 64.1133 111.161 64.24 110.467 64.24ZM110.467 62.82C111.334 62.82 112.041 62.5533 112.587 62.02C113.134 61.4867 113.407 60.6733 113.407 59.58V58.1C113.407 57.0067 113.134 56.1933 112.587 55.66C112.041 55.1267 111.334 54.86 110.467 54.86C109.601 54.86 108.894 55.1267 108.347 55.66C107.801 56.1933 107.527 57.0067 107.527 58.1V59.58C107.527 60.6733 107.801 61.4867 108.347 62.02C108.894 62.5533 109.601 62.82 110.467 62.82ZM117.759 64V53.68H119.359V55.58H119.459C119.645 55.0867 119.979 54.6467 120.459 54.26C120.939 53.8733 121.599 53.68 122.439 53.68H123.059V55.28H122.119C121.252 55.28 120.572 55.4467 120.079 55.78C119.599 56.1 119.359 56.5067 119.359 57V64H117.759ZM128.202 64.24C127.242 64.24 126.436 64.06 125.782 63.7C125.142 63.3267 124.589 62.8333 124.122 62.22L125.262 61.3C125.662 61.8067 126.109 62.2 126.602 62.48C127.096 62.7467 127.669 62.88 128.322 62.88C129.002 62.88 129.529 62.7333 129.902 62.44C130.289 62.1467 130.482 61.7333 130.482 61.2C130.482 60.8 130.349 60.46 130.082 60.18C129.829 59.8867 129.362 59.6867 128.682 59.58L127.862 59.46C127.382 59.3933 126.942 59.2933 126.542 59.16C126.142 59.0133 125.789 58.8267 125.482 58.6C125.189 58.36 124.956 58.0667 124.782 57.72C124.622 57.3733 124.542 56.96 124.542 56.48C124.542 55.9733 124.636 55.5333 124.822 55.16C125.009 54.7733 125.262 54.4533 125.582 54.2C125.916 53.9467 126.309 53.76 126.762 53.64C127.216 53.5067 127.702 53.44 128.222 53.44C129.062 53.44 129.762 53.5867 130.322 53.88C130.896 54.1733 131.396 54.58 131.822 55.1L130.762 56.06C130.536 55.74 130.202 55.4533 129.762 55.2C129.322 54.9333 128.769 54.8 128.102 54.8C127.436 54.8 126.929 54.9467 126.582 55.24C126.249 55.52 126.082 55.9067 126.082 56.4C126.082 56.9067 126.249 57.2733 126.582 57.5C126.929 57.7267 127.422 57.8933 128.062 58L128.862 58.12C130.009 58.2933 130.822 58.6267 131.302 59.12C131.782 59.6 132.022 60.2333 132.022 61.02C132.022 62.02 131.682 62.8067 131.002 63.38C130.322 63.9533 129.389 64.24 128.202 64.24Z" fill="#F6F6F6"/>
<path d="M50.1763 118H33.6883V114.904L41.8963 107.344C43.0723 106.264 44.0563 105.124 44.8483 103.924C45.6403 102.7 46.0363 101.476 46.0363 100.252V99.82C46.0363 98.428 45.6523 97.3 44.8843 96.436C44.1163 95.572 42.9523 95.14 41.3923 95.14C40.6243 95.14 39.9523 95.248 39.3763 95.464C38.8003 95.68 38.2963 95.98 37.8643 96.364C37.4563 96.748 37.1083 97.204 36.8203 97.732C36.5563 98.236 36.3403 98.788 36.1723 99.388L33.4723 98.344C33.7123 97.6 34.0363 96.88 34.4443 96.184C34.8763 95.464 35.4043 94.828 36.0283 94.276C36.6763 93.724 37.4443 93.28 38.3323 92.944C39.2443 92.608 40.3123 92.44 41.5363 92.44C42.7603 92.44 43.8523 92.62 44.8123 92.98C45.7723 93.34 46.5763 93.844 47.2243 94.492C47.8723 95.14 48.3643 95.908 48.7003 96.796C49.0603 97.684 49.2403 98.668 49.2403 99.748C49.2403 100.732 49.0963 101.644 48.8083 102.484C48.5443 103.324 48.1723 104.128 47.6923 104.896C47.2123 105.64 46.6243 106.372 45.9283 107.092C45.2563 107.812 44.5243 108.532 43.7323 109.252L36.9643 115.336H50.1763V118ZM61.9702 103.528C63.6742 103.528 64.9462 103.144 65.7862 102.376C66.6502 101.584 67.0822 100.576 67.0822 99.352V99.1C67.0822 97.78 66.6622 96.796 65.8222 96.148C65.0062 95.476 63.9262 95.14 62.5822 95.14C61.2862 95.14 60.2302 95.428 59.4142 96.004C58.5982 96.556 57.9262 97.312 57.3982 98.272L55.1662 96.544C55.4782 96.04 55.8502 95.548 56.2822 95.068C56.7382 94.564 57.2662 94.12 57.8662 93.736C58.4662 93.352 59.1622 93.04 59.9542 92.8C60.7462 92.56 61.6462 92.44 62.6542 92.44C63.7102 92.44 64.7062 92.584 65.6422 92.872C66.5782 93.136 67.3822 93.544 68.0542 94.096C68.7502 94.624 69.2902 95.284 69.6742 96.076C70.0822 96.868 70.2862 97.768 70.2862 98.776C70.2862 99.592 70.1542 100.324 69.8902 100.972C69.6502 101.62 69.3142 102.184 68.8822 102.664C68.4502 103.144 67.9342 103.552 67.3342 103.888C66.7582 104.224 66.1342 104.476 65.4622 104.644V104.788C66.1342 104.932 66.7822 105.172 67.4062 105.508C68.0542 105.82 68.6182 106.24 69.0982 106.768C69.6022 107.272 69.9982 107.896 70.2862 108.64C70.5982 109.36 70.7542 110.188 70.7542 111.124C70.7542 112.204 70.5502 113.2 70.1422 114.112C69.7342 115 69.1582 115.768 68.4142 116.416C67.6702 117.04 66.7702 117.532 65.7142 117.892C64.6582 118.252 63.4942 118.432 62.2222 118.432C61.1422 118.432 60.1822 118.312 59.3422 118.072C58.5022 117.832 57.7582 117.508 57.1102 117.1C56.4622 116.692 55.8862 116.236 55.3822 115.732C54.9022 115.228 54.4702 114.7 54.0862 114.148L56.3542 112.42C56.6662 112.924 57.0022 113.38 57.3622 113.788C57.7462 114.196 58.1662 114.544 58.6222 114.832C59.0782 115.12 59.5942 115.348 60.1702 115.516C60.7462 115.66 61.4182 115.732 62.1862 115.732C63.9622 115.732 65.3062 115.336 66.2182 114.544C67.1302 113.728 67.5862 112.576 67.5862 111.088V110.8C67.5862 109.312 67.1302 108.172 66.2182 107.38C65.3062 106.564 63.9622 106.156 62.1862 106.156H59.2342V103.528H61.9702ZM87.6602 118V113.068H75.5282V110.404L86.0402 92.872H90.5402V110.548H94.1762V113.068H90.5402V118H87.6602ZM78.3722 110.548H87.6602V95.212H87.4802L78.3722 110.548ZM115.054 118.432C112.054 118.432 109.858 117.292 108.466 115.012C107.098 112.732 106.414 109.54 106.414 105.436C106.414 101.332 107.098 98.14 108.466 95.86C109.858 93.58 112.054 92.44 115.054 92.44C118.054 92.44 120.238 93.58 121.606 95.86C122.998 98.14 123.694 101.332 123.694 105.436C123.694 109.54 122.998 112.732 121.606 115.012C120.238 117.292 118.054 118.432 115.054 118.432ZM115.054 115.804C116.038 115.804 116.878 115.6 117.574 115.192C118.27 114.784 118.834 114.208 119.266 113.464C119.698 112.72 120.01 111.844 120.202 110.836C120.418 109.828 120.526 108.712 120.526 107.488V103.384C120.526 102.16 120.418 101.044 120.202 100.036C120.01 99.028 119.698 98.152 119.266 97.408C118.834 96.664 118.27 96.088 117.574 95.68C116.878 95.272 116.038 95.068 115.054 95.068C114.07 95.068 113.23 95.272 112.534 95.68C111.838 96.088 111.274 96.664 110.842 97.408C110.41 98.152 110.086 99.028 109.87 100.036C109.678 101.044 109.582 102.16 109.582 103.384V107.488C109.582 108.712 109.678 109.828 109.87 110.836C110.086 111.844 110.41 112.72 110.842 113.464C111.274 114.208 111.838 114.784 112.534 115.192C113.23 115.6 114.07 115.804 115.054 115.804ZM143.768 95.536H132.752L132.032 105.112H132.284C132.884 104.272 133.556 103.6 134.3 103.096C135.068 102.592 136.112 102.34 137.432 102.34C138.512 102.34 139.508 102.52 140.42 102.88C141.332 103.24 142.124 103.756 142.796 104.428C143.468 105.076 143.984 105.88 144.344 106.84C144.728 107.8 144.92 108.892 144.92 110.116C144.92 111.34 144.728 112.468 144.344 113.5C143.96 114.508 143.396 115.384 142.652 116.128C141.932 116.848 141.044 117.412 139.988 117.82C138.956 118.228 137.78 118.432 136.46 118.432C135.404 118.432 134.468 118.312 133.652 118.072C132.86 117.832 132.152 117.508 131.528 117.1C130.904 116.692 130.352 116.236 129.872 115.732C129.416 115.228 128.996 114.7 128.612 114.148L130.88 112.42C131.192 112.924 131.516 113.38 131.852 113.788C132.212 114.196 132.596 114.544 133.004 114.832C133.436 115.12 133.928 115.348 134.48 115.516C135.032 115.66 135.692 115.732 136.46 115.732C138.188 115.732 139.496 115.276 140.384 114.364C141.272 113.452 141.716 112.168 141.716 110.512V110.152C141.716 108.496 141.272 107.212 140.384 106.3C139.496 105.388 138.188 104.932 136.46 104.932C135.308 104.932 134.396 105.148 133.724 105.58C133.076 105.988 132.488 106.48 131.96 107.056L129.404 106.696L130.304 92.872H143.768V95.536ZM160.926 118V113.068H148.794V110.404L159.306 92.872H163.806V110.548H167.442V113.068H163.806V118H160.926ZM151.638 110.548H160.926V95.212H160.746L151.638 110.548Z" fill="#F6F6F6"/>
<path d="M66.1781 151.824H66.1221C66.0475 151.992 65.9541 152.16 65.8421 152.328C65.7395 152.487 65.6088 152.631 65.4501 152.762C65.2915 152.883 65.1001 152.981 64.8761 153.056C64.6521 153.131 64.3908 153.168 64.0921 153.168C63.3455 153.168 62.7528 152.93 62.3141 152.454C61.8755 151.969 61.6561 151.287 61.6561 150.41V145.776H62.7761V150.214C62.7761 151.511 63.3268 152.16 64.4281 152.16C64.6521 152.16 64.8668 152.132 65.0721 152.076C65.2868 152.02 65.4735 151.936 65.6321 151.824C65.8001 151.712 65.9308 151.572 66.0241 151.404C66.1268 151.227 66.1781 151.017 66.1781 150.774V145.776H67.2981V153H66.1781V151.824ZM69.6832 153V145.776H70.8032V146.952H70.8592C71.0365 146.541 71.2838 146.215 71.6012 145.972C71.9278 145.729 72.3618 145.608 72.9032 145.608C73.6498 145.608 74.2378 145.851 74.6672 146.336C75.1058 146.812 75.3252 147.489 75.3252 148.366V153H74.2052V148.562C74.2052 147.265 73.6592 146.616 72.5672 146.616C72.3432 146.616 72.1238 146.644 71.9092 146.7C71.7038 146.756 71.5172 146.84 71.3492 146.952C71.1812 147.064 71.0458 147.209 70.9432 147.386C70.8498 147.554 70.8032 147.755 70.8032 147.988V153H69.6832ZM78.2002 144.082C77.9575 144.082 77.7802 144.026 77.6682 143.914C77.5655 143.793 77.5142 143.639 77.5142 143.452V143.27C77.5142 143.083 77.5655 142.934 77.6682 142.822C77.7802 142.701 77.9575 142.64 78.2002 142.64C78.4429 142.64 78.6155 142.701 78.7182 142.822C78.8302 142.934 78.8862 143.083 78.8862 143.27V143.452C78.8862 143.639 78.8302 143.793 78.7182 143.914C78.6155 144.026 78.4429 144.082 78.2002 144.082ZM77.6402 145.776H78.7602V153H77.6402V145.776ZM85.7602 151.824H85.7042C85.2655 152.72 84.5609 153.168 83.5902 153.168C83.1422 153.168 82.7362 153.079 82.3722 152.902C82.0082 152.725 81.6955 152.473 81.4342 152.146C81.1822 151.819 80.9862 151.423 80.8462 150.956C80.7155 150.489 80.6502 149.967 80.6502 149.388C80.6502 148.809 80.7155 148.287 80.8462 147.82C80.9862 147.353 81.1822 146.957 81.4342 146.63C81.6955 146.303 82.0082 146.051 82.3722 145.874C82.7362 145.697 83.1422 145.608 83.5902 145.608C84.0942 145.608 84.5235 145.72 84.8782 145.944C85.2422 146.159 85.5175 146.495 85.7042 146.952H85.7602V145.776H86.8802V155.8H85.7602V151.824ZM83.8982 152.16C84.1502 152.16 84.3882 152.127 84.6122 152.062C84.8455 151.997 85.0462 151.903 85.2142 151.782C85.3822 151.651 85.5129 151.497 85.6062 151.32C85.7089 151.133 85.7602 150.923 85.7602 150.69V148.002C85.7602 147.806 85.7089 147.624 85.6062 147.456C85.5129 147.279 85.3822 147.129 85.2142 147.008C85.0462 146.887 84.8455 146.793 84.6122 146.728C84.3882 146.653 84.1502 146.616 83.8982 146.616C83.2635 146.616 82.7642 146.817 82.4002 147.218C82.0362 147.61 81.8542 148.128 81.8542 148.772V150.004C81.8542 150.648 82.0362 151.171 82.4002 151.572C82.7642 151.964 83.2635 152.16 83.8982 152.16ZM93.7133 151.824H93.6573C93.5826 151.992 93.4893 152.16 93.3773 152.328C93.2746 152.487 93.144 152.631 92.9853 152.762C92.8266 152.883 92.6353 152.981 92.4113 153.056C92.1873 153.131 91.926 153.168 91.6273 153.168C90.8806 153.168 90.288 152.93 89.8493 152.454C89.4106 151.969 89.1913 151.287 89.1913 150.41V145.776H90.3113V150.214C90.3113 151.511 90.862 152.16 91.9633 152.16C92.1873 152.16 92.402 152.132 92.6073 152.076C92.822 152.02 93.0086 151.936 93.1673 151.824C93.3353 151.712 93.466 151.572 93.5593 151.404C93.662 151.227 93.7133 151.017 93.7133 150.774V145.776H94.8333V153H93.7133V151.824ZM99.9343 153.168C99.4397 153.168 98.9917 153.079 98.5903 152.902C98.1983 152.725 97.8577 152.473 97.5683 152.146C97.2883 151.81 97.069 151.413 96.9103 150.956C96.761 150.489 96.6863 149.967 96.6863 149.388C96.6863 148.819 96.761 148.301 96.9103 147.834C97.069 147.367 97.2883 146.971 97.5683 146.644C97.8577 146.308 98.1983 146.051 98.5903 145.874C98.9917 145.697 99.4397 145.608 99.9343 145.608C100.42 145.608 100.854 145.697 101.236 145.874C101.619 146.051 101.946 146.299 102.216 146.616C102.487 146.924 102.692 147.293 102.832 147.722C102.982 148.151 103.056 148.623 103.056 149.136V149.668H97.8623V150.004C97.8623 150.312 97.909 150.601 98.0023 150.872C98.105 151.133 98.245 151.362 98.4223 151.558C98.609 151.754 98.833 151.908 99.0943 152.02C99.365 152.132 99.6683 152.188 100.004 152.188C100.462 152.188 100.858 152.081 101.194 151.866C101.54 151.651 101.806 151.343 101.992 150.942L102.79 151.516C102.557 152.011 102.193 152.412 101.698 152.72C101.204 153.019 100.616 153.168 99.9343 153.168ZM99.9343 146.546C99.6263 146.546 99.3463 146.602 99.0943 146.714C98.8423 146.817 98.623 146.966 98.4363 147.162C98.259 147.358 98.119 147.591 98.0163 147.862C97.9137 148.123 97.8623 148.413 97.8623 148.73V148.828H101.852V148.674C101.852 148.03 101.675 147.517 101.32 147.134C100.975 146.742 100.513 146.546 99.9343 146.546ZM109.807 153L107.273 145.776H108.393L109.653 149.36L110.437 151.824H110.507L111.291 149.36L112.579 145.776H113.657L111.109 153H109.807ZM115.661 144.082C115.418 144.082 115.241 144.026 115.129 143.914C115.026 143.793 114.975 143.639 114.975 143.452V143.27C114.975 143.083 115.026 142.934 115.129 142.822C115.241 142.701 115.418 142.64 115.661 142.64C115.904 142.64 116.076 142.701 116.179 142.822C116.291 142.934 116.347 143.083 116.347 143.27V143.452C116.347 143.639 116.291 143.793 116.179 143.914C116.076 144.026 115.904 144.082 115.661 144.082ZM115.101 145.776H116.221V153H115.101V145.776ZM120.771 153.168C120.099 153.168 119.534 153.042 119.077 152.79C118.629 152.529 118.242 152.183 117.915 151.754L118.713 151.11C118.993 151.465 119.306 151.74 119.651 151.936C119.996 152.123 120.398 152.216 120.855 152.216C121.331 152.216 121.7 152.113 121.961 151.908C122.232 151.703 122.367 151.413 122.367 151.04C122.367 150.76 122.274 150.522 122.087 150.326C121.91 150.121 121.583 149.981 121.107 149.906L120.533 149.822C120.197 149.775 119.889 149.705 119.609 149.612C119.329 149.509 119.082 149.379 118.867 149.22C118.662 149.052 118.498 148.847 118.377 148.604C118.265 148.361 118.209 148.072 118.209 147.736C118.209 147.381 118.274 147.073 118.405 146.812C118.536 146.541 118.713 146.317 118.937 146.14C119.17 145.963 119.446 145.832 119.763 145.748C120.08 145.655 120.421 145.608 120.785 145.608C121.373 145.608 121.863 145.711 122.255 145.916C122.656 146.121 123.006 146.406 123.305 146.77L122.563 147.442C122.404 147.218 122.171 147.017 121.863 146.84C121.555 146.653 121.168 146.56 120.701 146.56C120.234 146.56 119.88 146.663 119.637 146.868C119.404 147.064 119.287 147.335 119.287 147.68C119.287 148.035 119.404 148.291 119.637 148.45C119.88 148.609 120.225 148.725 120.673 148.8L121.233 148.884C122.036 149.005 122.605 149.239 122.941 149.584C123.277 149.92 123.445 150.363 123.445 150.914C123.445 151.614 123.207 152.165 122.731 152.566C122.255 152.967 121.602 153.168 120.771 153.168ZM125.983 144.082C125.741 144.082 125.563 144.026 125.451 143.914C125.349 143.793 125.297 143.639 125.297 143.452V143.27C125.297 143.083 125.349 142.934 125.451 142.822C125.563 142.701 125.741 142.64 125.983 142.64C126.226 142.64 126.399 142.701 126.501 142.822C126.613 142.934 126.669 143.083 126.669 143.27V143.452C126.669 143.639 126.613 143.793 126.501 143.914C126.399 144.026 126.226 144.082 125.983 144.082ZM125.423 145.776H126.543V153H125.423V145.776ZM130.519 153C130.127 153 129.829 152.893 129.623 152.678C129.427 152.454 129.329 152.165 129.329 151.81V146.756H128.139V145.776H128.811C129.054 145.776 129.217 145.729 129.301 145.636C129.395 145.533 129.441 145.361 129.441 145.118V143.774H130.449V145.776H132.031V146.756H130.449V152.02H131.919V153H130.519ZM136.002 153.168C135.33 153.168 134.765 153.042 134.308 152.79C133.86 152.529 133.472 152.183 133.146 151.754L133.944 151.11C134.224 151.465 134.536 151.74 134.882 151.936C135.227 152.123 135.628 152.216 136.086 152.216C136.562 152.216 136.93 152.113 137.192 151.908C137.462 151.703 137.598 151.413 137.598 151.04C137.598 150.76 137.504 150.522 137.318 150.326C137.14 150.121 136.814 149.981 136.338 149.906L135.764 149.822C135.428 149.775 135.12 149.705 134.84 149.612C134.56 149.509 134.312 149.379 134.098 149.22C133.892 149.052 133.729 148.847 133.608 148.604C133.496 148.361 133.44 148.072 133.44 147.736C133.44 147.381 133.505 147.073 133.636 146.812C133.766 146.541 133.944 146.317 134.168 146.14C134.401 145.963 134.676 145.832 134.994 145.748C135.311 145.655 135.652 145.608 136.016 145.608C136.604 145.608 137.094 145.711 137.486 145.916C137.887 146.121 138.237 146.406 138.536 146.77L137.794 147.442C137.635 147.218 137.402 147.017 137.094 146.84C136.786 146.653 136.398 146.56 135.932 146.56C135.465 146.56 135.11 146.663 134.868 146.868C134.634 147.064 134.518 147.335 134.518 147.68C134.518 148.035 134.634 148.291 134.868 148.45C135.11 148.609 135.456 148.725 135.904 148.8L136.464 148.884C137.266 149.005 137.836 149.239 138.172 149.584C138.508 149.92 138.676 150.363 138.676 150.914C138.676 151.614 138.438 152.165 137.962 152.566C137.486 152.967 136.832 153.168 136.002 153.168Z" fill="#F6F6F6"/>
</svg>
